<svg width="105" height="105" viewBox="0 0 105 105" fill="none" xmlns="http://www.w3.org/2000/svg">
<rect width="104.672" height="104.672" rx="14" fill="white"/>
<rect x="0.25" y="0.25" width="104.172" height="104.172" rx="13.75" stroke="black" stroke-opacity="0.7" stroke-width="0.5"/>
<path d="M19.7571 65H13.8253L22.8636 38.8182H29.9972L39.0227 65H33.0909L26.5327 44.8011H26.3281L19.7571 65ZM19.3864 54.7088H33.3977V59.0298H19.3864V54.7088ZM64.2832 51.9091C64.2832 54.7642 63.742 57.1932 62.6596 59.196C61.5858 61.1989 60.1198 62.7287 58.2619 63.7855C56.4125 64.8338 54.3329 65.358 52.0233 65.358C49.6965 65.358 47.6085 64.8295 45.759 63.7727C43.9096 62.7159 42.448 61.1861 41.3741 59.1832C40.3002 57.1804 39.7633 54.7557 39.7633 51.9091C39.7633 49.054 40.3002 46.625 41.3741 44.6222C42.448 42.6193 43.9096 41.0937 45.759 40.0455C47.6085 38.9886 49.6965 38.4602 52.0233 38.4602C54.3329 38.4602 56.4125 38.9886 58.2619 40.0455C60.1198 41.0937 61.5858 42.6193 62.6596 44.6222C63.742 46.625 64.2832 49.054 64.2832 51.9091ZM58.671 51.9091C58.671 50.0597 58.394 48.5 57.84 47.2301C57.2946 45.9602 56.5233 44.9972 55.5261 44.3409C54.5289 43.6847 53.3613 43.3565 52.0233 43.3565C50.6852 43.3565 49.5176 43.6847 48.5204 44.3409C47.5233 44.9972 46.7477 45.9602 46.1937 47.2301C45.6483 48.5 45.3755 50.0597 45.3755 51.9091C45.3755 53.7585 45.6483 55.3182 46.1937 56.5881C46.7477 57.858 47.5233 58.821 48.5204 59.4773C49.5176 60.1335 50.6852 60.4616 52.0233 60.4616C53.3613 60.4616 54.5289 60.1335 55.5261 59.4773C56.5233 58.821 57.2946 57.858 57.84 56.5881C58.394 55.3182 58.671 53.7585 58.671 51.9091ZM81.8668 46.348C81.7645 45.3168 81.3256 44.5156 80.5501 43.9446C79.7745 43.3736 78.7219 43.0881 77.3924 43.0881C76.489 43.0881 75.7262 43.2159 75.104 43.4716C74.4819 43.7188 74.0046 44.0639 73.6722 44.5071C73.3484 44.9503 73.1864 45.4531 73.1864 46.0156C73.1694 46.4844 73.2674 46.8935 73.4805 47.2429C73.702 47.5923 74.0046 47.8949 74.3881 48.1506C74.7716 48.3977 75.2148 48.6151 75.7177 48.8026C76.2205 48.9815 76.7574 49.1349 77.3285 49.2628L79.6807 49.8253C80.8228 50.081 81.8711 50.4219 82.8256 50.848C83.7802 51.2741 84.6069 51.7983 85.3057 52.4205C86.0046 53.0426 86.5458 53.7756 86.9293 54.6193C87.3214 55.4631 87.5217 56.4304 87.5302 57.5213C87.5217 59.1236 87.1126 60.5128 86.3029 61.6889C85.5018 62.8565 84.3427 63.7642 82.8256 64.4119C81.3171 65.0511 79.4975 65.3707 77.3668 65.3707C75.2532 65.3707 73.4123 65.0469 71.8441 64.3991C70.2844 63.7514 69.0657 62.7926 68.1878 61.5227C67.3185 60.2443 66.8626 58.6634 66.8199 56.7798H72.1765C72.2361 57.6577 72.4876 58.3906 72.9307 58.9787C73.3824 59.5582 73.9833 59.9972 74.7333 60.2955C75.4918 60.5852 76.3484 60.7301 77.3029 60.7301C78.2404 60.7301 79.0543 60.5937 79.7447 60.321C80.4435 60.0483 80.9847 59.669 81.3682 59.1832C81.7518 58.6974 81.9435 58.1392 81.9435 57.5085C81.9435 56.9205 81.7688 56.4261 81.4194 56.0256C81.0785 55.625 80.5756 55.2841 79.9109 55.0028C79.2546 54.7216 78.4492 54.4659 77.4947 54.2358L74.6438 53.5199C72.4364 52.983 70.6935 52.1435 69.4151 51.0014C68.1367 49.8594 67.5018 48.321 67.5103 46.3864C67.5018 44.8011 67.9236 43.4162 68.7759 42.2315C69.6367 41.0469 70.8171 40.1222 72.3171 39.4574C73.8171 38.7926 75.5216 38.4602 77.4307 38.4602C79.3739 38.4602 81.0699 38.7926 82.5188 39.4574C83.9762 40.1222 85.1097 41.0469 85.9194 42.2315C86.729 43.4162 87.1466 44.7884 87.1722 46.348H81.8668Z" fill="black"/>
</svg>
