<svg width="240" height="234" viewBox="0 0 240 234" fill="none" xmlns="http://www.w3.org/2000/svg">
<g clip-path="url(#clip0_434_15664)">
<path d="M42.5 0H197.5C221 0 240 19 240 42.5V191.5C240 215 221 234 197.5 234H42.5C19 234 0 215 0 191.5V42.5C0 19 19 0 42.5 0Z" fill="#00005B"/>
<path d="M96.401 139.999H59.201L51.601 163.599C51.401 164.499 50.601 165.099 49.701 164.999H30.901C29.801 164.999 29.501 164.399 29.801 163.199L62.001 70.8992C62.301 69.8992 62.601 68.9992 63.001 67.7992C63.401 65.6992 63.601 63.4992 63.601 61.2992C63.501 60.7992 63.901 60.2992 64.401 60.1992H64.701H90.301C91.001 60.1992 91.501 60.4992 91.601 60.9992L128.101 162.999C128.401 164.099 128.101 164.599 127.101 164.599H106.201C105.501 164.699 104.801 164.199 104.601 163.499L96.401 139.499V139.999ZM65.001 120.099H90.401C89.801 117.999 89.001 115.499 88.101 112.899C87.201 110.199 86.301 107.299 85.401 104.299C84.401 101.199 83.501 98.1992 82.501 95.0992C81.501 91.9992 80.601 89.0992 79.801 86.1992C79.001 83.3992 78.301 80.7992 77.601 78.3992H77.401C76.501 82.6992 75.401 86.9992 74.001 91.2992C72.501 96.0992 71.001 101.099 69.401 106.099C68.101 111.199 66.501 115.899 65.001 120.099Z" fill="#9999FF"/>
<path d="M186.999 131H155.299C155.699 134.1 156.699 137.2 158.399 139.9C160.199 142.6 162.699 144.7 165.699 145.9C169.699 147.6 174.099 148.5 178.499 148.4C181.999 148.3 185.499 148 188.899 147.3C191.999 146.9 194.999 146.1 197.799 145C198.299 144.6 198.599 144.8 198.599 145.8V161.1C198.599 161.5 198.499 161.9 198.399 162.3C198.199 162.6 197.999 162.8 197.699 163C194.499 164.4 191.199 165.4 187.699 166C182.999 166.9 178.299 167.3 173.499 167.2C165.899 167.2 159.499 166 154.299 163.7C149.399 161.6 145.099 158.3 141.699 154.2C138.499 150.3 136.199 145.9 134.799 141.1C133.399 136.4 132.699 131.5 132.699 126.5C132.699 121.1 133.499 115.8 135.199 110.6C136.799 105.6 139.299 101 142.699 96.8998C145.999 92.8998 150.099 89.6998 154.799 87.3998C159.499 85.0998 165.099 84.2998 171.499 84.2998C176.799 84.1998 182.099 85.1998 186.999 87.3998C191.099 89.1998 194.699 91.8998 197.499 95.3998C200.099 98.7998 202.199 102.6 203.499 106.8C204.799 110.8 205.399 114.9 205.399 119C205.399 121.4 205.299 123.5 205.199 125.4C204.999 127.3 204.899 128.7 204.799 129.6C204.699 130.3 204.099 130.9 203.399 130.9C202.799 130.9 201.699 131 200.099 131.1C198.499 131.3 196.599 131.4 194.299 131.4C191.999 131.4 189.599 131 186.999 131ZM155.299 116.4H176.399C178.999 116.4 180.899 116.4 182.099 116.3C182.899 116.2 183.699 116 184.399 115.5V114.5C184.399 113.2 184.199 112 183.799 110.8C181.999 105.2 176.699 101.4 170.799 101.6C165.299 101.3 160.099 104.2 157.499 109.2C156.299 111.5 155.599 113.9 155.299 116.4Z" fill="#9999FF"/>
</g>
<defs>
<clipPath id="clip0_434_15664">
<rect width="240" height="234" fill="white"/>
</clipPath>
</defs>
</svg>
