<svg width="100" height="100" viewBox="0 0 100 100" fill="none" xmlns="http://www.w3.org/2000/svg">
<path d="M78.7376 25.7217L73.5686 83.5653L50.3341 89.9998L27.1635 83.5743L22 25.7217H78.7376Z" fill="#264DE4"/>
<path d="M69.1438 79.8822L73.561 30.4521H50.3691V85.0817L69.1438 79.8822Z" fill="#2965F1"/>
<path d="M33.8379 51.9092L34.4745 59.0045H50.3696V51.9092H33.8379Z" fill="#EBEBEB"/>
<path d="M50.3694 37.5479H50.3449H32.5586L33.2043 44.6433H50.3694V37.5479Z" fill="#EBEBEB"/>
<path d="M50.3687 77.7183V70.3361L50.3376 70.3444L42.427 68.2107L41.9213 62.5518H38.0773H34.791L35.7861 73.6925L50.336 77.7274L50.3687 77.7183Z" fill="#EBEBEB"/>
<path d="M35.3535 10H43.9564V13.5938H38.9511V17.1875H43.9564V20.7812H35.3535V10Z" fill="black"/>
<path d="M45.6758 10H54.2787V13.125H49.2734V13.75H54.2787V20.9375H45.6758V17.6562H50.6811V17.0312H45.6758V10Z" fill="black"/>
<path d="M56 10H64.6029V13.125H59.5976V13.75H64.6029V20.9375H56V17.6562H61.0053V17.0312H56V10Z" fill="black"/>
<path d="M59.0902 59.0044L58.2658 68.2066L50.3438 70.3425V77.7244L64.9052 73.693L65.012 72.4943L66.6811 53.8144L66.8544 51.9091L68.1368 37.5479H50.3438V44.6433H60.3525L59.7062 51.9091H50.3438V59.0044H59.0902Z" fill="white"/>
</svg>
