<svg width="105" height="105" viewBox="0 0 105 105" fill="none" xmlns="http://www.w3.org/2000/svg">
<rect width="104.672" height="104.672" rx="14" fill="black"/>
<g clip-path="url(#clip0_22_2226)">
<path d="M26.4922 26.1678C26.4922 18.9455 32.338 13.0839 39.5408 13.0839H52.5894V39.2518H39.5408C32.338 39.2518 26.4922 33.3901 26.4922 26.1678Z" fill="#F24E1E"/>
<path d="M52.5898 13.0839H65.6385C72.8413 13.0839 78.6871 18.9455 78.6871 26.1678C78.6871 33.3901 72.8413 39.2518 65.6385 39.2518H52.5898V13.0839Z" fill="#FF7262"/>
<path d="M26.4922 52.3357C26.4922 45.1133 32.338 39.2517 39.5408 39.2517H52.5894V65.4196H39.5408C32.338 65.4196 26.4922 59.558 26.4922 52.3357Z" fill="#A259FF"/>
<path d="M78.6871 52.3357C78.6871 59.5581 72.8413 65.4197 65.6385 65.4197C58.4356 65.4197 52.5898 59.5581 52.5898 52.3357C52.5898 45.1134 58.4356 39.2518 65.6385 39.2518C72.8413 39.2518 78.6871 45.1134 78.6871 52.3357Z" fill="#1ABCFE"/>
<path d="M39.5408 91.5876C46.7437 91.5876 52.5894 85.726 52.5894 78.5036V65.4197H39.5408C32.338 65.4197 26.4922 71.2813 26.4922 78.5036C26.4922 85.726 32.338 91.5876 39.5408 91.5876Z" fill="#0ACF83"/>
</g>
<defs>
<clipPath id="clip0_22_2226">
<rect width="52.1945" height="78.5037" fill="white" transform="translate(26.4922 13.0839)"/>
</clipPath>
</defs>
</svg>
