<svg width="380" height="380" viewBox="0 0 380 380" fill="none" xmlns="http://www.w3.org/2000/svg">
<g clip-path="url(#clip0_434_15645)">
<path d="M0 12.7244V29.4997C7.01474 29.4997 12.7226 35.2074 12.7226 42.2197C12.7226 49.2364 7.01474 54.9441 0 54.9441V71.7194C7.01474 71.7194 12.7226 77.4271 12.7226 84.4395C12.7226 91.4562 7.01474 97.1639 0 97.1639V113.939C7.01474 113.939 12.7226 119.647 12.7226 126.668C12.7226 133.689 7.01474 139.397 0 139.397V156.172C7.01474 156.172 12.7226 161.875 12.7226 168.892C12.7226 175.909 7.01474 181.616 0 181.616V198.392C7.01474 198.392 12.7226 204.095 12.7226 211.112C12.7226 218.128 7.01474 223.836 0 223.836V240.611C7.01474 240.611 12.7226 246.315 12.7226 253.331C12.7226 260.348 7.01474 266.056 0 266.056V282.831C7.01474 282.831 12.7226 288.535 12.7226 295.551C12.7226 302.568 7.01474 308.276 0 308.276V325.051C7.01474 325.051 12.7226 330.754 12.7226 337.771C12.7226 344.788 7.01474 350.495 0 350.495V367.279C3.34863 367.279 6.62769 368.634 8.99783 371.004C11.3636 373.37 12.7226 376.649 12.7226 379.999H29.4984C29.4984 372.983 35.2063 367.279 42.2211 367.279C49.2358 367.279 54.9437 372.983 54.9437 379.999H71.7196C71.7196 372.983 77.4275 367.279 84.4422 367.279C91.4569 367.279 97.1648 372.983 97.1648 379.999H113.941C113.941 372.983 119.649 367.279 126.663 367.279C133.678 367.279 139.386 372.983 139.386 379.999H156.162C156.162 372.983 161.87 367.279 168.884 367.279C175.899 367.279 181.607 372.983 181.607 379.999H198.383C198.383 372.983 204.091 367.279 211.105 367.279C218.12 367.279 223.828 372.983 223.828 379.999H240.604C240.604 372.983 246.312 367.279 253.327 367.279C260.341 367.279 266.049 372.983 266.049 379.999H282.825C282.825 372.983 288.533 367.279 295.548 367.279C302.562 367.279 308.27 372.983 308.27 379.999H325.046C325.046 372.983 330.754 367.279 337.769 367.279C344.784 367.279 350.491 372.983 350.491 379.999H367.276C367.276 376.649 368.635 373.37 371.005 371.004C373.371 368.634 376.65 367.279 380.001 367.279V350.504C372.984 350.504 367.276 344.796 367.276 337.78C367.276 330.763 372.984 325.06 380.001 325.06V308.284C372.984 308.284 367.276 302.577 367.276 295.56C367.276 288.543 372.984 282.84 380.001 282.84V266.065C372.984 266.065 367.276 260.357 367.276 253.34C367.276 246.323 372.984 240.62 380.001 240.62V223.845C372.984 223.845 367.276 218.137 367.276 211.12C367.276 204.104 372.984 198.4 380.001 198.4V181.625C372.984 181.625 367.276 175.917 367.276 168.901C367.276 161.884 372.984 156.181 380.001 156.181V139.405C372.984 139.405 367.276 133.698 367.276 126.677C367.276 119.656 372.984 113.948 380.001 113.948V97.1726C372.984 97.1726 367.276 91.4649 367.276 84.4482C367.276 77.4358 372.984 71.7281 380.001 71.7281V54.9529C372.984 54.9529 367.276 49.2451 367.276 42.2284C367.276 35.2161 372.984 29.5084 380.001 29.5084V12.7244C376.65 12.7244 373.371 11.3654 371.005 8.99971C368.635 6.62965 367.276 3.3507 367.276 0H350.5C350.5 7.01669 344.792 12.7244 337.777 12.7244C330.763 12.7244 325.055 7.01669 325.055 0H308.279C308.279 7.01669 302.571 12.7244 295.556 12.7244C288.542 12.7244 282.834 7.01669 282.834 0H266.058C266.058 7.01669 260.35 12.7244 253.335 12.7244C246.321 12.7244 240.613 7.01669 240.613 0H223.837C223.837 7.01669 218.129 12.7244 211.114 12.7244C204.099 12.7244 198.392 7.01669 198.392 0H181.616C181.616 7.01669 175.908 12.7244 168.893 12.7244C161.878 12.7244 156.17 7.01669 156.17 0H139.395C139.395 7.01669 133.687 12.7244 126.672 12.7244C119.657 12.7244 113.949 7.01669 113.949 0H97.1735C97.1735 7.01669 91.4656 12.7244 84.4509 12.7244C77.4361 12.7244 71.7282 7.01669 71.7282 0H54.9524C54.9524 7.01669 49.2445 12.7244 42.2298 12.7244C35.215 12.7244 29.5071 7.01669 29.5071 0H12.7226C12.7226 3.3507 11.3636 6.62965 8.99783 8.99971C6.62769 11.3654 3.34863 12.7244 0 12.7244Z" fill="url(#paint0_linear_434_15645)"/>
<path d="M323.713 152.049H134.091L143.987 105.75H259.558L270.161 55.918H104.047L51.7383 302.609H101.927L124.895 194.812H245.274L140.673 298.367L159.051 330.88C167.532 325.227 181.315 324.518 190.859 324.518C207.826 324.518 224.437 330.176 241.75 330.176C257.625 330.176 273.877 329.114 300.388 316.39L309.651 272.92C291.623 280.339 264.949 287.41 241.75 287.41C232.212 287.41 223.376 285.29 214.186 283.877L315.583 185.273L323.713 152.049Z" fill="white"/>
</g>
<defs>
<linearGradient id="paint0_linear_434_15645" x1="189.992" y1="46.1442" x2="189.992" y2="339.697" gradientUnits="userSpaceOnUse">
<stop stop-color="#BF0000"/>
<stop offset="1" stop-color="#8F0000"/>
</linearGradient>
<clipPath id="clip0_434_15645">
<rect width="380.001" height="379.999" fill="white"/>
</clipPath>
</defs>
</svg>
