<svg width="100" height="100" viewBox="0 0 100 100" fill="none" xmlns="http://www.w3.org/2000/svg">
<path d="M34.3283 99C35.8739 98.338 36.9565 96.8084 36.9565 95.0279V83.3453C36.9565 82.9192 36.9913 82.4757 37.0457 82.0257C37.0152 82.0343 36.987 82.0408 36.9565 82.0473C36.9565 82.0473 30.4348 82.0473 29.1304 82.0473C25.8696 82.0473 23.0435 80.7492 21.7391 78.1531C20.2174 75.3406 19.5652 70.5811 15.6522 67.9849C15 67.5522 15.4348 66.9032 16.7391 66.9032C18.0435 67.1196 20.8696 68.8503 22.6087 71.2301C24.5652 73.6099 26.5217 75.557 30 75.557C35.4065 75.557 38.3043 75.2865 40.0478 74.3563C42.0783 71.3512 44.8891 69.0666 47.8261 69.0666V69.0126C35.5043 68.6188 27.6326 64.5429 23.9674 58.2494C16 58.3403 9.06304 59.1256 5.10435 59.779C4.97826 59.0716 4.86957 58.3598 4.77609 57.6437C8.68261 57.0033 15.3043 56.2439 22.9174 56.099C22.6739 55.5019 22.463 54.8896 22.2848 54.2622C14.6522 53.8771 8.06522 54.1779 4.48696 54.4721C4.44348 53.7538 4.38478 53.0377 4.37609 52.3108C7.96087 52.0187 14.3696 51.7267 21.8065 52.0707C21.6348 50.9889 21.5239 49.8834 21.5239 48.7325C21.5239 45.0546 22.8283 41.1604 25.2196 37.9153C24.1326 34.2374 22.6109 26.449 25.6543 23.6366C31.5239 23.6366 35.6543 26.449 37.6109 28.1798C41.3043 26.6632 45.4348 25.7978 50 25.7978C54.5652 25.7978 58.6957 26.6632 62.1739 28.1776C64.1304 26.4469 68.2609 23.6344 74.1304 23.6344C77.3913 26.6632 75.6522 34.4516 74.5652 37.9131C76.9565 41.1583 78.2609 44.8361 78.0435 48.7303C78.0435 49.7774 77.9457 50.7877 77.8043 51.7786C85.4109 51.4065 91.9935 51.705 95.6391 51.9993C95.6348 52.7283 95.5674 53.4401 95.5283 54.1605C91.8957 53.862 85.1478 53.5548 77.3565 53.968C77.163 54.6949 76.9283 55.4024 76.65 56.0882C84.3587 56.1877 91.1391 56.9297 95.2326 57.5788C95.1391 58.297 95.0304 59.0088 94.9043 59.7141C90.7478 59.0521 83.663 58.2776 75.6022 58.2386C71.9826 64.465 64.2543 68.5258 52.1739 68.9996V69.0666C57.8261 69.0666 63.0435 77.5041 63.0435 83.3453V95.0279C63.0435 96.8084 64.1261 98.338 65.6717 99C85.587 92.4405 100 73.7483 100 51.7591C100 24.3224 77.5717 2 50 2C22.4283 2 0 24.3224 0 51.7591C0 73.7483 14.413 92.4405 34.3283 99Z" fill="black"/>
</svg>
