<svg width="100" height="100" viewBox="0 0 100 100" fill="none" xmlns="http://www.w3.org/2000/svg">
<path d="M26.9375 10H30.5312V13.5625H33.8438V10H37.4375V20.7812H33.8438V17.1875H30.5625V20.7812H26.9375M42.1875 13.5938H39.0156V10H48.9688V13.5938H45.7812V20.7812H42.1875M50.5469 10H54.3125L56.625 13.7969L58.9375 10H62.7031V20.7812H59.1094V15.4375L56.5938 19.3125L54.0781 15.4375V20.7812H50.5469M64.4844 10H68.0781V17.2188H73.1719V20.7812H64.4844" fill="black"/>
<path d="M26.8125 83.5937L21.6562 25.7188H78.3437L73.1875 83.5625L49.9531 90" fill="#E44D26"/>
<path d="M50 85.0781V30.4688H73.1719L68.75 79.8438" fill="#F16529"/>
<path d="M32.1875 37.5469H50V44.6406H39.9688L40.625 51.9063H50V58.9844H34.125M34.4375 62.5469H41.5625L42.0625 68.2188L50 70.3438V77.75L35.4375 73.6875" fill="#EBEBEB"/>
<path d="M67.75 37.5469H49.9688V44.6406H67.0937M66.4531 51.9063H49.9688V59H58.7187L57.8906 68.2188L49.9688 70.3438V77.7187L64.5 73.6875" fill="white"/>
</svg>
