<svg width="105" height="105" viewBox="0 0 105 105" fill="none" xmlns="http://www.w3.org/2000/svg">
<g clip-path="url(#clip0_137_8548)">
<path d="M85.8994 0H18.7722C8.40316 0 0 8.4048 0 18.7722V85.8994C0 96.2684 8.4048 104.672 18.7722 104.672H85.8994C96.2684 104.672 104.672 96.2668 104.672 85.8994V18.7722C104.672 8.40316 96.2668 0 85.8994 0Z" fill="#330000"/>
<path d="M35.4283 27.7836H50.8395L68.1234 76.0339H54.0091L51.6294 68.6906H33.5556L31.1792 76.0356H17.6406L35.4283 27.7836ZM47.8858 57.2388L42.6293 41.0344L37.3729 57.2388H47.8858ZM70.1907 30.9532C70.1907 27.4958 72.8565 25.2633 76.888 25.2633C80.8492 25.2633 83.3695 27.5694 83.3695 30.9532C83.3695 34.409 80.8492 36.7854 76.888 36.7854C72.711 36.7854 70.1907 34.4809 70.1907 30.9532ZM70.5505 38.4437H83.1536V76.0339H70.5505V38.4437Z" fill="#FF9A00"/>
</g>
<defs>
<clipPath id="clip0_137_8548">
<rect width="104.672" height="104.672" fill="white"/>
</clipPath>
</defs>
</svg>
