<svg width="105" height="105" viewBox="0 0 105 105" fill="none" xmlns="http://www.w3.org/2000/svg">
<rect width="104.67" height="104.67" rx="14" fill="white"/>
<rect x="0.25" y="0.25" width="104.17" height="104.17" rx="13.75" stroke="black" stroke-opacity="0.7" stroke-width="0.5"/>
<g clip-path="url(#clip0_22_2230)">
<path d="M42.6117 60.7378C42.6117 60.9264 42.5934 61.118 42.5691 61.3218L43.3265 59.9469L43.2444 59.4998L44.0018 59.3842L44.2786 61.2853L44.6284 60.0929C44.6542 59.9934 44.6694 59.8915 44.674 59.7887C44.6772 59.6861 44.6649 59.5836 44.6375 59.4846L45.4344 59.3355C45.5254 59.7279 45.4737 60.1398 45.2884 60.4975L44.6497 62.2191H43.7006L43.4999 60.9324L42.7577 62.2191H41.8452C41.8835 61.3056 41.853 60.3905 41.7539 59.4815L42.5448 59.3599C42.6087 59.8162 42.6311 60.2774 42.6117 60.7378ZM47.5484 60.0747C47.1804 60.2724 47.0466 60.3484 46.712 60.5522L46.3591 62.2221H45.5378L46.1158 59.4602L46.8428 59.3386L46.8123 59.7218C47.0533 59.5762 47.3043 59.4481 47.5637 59.3386L47.5484 60.0747ZM48.023 59.4542L48.8716 59.3386L48.2633 62.2221H47.442L48.023 59.4542ZM48.2876 58.204L49.1362 58.0854L48.9476 58.9583L48.1081 59.077L48.2876 58.204ZM50.3925 60.0473L50.0883 61.4617L50.0731 61.5347C50.0731 61.5773 50.0944 61.5955 50.1522 61.5955C50.307 61.5826 50.4584 61.5424 50.5993 61.4769L50.7423 62.0488C50.4606 62.1966 50.1479 62.2758 49.8298 62.2799C49.4161 62.2799 49.2032 62.0822 49.2214 61.7446C49.2235 61.7037 49.2286 61.663 49.2366 61.6229L49.5712 60.0473H49.1514L49.2914 59.3903H49.7111L49.851 58.7089L50.6997 58.6085L50.5324 59.4055H51.2077L51.0221 60.0625L50.3925 60.0473ZM51.3689 60.4001C51.5088 59.7492 51.816 59.3325 52.7103 59.3325C53.2456 59.3325 53.6441 59.5637 53.6228 60.0412C53.6015 60.5948 53.3186 60.8503 52.6038 61.0602C52.2571 61.1636 52.251 61.1636 51.9955 61.2275L51.9529 61.4252C51.9316 61.5317 51.9529 61.6229 52.0928 61.6229C52.4809 61.588 52.8598 61.4851 53.2122 61.3187L53.3491 61.8997C52.931 62.1398 52.4592 62.2706 51.9772 62.2799C51.3902 62.2799 51.1468 62.0244 51.1651 61.5408C51.1697 61.4251 51.1849 61.31 51.2107 61.1971L51.3689 60.4001ZM52.8624 60.1294C52.8624 60.029 52.7802 59.9652 52.6312 59.9652C52.327 59.9652 52.2388 60.1355 52.1901 60.3667L52.1506 60.5644C52.2905 60.5309 52.3544 60.5188 52.5247 60.4671C52.7498 60.4001 52.8563 60.2967 52.8624 60.1294ZM55.7429 58.2314L56.5916 58.1158L55.7247 62.2221H54.9064L55.7429 58.2314ZM56.698 60.4001C56.8349 59.7492 57.1421 59.3325 58.0364 59.3325C58.5717 59.3325 58.9702 59.5637 58.9489 60.0412C58.9276 60.5948 58.6447 60.8503 57.9299 61.0602C57.5832 61.1636 57.5771 61.1636 57.3216 61.2275L57.279 61.4252C57.2577 61.5317 57.279 61.6229 57.4189 61.6229C57.8079 61.5878 58.1878 61.4849 58.5413 61.3187L58.6751 61.8997C58.2508 62.147 57.77 62.2811 57.279 62.2891C56.6919 62.2891 56.4516 62.0336 56.4668 61.5499C56.4725 61.4341 56.4888 61.319 56.5155 61.2062L56.698 60.4001ZM58.1885 60.1294C58.1885 60.029 58.1063 59.9652 57.9573 59.9652C57.6531 59.9652 57.568 60.1355 57.5193 60.3667L57.4767 60.5644C57.6166 60.5309 57.6805 60.5188 57.8508 60.4671C58.0759 60.4001 58.1824 60.2967 58.1885 60.1294ZM59.0219 62.0944L59.2014 61.486C59.4439 61.5802 59.7016 61.6297 59.9618 61.632C60.2356 61.632 60.266 61.5499 60.2842 61.4161C60.3025 61.2822 60.2325 61.2184 59.9192 61.0511C59.3352 60.7469 59.3109 60.5279 59.4113 60.102C59.542 59.4937 59.7154 59.3294 60.5154 59.3294C60.7992 59.3339 61.0809 59.379 61.3519 59.4633L61.1968 60.0716C60.9669 60.0134 60.7312 59.9818 60.4941 59.9773C60.2508 59.9773 60.2143 60.0047 60.1899 60.1568C60.1656 60.3089 60.1899 60.321 60.4576 60.461C61.0964 60.8077 61.1907 60.9294 61.0933 61.3735C60.9565 62.0123 60.7618 62.2678 59.9101 62.2678C59.6057 62.2665 59.3044 62.2077 59.0219 62.0944ZM61.3701 62.0944L61.5496 61.486C61.794 61.5872 62.0548 61.6429 62.3192 61.6503C62.5929 61.6503 62.6233 61.5682 62.6385 61.4343C62.6538 61.3005 62.5868 61.2366 62.2735 61.0693C61.6926 60.7651 61.6652 60.5461 61.7656 60.1203C61.8994 59.5119 62.0849 59.3477 62.8697 59.3477C63.1545 59.3521 63.4372 59.3972 63.7092 59.4815L63.5541 60.0899C63.3216 60.0281 63.0828 59.9934 62.8423 59.9865C62.596 59.9865 62.5595 60.0138 62.5382 60.1659C62.5169 60.318 62.5382 60.3302 62.8058 60.4701C63.4476 60.8169 63.5419 60.9385 63.4446 61.3826C63.3047 62.0214 63.11 62.2769 62.2614 62.2769C61.9555 62.2726 61.6531 62.2107 61.3701 62.0944ZM63.618 62.867L64.0895 62.2343H63.7853L63.9891 61.2701H64.8073L64.5853 62.3043L63.913 63.1073L63.618 62.867ZM68.0985 62.2221V61.9788C67.8389 62.1832 67.5162 62.2908 67.1859 62.283C66.5776 62.283 66.4316 61.9119 66.5776 61.2762L66.7358 60.5157C66.8757 59.8405 67.0704 59.3355 68.2566 59.3355C68.3718 59.3351 68.4867 59.3442 68.6004 59.3629L68.8376 58.2344L69.6771 58.1188L68.8133 62.2252L68.0985 62.2221ZM67.3472 61.3735C67.3137 61.5256 67.3472 61.5955 67.4962 61.5955C67.7495 61.5815 67.9883 61.473 68.1654 61.2914L68.43 60.029C68.3296 60.0118 68.2278 60.0037 68.1258 60.0047C67.7 60.0047 67.6057 60.2328 67.5449 60.5066L67.3472 61.3735ZM69.5555 61.3461C69.5591 61.2797 69.5672 61.2137 69.5798 61.1484L69.7197 60.4914C69.8718 59.7644 70.2429 59.3477 71.2406 59.3477C72.0041 59.3477 72.3295 59.7827 72.3113 60.2876C72.3103 60.3562 72.3022 60.4245 72.287 60.4914L72.1501 61.1484C72.0041 61.8298 71.6604 62.2951 70.6292 62.2951C69.9022 62.2799 69.5372 61.851 69.5555 61.3461ZM71.4809 60.3515C71.4809 60.1446 71.3653 60.0473 71.0976 60.0473C70.9671 60.0351 70.8369 60.0739 70.7343 60.1556C70.6316 60.2372 70.5646 60.3553 70.5471 60.4853L70.4011 61.1879C70.397 61.2264 70.397 61.2651 70.4011 61.3035C70.4011 61.5073 70.5167 61.626 70.7843 61.626C70.9149 61.6381 71.0451 61.5993 71.1477 61.5177C71.2503 61.4361 71.3174 61.3179 71.3349 61.1879L71.4809 60.4853C71.485 60.4357 71.485 60.3859 71.4809 60.3363V60.3515ZM77.3089 60.2967C77.3176 60.2681 77.3227 60.2384 77.3241 60.2085C77.3241 60.1507 77.2967 60.1294 77.2176 60.1294C76.9551 60.1784 76.7024 60.2698 76.4694 60.4001L76.0861 62.2252H75.2709L75.6755 60.2998C75.6827 60.2708 75.6878 60.2413 75.6907 60.2115C75.6907 60.1538 75.6633 60.1325 75.5812 60.1325C75.3207 60.1803 75.07 60.2707 74.839 60.4001L74.4557 62.2252H73.6375L74.2154 59.4633L74.9424 59.3416L74.9241 59.6458C75.274 59.4643 75.659 59.3606 76.0526 59.3416C76.1592 59.3275 76.2672 59.3537 76.3555 59.415C76.4439 59.4763 76.5061 59.5684 76.5302 59.6732C76.8791 59.4617 77.2781 59.3472 77.6861 59.3416C78.0663 59.3416 78.1971 59.5545 78.1849 59.9165C78.1815 60.0261 78.1673 60.1352 78.1423 60.242L77.7256 62.2313H76.9195L77.3089 60.2967ZM78.4587 61.3461C78.4623 61.2797 78.4704 61.2137 78.483 61.1484L78.6229 60.4914C78.775 59.7644 79.1461 59.3477 80.1438 59.3477C80.9042 59.3477 81.2327 59.7827 81.2145 60.2876C81.2135 60.3562 81.2054 60.4245 81.1901 60.4914L81.0533 61.1484C80.9073 61.8298 80.5635 62.2951 79.5324 62.2951C78.8054 62.2799 78.4404 61.851 78.4587 61.3461ZM80.3841 60.3515C80.3841 60.1446 80.2685 60.0473 80.0008 60.0473C79.8703 60.0351 79.7401 60.0739 79.6374 60.1556C79.5348 60.2372 79.4678 60.3553 79.4503 60.4853L79.3043 61.1879C79.2957 61.226 79.2896 61.2647 79.286 61.3035C79.286 61.5073 79.4046 61.626 79.6723 61.626C79.8029 61.6381 79.9331 61.5993 80.0357 61.5177C80.1383 61.4361 80.2054 61.3179 80.2229 61.1879L80.3689 60.4853C80.378 60.4361 80.3831 60.3863 80.3841 60.3363V60.3515ZM83.3832 60.0747C83.0152 60.2724 82.8783 60.3484 82.5468 60.5522L82.1909 62.2221H81.3726L81.9506 59.4602L82.6745 59.3386L82.6441 59.7218C82.8854 59.5768 83.1364 59.4488 83.3954 59.3386L83.3832 60.0747ZM83.5688 60.4001C83.7087 59.7492 84.0129 59.3325 84.9102 59.3325C85.4425 59.3325 85.844 59.5637 85.8227 60.0412C85.8045 60.5948 85.5185 60.8503 84.8037 61.0602C84.457 61.1636 84.4509 61.1636 84.1954 61.2275L84.1558 61.4252C84.1345 61.5317 84.1406 61.6229 84.2927 61.6229C84.6819 61.5884 85.0618 61.4855 85.4151 61.3187L85.552 61.8997C85.1268 62.1475 84.6449 62.2816 84.1528 62.2891C83.5657 62.2891 83.3254 62.0336 83.3437 61.5499C83.3483 61.4342 83.3636 61.3191 83.3893 61.2062L83.5688 60.4001ZM85.0623 60.1294C85.0623 60.029 84.9802 59.9652 84.8281 59.9652C84.5239 59.9652 84.4387 60.1355 84.3901 60.3667L84.3475 60.5644C84.4904 60.5309 84.5543 60.5188 84.7246 60.4671C84.9467 60.4001 85.0562 60.2967 85.0623 60.1294ZM86.1604 61.2579H86.9816L86.7778 62.2221H85.9596L86.1604 61.2579ZM10.9958 45.6629C9.60876 47.6552 9.7791 50.2468 10.8407 52.3547C10.865 52.4064 10.8924 52.4581 10.9198 52.5068C10.9335 52.5404 10.9498 52.573 10.9684 52.6041L10.9988 52.6559L11.0536 52.7562L11.154 52.9296L11.2148 53.0239C11.2513 53.0847 11.2908 53.1456 11.3304 53.2064L11.3821 53.2855C11.4338 53.3676 11.4886 53.4497 11.5494 53.5288L11.5768 53.5684L11.7319 53.7752L11.7897 53.8482L11.9327 54.0246L11.9874 54.0916C12.0513 54.1676 12.1182 54.2436 12.1882 54.3166L12.3889 54.5296L12.4558 54.5934C12.5075 54.6482 12.5593 54.6999 12.617 54.7516L12.684 54.8155C12.757 54.8855 12.8269 54.9524 12.903 55.0162L12.9395 55.0497L13.1402 55.22L13.2224 55.287L13.3927 55.4178L13.4839 55.4847L13.6695 55.6216L13.7395 55.6702H13.7577L13.9402 55.7919L14.0193 55.8436L14.3052 56.02L14.3843 56.0656C14.4573 56.1052 14.5273 56.1478 14.6003 56.1843L14.7189 56.2482L14.874 56.3272H14.9075L14.9714 56.3577L15.2177 56.4732L15.2664 56.4945C15.3607 56.5371 15.455 56.5736 15.5523 56.6132L15.6193 56.6405L15.89 56.7409H15.9204L16.2246 56.8383L16.2976 56.8595C16.3973 56.8935 16.4989 56.9219 16.6017 56.9447C23.2936 58.1614 25.2525 52.9174 25.2525 52.9174C23.616 55.0467 20.7111 55.6094 17.9523 54.9858C17.8519 54.9615 17.7515 54.928 17.6481 54.8976L17.6055 54.9585L17.3013 54.8611H17.2588L16.9972 54.7394L16.9242 54.709C16.8268 54.6725 16.7356 54.633 16.6413 54.5934L16.5865 54.5691L16.3493 54.4566L16.2793 54.4231L16.0968 54.3319L15.9751 54.268L15.7531 54.1463C15.7305 54.1292 15.706 54.1149 15.6801 54.1037L15.3942 53.9273L15.3151 53.8756L15.1234 53.7418L15.0565 53.6961L14.8679 53.5532L14.7828 53.4893L14.6094 53.3555L14.5333 53.2916C14.4573 53.2307 14.3873 53.1729 14.3174 53.1091L14.29 53.0908L14.0649 52.8809L14.001 52.8201L13.8368 52.6619L13.7729 52.595C13.703 52.5281 13.636 52.4551 13.5722 52.3821L13.3471 52.1418L13.2923 52.0779L13.1463 51.8985L13.0916 51.8285C13.0338 51.7555 12.979 51.6795 12.9243 51.6034C11.4034 49.5229 10.8468 46.6484 12.0665 44.3032" fill="#0060A9"/>
<path d="M15.298 43.9839C14.2911 45.4287 14.3489 47.3541 15.1307 48.875C15.26 49.1315 15.4074 49.3785 15.5717 49.6141C15.7158 49.8514 15.8873 50.0709 16.0827 50.2681C16.1527 50.3472 16.2287 50.4232 16.3078 50.5023C16.3261 50.5206 16.3474 50.5388 16.3656 50.5601L16.5968 50.773C16.6819 50.8491 16.7702 50.9251 16.8644 50.9951L16.9253 51.0438L17.2051 51.2506C17.2447 51.281 17.2903 51.3084 17.3329 51.3358L17.3937 51.3753C17.4606 51.4209 17.5306 51.4635 17.6006 51.5031H17.631C17.6888 51.5396 17.7526 51.5761 17.8135 51.6065L17.8804 51.643L18.0081 51.7099H18.0294L18.2941 51.8346L18.3549 51.8589L18.5739 51.9472L18.6682 51.9806L18.872 52.0506L18.9633 52.081C19.0626 52.1163 19.1642 52.1448 19.2674 52.1662C24.4384 53.0239 25.6368 49.0392 25.6368 49.0392C24.5601 50.5905 22.4734 51.3297 20.2499 50.7517C20.1495 50.7274 20.0522 50.697 19.9457 50.6666L19.8606 50.6392L19.6537 50.5692L19.5594 50.5327L19.3404 50.4445L19.2826 50.4202L19.0119 50.2955L18.875 50.2255L18.8203 50.2225C18.7595 50.1921 18.7047 50.1586 18.6469 50.1251L18.6104 50.0917C18.5405 50.0491 18.4674 50.0065 18.4036 49.9639L18.3397 49.9214L18.2119 49.8453L17.9351 49.6415L17.8713 49.5898C16.873 48.8247 16.1305 47.7747 15.742 46.5785C15.5401 45.9618 15.4688 45.3099 15.5327 44.6642C15.5965 44.0184 15.7942 43.3931 16.1131 42.828" fill="#0060A9"/>
<path d="M18.9171 42.7307C18.6333 43.1556 18.4624 43.6458 18.4204 44.1551C18.3783 44.6643 18.4666 45.1759 18.6768 45.6416C18.9001 46.1475 19.2235 46.6029 19.6276 46.9803C20.0318 47.3578 20.5081 47.6494 21.028 47.8378L21.1558 47.8834L21.2136 47.9016C21.2744 47.9199 21.3353 47.9442 21.3961 47.9564C24.2553 48.5069 25.0279 46.4872 25.2378 46.1922C24.5565 47.1686 23.4128 47.4089 22.0166 47.0651C21.9023 47.0356 21.7896 47.0001 21.679 46.9587C21.5413 46.91 21.4063 46.8542 21.2744 46.7914C21.0263 46.6726 20.7909 46.5289 20.5718 46.3625C19.3186 45.4104 18.5399 43.5976 19.3551 42.1223" fill="#0060A9"/>
<path d="M85.1321 46.8066L85.2447 47.2781C85.2542 47.3074 85.2563 47.3386 85.251 47.3689C85.2457 47.3992 85.233 47.4278 85.2141 47.4521C85.1952 47.4764 85.1707 47.4957 85.1426 47.5083C85.1145 47.5209 85.0837 47.5265 85.053 47.5245M76.1164 45.9915C76.089 46.1223 76.0525 46.2956 76.0312 46.399L75.0426 51.0255L76.0829 46.1588L76.1164 45.9915ZM46.4898 49.088L45.9453 51.0225L46.4898 49.091V49.088Z" fill="#353332"/>
<path d="M85.2402 47.2781L84.9574 46.0614C84.7323 45.1884 84.0935 44.7778 82.6639 44.7778H76.6412C76.5754 44.7699 76.5089 44.7853 76.4533 44.8215C76.3977 44.8576 76.3565 44.9121 76.3371 44.9755L74.0527 55.8071C74.0231 55.9057 74.0159 56.0096 74.0314 56.1113C74.0466 56.1813 74.3143 56.1661 74.4512 56.1661H76.5378C76.6931 56.1767 76.8492 56.1706 77.0032 56.1478C77.0792 56.1174 77.1157 55.9106 77.1431 55.7737L77.8792 51.9745L78.7917 47.7617C78.8097 47.6937 78.8489 47.6332 78.9036 47.5889C78.9583 47.5446 79.0256 47.5188 79.0959 47.5154H85.0608C85.0915 47.5174 85.1222 47.5118 85.1503 47.4992C85.1784 47.4866 85.203 47.4672 85.2219 47.4429C85.2408 47.4186 85.2534 47.3901 85.2588 47.3598C85.2641 47.3294 85.2619 47.2983 85.2524 47.269" fill="#353332"/>
<path d="M93.7284 42.8858H91.082C91.0023 42.9015 90.9265 42.933 90.8591 42.9784C90.7917 43.0239 90.7341 43.0824 90.6897 43.1505L86.0449 49.9822C85.9658 50.0948 85.8776 50.0917 85.8472 49.9579L85.5035 48.4583C85.4855 48.3903 85.4463 48.3297 85.3916 48.2854C85.337 48.2411 85.2696 48.2154 85.1993 48.2119H82.2154C82.1848 48.2105 82.1544 48.2167 82.1268 48.23C82.0992 48.2432 82.0753 48.263 82.0573 48.2877C82.0392 48.3124 82.0275 48.3412 82.0233 48.3715C82.019 48.4018 82.0223 48.4326 82.0329 48.4613L83.3712 53.1517C83.4062 53.312 83.4062 53.4781 83.3712 53.6384L82.7477 56.014C82.7142 56.1478 82.7994 56.1904 82.9423 56.1904H85.8867C86.0267 56.1904 86.1696 56.1478 86.1909 56.014L86.7993 53.6049C86.846 53.4512 86.918 53.3062 87.0122 53.176L94.5892 43.1383C94.6743 43.0288 94.6622 42.8949 94.5253 42.8949L93.7284 42.8858ZM62.66 44.7991H59.968C59.8312 44.7991 59.6882 44.8477 59.6639 44.9846L58.7726 49.1488L57.8845 53.1335C57.8571 53.2673 57.7202 53.2582 57.5803 53.2582H55.81C54.061 53.2582 54.2617 52.151 54.6207 50.4932L55.7461 44.9816C55.7704 44.8447 55.6792 44.796 55.5423 44.796H52.9751C52.8382 44.796 52.7013 44.8447 52.6709 44.9816L51.6367 50.4902C51.1227 53.4681 51.1074 56.09 54.5629 56.1782H60.0167C60.1566 56.1782 60.2935 56.1326 60.3209 55.9957L61.492 50.4719L62.6661 44.9207C62.6661 44.9207 62.7056 44.7991 62.66 44.7991ZM35.8379 44.79H32.9513C32.8114 44.79 32.6714 44.8234 32.6471 44.9572L32.127 47.2142C32.119 47.2435 32.1183 47.2742 32.1247 47.3038C32.1312 47.3334 32.1447 47.361 32.1641 47.3843C32.1835 47.4076 32.2082 47.4258 32.2362 47.4375C32.2641 47.4492 32.2945 47.454 32.3247 47.4515H35.0896C35.1609 47.4454 35.2286 47.4172 35.2831 47.3709C35.3376 47.3245 35.3763 47.2623 35.3938 47.1929L35.8926 44.9207C35.8926 44.9207 35.9322 44.79 35.8379 44.79ZM32.13 48.2119C32.0597 48.2154 31.9924 48.2411 31.9377 48.2854C31.883 48.3297 31.8438 48.3903 31.8258 48.4583L31.4365 50.1769L30.5665 54.1494C30.5665 54.1494 30.1042 56.2604 30.0586 56.3912C30.0586 56.3912 29.6692 57.912 28.7415 57.8542C28.4351 57.829 28.1305 57.7864 27.829 57.7265C27.5674 57.6474 27.5491 57.9181 27.5248 58.052L26.9499 60.5279C26.9408 60.5581 26.939 60.59 26.9445 60.621C26.9501 60.652 26.9628 60.6813 26.9818 60.7065C27.0007 60.7317 27.0254 60.752 27.0536 60.7659C27.0819 60.7798 27.1131 60.7869 27.1446 60.7865C27.8505 60.884 28.5614 60.9419 29.2738 60.9599H29.4168C31.5855 60.9599 32.7323 59.6854 33.4653 56.2239L34.2927 52.2209L35.0957 48.4887C35.1052 48.4588 35.1076 48.4272 35.1026 48.3962C35.0977 48.3653 35.0856 48.3359 35.0672 48.3105C35.0489 48.285 35.0249 48.2643 34.9971 48.2498C34.9693 48.2353 34.9385 48.2275 34.9071 48.2271M69.4735 44.7717C64.6067 44.7717 63.4569 47.7739 62.8121 50.7487C62.1672 53.7844 62.225 56.1752 67.25 56.1752H71.8461C71.9178 56.1689 71.9857 56.1403 72.0403 56.0934C72.0948 56.0465 72.1333 55.9836 72.1502 55.9136L72.643 53.9882C72.6704 53.8513 72.5791 53.8118 72.4422 53.8118H67.9192C66.2827 53.8118 65.6956 53.3068 65.7534 52.1753C65.7534 52.0476 65.8994 51.719 66.0394 51.719H72.9989C73.3031 51.719 73.3031 51.5396 73.3031 51.5396C74.0118 48.3397 74.0574 44.7656 69.4613 44.7656M70.7419 49.532C70.7419 49.6841 70.2674 49.6537 70.2674 49.6537L66.4804 49.6263C66.3496 49.6263 66.3131 49.4438 66.304 49.3222C66.3067 49.2569 66.3138 49.1918 66.3253 49.1275C66.6295 48.1115 67.4903 47.5306 68.8743 47.5306C70.4316 47.5306 70.7632 48.3032 70.7632 49.1609M48.4855 53.0513C48.4855 53.0513 49.8482 49.745 50.1523 47.8378C50.5751 45.2797 49.2976 41.5748 44.3548 41.5748C39.4119 41.5748 37.307 45.1124 36.4919 48.9602C35.6767 52.808 36.7443 56.2087 41.6355 56.1752H49.0938C49.1629 56.1694 49.2287 56.1431 49.2829 56.0998C49.3371 56.0565 49.3771 55.998 49.398 55.9319L50.0276 53.538C50.0364 53.5088 50.038 53.4778 50.0324 53.4478C50.0268 53.4178 50.014 53.3895 49.9953 53.3654C49.9765 53.3413 49.9523 53.3221 49.9246 53.3092C49.8969 53.2964 49.8665 53.2903 49.836 53.2916H48.6315C48.6075 53.295 48.5831 53.2925 48.5602 53.2846C48.5374 53.2766 48.5168 53.2633 48.5001 53.2457C48.4835 53.2282 48.4713 53.2069 48.4645 53.1837C48.4577 53.1604 48.4565 53.1359 48.4611 53.1122C48.4584 53.094 48.4584 53.0756 48.4611 53.0574M45.8939 51.0286L45.3342 52.9418C45.3078 53.0088 45.2616 53.0661 45.2019 53.1063C45.1421 53.1465 45.0716 53.1676 44.9996 53.1669H42.113C39.9199 53.1669 39.3754 51.4727 39.9199 48.945C40.4553 46.3625 41.5168 44.7656 43.6704 44.6044C46.6178 44.3824 47.2201 46.4629 46.5053 48.8628L45.8939 51.0286Z" fill="#353332"/>
</g>
<defs>
<clipPath id="clip0_22_2230">
<rect width="84.67" height="21.5203" fill="white" transform="translate(10 41.5748)"/>
</clipPath>
</defs>
</svg>
