<svg width="100" height="100" viewBox="0 0 100 100" fill="none" xmlns="http://www.w3.org/2000/svg">
<g clip-path="url(#clip0_410_19068)">
<path d="M22.1914 25.6328L22.2004 26.3477C22.2053 26.7409 23.3483 39.7598 24.7404 55.2784L27.2714 83.4941L38.6472 86.6686C44.9039 88.4145 50.1521 89.8518 50.3099 89.8628C50.4677 89.8739 55.7853 88.451 62.1268 86.701C72.294 83.8952 73.6665 83.4726 73.7393 83.1252C73.8408 82.6414 78.8197 26.6607 78.8146 26.0618L78.8109 25.6328H50.501H22.1914Z" fill="white"/>
<path d="M38.7372 86.8583L27.2603 83.6609L27.1103 82.8149C26.977 82.0628 22 26.6599 22 25.9278C22 25.6629 24.9059 25.6328 50.5011 25.6328C77.5183 25.6328 79.0021 25.6502 79 25.9664C78.991 27.3324 73.8394 83.469 73.7128 83.5807C73.5529 83.7219 51.339 89.89 50.5967 89.9993C50.3863 90.0303 45.0495 88.6169 38.7372 86.8583ZM57.7379 75.5606C61.5955 74.5003 64.8073 73.578 64.8753 73.5112C64.9434 73.4444 65.3948 68.8857 65.8785 63.3808C66.3621 57.8759 66.8067 53.0072 66.8663 52.5616L66.9748 51.7514H58.6423H50.3098V55.2783V58.8053H54.8086H59.3074L59.2179 59.2342C59.1687 59.4702 58.9773 61.4976 58.7927 63.7396C58.5971 66.1153 58.3652 67.9076 58.2368 68.0356C58.1157 68.1563 56.2826 68.7157 54.1632 69.2787L50.3098 70.3024V73.8955C50.3098 76.3479 50.3756 77.4886 50.517 77.4886C50.631 77.4886 53.8804 76.621 57.7379 75.5606ZM66.8652 47.3188C66.7387 46.3847 65.6124 33.855 65.6124 33.3825C65.6124 33.0956 64.9502 33.068 58.0568 33.068H50.5011V36.7561V40.4442L53.8964 40.5747C55.7638 40.6464 57.729 40.7556 58.2636 40.8173L59.2356 40.9295L59.4715 43.8143C59.6013 45.401 59.7559 47.0209 59.8152 47.4142L59.9228 48.1291H63.4488H66.9748L66.8652 47.3188Z" fill="#EAEBEC"/>
<path d="M38.6472 86.6684L27.2715 83.494L24.7404 55.2783C23.3483 39.7597 22.2053 26.7409 22.2004 26.3477L22.1914 25.6328H50.5012H78.811L78.8147 26.0618C78.8198 26.6607 73.8408 82.6414 73.7394 83.1252C73.6666 83.4726 72.294 83.8952 62.1268 86.701C55.7854 88.4511 50.4678 89.8739 50.3099 89.8629C50.1521 89.8518 44.9039 88.4143 38.6472 86.6684ZM57.7467 75.6955C61.6791 74.6058 64.9523 73.6243 65.0206 73.5143C65.0888 73.4043 65.5585 68.6128 66.0645 62.8665C66.5705 57.1201 67.0259 52.2685 67.0765 52.085C67.1635 51.7698 66.4944 51.7514 54.952 51.7514H42.7354L43.2556 46.2703C43.5417 43.2557 43.7826 40.7814 43.791 40.7718C43.7994 40.7623 45.5924 40.7053 47.7754 40.6452C51.355 40.5466 58.7366 40.8312 58.9836 41.0773C59.0758 41.1693 59.6828 47.1042 59.6828 47.9143C59.6828 48.3138 59.7369 48.3197 63.3893 48.3197H67.0958L67.0085 47.5095C66.9604 47.0638 66.6464 43.6108 66.3107 39.836L65.7004 32.9727L51.4059 32.9238C40.0339 32.8849 37.1111 32.9239 37.1099 33.1145C37.1089 33.2462 37.0257 34.0832 36.9247 34.9745C36.6802 37.1312 34.8161 57.9696 34.8161 58.5452V58.9959H46.9793H59.1426L59.0341 59.7108C58.9745 60.104 58.7854 62.0987 58.614 64.1434C58.4425 66.188 58.247 67.9138 58.1796 67.9783C58.0013 68.1488 50.8459 70.0541 50.3997 70.0498C50.1925 70.0478 48.3445 69.5883 46.293 69.0286L42.563 68.011L42.4262 66.4108C42.351 65.5307 42.2365 64.2744 42.1719 63.6191L42.0543 62.4275H38.4352H34.8161L34.8241 63.1425C34.839 64.4795 35.7089 73.4852 35.8352 73.6111C35.9813 73.7567 49.8819 77.6512 50.3099 77.6664C50.4678 77.672 53.8143 76.7851 57.7467 75.6955Z" fill="#F0BE25"/>
<path d="M38.6472 86.6684L27.2715 83.494L24.7404 55.2783C23.3483 39.7597 22.2053 26.7409 22.2004 26.3477L22.1914 25.6328H50.5012H78.811L78.8147 26.0618C78.8198 26.6607 73.8408 82.6414 73.7394 83.1252C73.6666 83.4726 72.294 83.8952 62.1268 86.701C55.7854 88.4511 50.4678 89.8739 50.3099 89.8629C50.1521 89.8518 44.9039 88.4143 38.6472 86.6684ZM59.8616 82.4216C64.8657 81.0454 69.054 79.8229 69.1689 79.7049C69.3477 79.5213 73.6696 32.312 73.6522 30.7326L73.6464 30.2083H62.0738H50.5012V31.5428V32.8774H43.8063C38.5788 32.8774 37.1111 32.9296 37.1099 33.1157C37.1089 33.2467 37.0257 34.0832 36.9247 34.9745C36.6802 37.1312 34.8161 57.9696 34.8161 58.5452V58.9959H42.6586H50.5012V64.5247C50.5012 68.8225 50.448 70.0526 50.2621 70.0498C50.1306 70.0478 48.3445 69.5883 46.293 69.0286L42.563 68.011L42.4262 66.4108C42.351 65.5307 42.2365 64.2744 42.1719 63.6191L42.0543 62.4275H38.4352H34.8161L34.8241 63.1425C34.847 65.1874 35.7346 73.5345 35.9427 73.6627C36.0692 73.7406 39.3967 74.6936 43.337 75.7803L50.5012 77.7562V81.34C50.5012 83.3111 50.5602 84.9238 50.6322 84.9238C50.7042 84.9238 54.8575 83.7978 59.8616 82.4216ZM43.2354 46.3215C43.5104 43.3351 43.7729 40.8579 43.8187 40.8165C43.8645 40.7752 45.3868 40.7005 47.2016 40.6505L50.5012 40.5595V46.1554V51.7514H46.6183H42.7354L43.2354 46.3215Z" fill="#E4A126"/>
<path d="M40.1719 18.8651V17.0539H42.7542H45.3365V13.527V10H47.1537H48.9709V15.3381V20.6762H44.5714H40.1719V18.8651ZM50.6924 19.2463V17.8165H53.0834C54.3985 17.8165 55.4745 17.768 55.4745 17.7088C55.4745 17.6496 54.3985 16.4389 53.0834 15.0184L50.6924 12.4356V11.2178V10H55.6658H60.6391V11.424V12.848L58.3043 12.9015L55.9696 12.955L58.4 15.5637L60.8304 18.1723V19.4243V20.6762H55.7614H50.6924V19.2463Z" fill="#0E0E0F"/>
</g>
<defs>
<clipPath id="clip0_410_19068">
<rect width="57" height="80" fill="white" transform="translate(22 10)"/>
</clipPath>
</defs>
</svg>
