<svg width="128" height="113" viewBox="0 0 128 113" fill="none" xmlns="http://www.w3.org/2000/svg">
<path d="M40.1117 87.4559H39.1367L34.2617 82.5809V81.6059L41.7367 74.1309H46.9367L47.668 74.8621V80.0621L40.1117 87.4559Z" fill="#05BDBA"/>
<path d="M34.2617 31.9613V30.9863L39.1367 26.1113H40.1117L47.5867 33.5863V38.7863L46.9367 39.4363H41.7367L34.2617 31.9613Z" fill="#05BDBA"/>
<path d="M77.4062 71.6113H70.2562L69.6875 71.0426V54.3051C69.6875 51.2988 68.55 49.0238 64.975 48.9426C63.1062 48.8613 60.9937 48.9426 58.8 49.0238L58.475 49.3488V70.9613L57.9062 71.5301H50.7563L50.1875 70.9613V42.5238L50.7563 41.9551H66.8438C73.1 41.9551 78.1375 46.9926 78.1375 53.2488V71.0426L77.4062 71.6113Z" fill="#014847"/>
<path d="M41.0875 60.8871H12.5687L12 60.3184V53.1684L12.5687 52.5996H41.0875L41.6562 53.1684V60.3184L41.0875 60.8871Z" fill="#05BDBA"/>
<path d="M115.431 60.8871H86.9125L86.3438 60.3184V53.1684L86.9125 52.5996H115.431L116 53.1684V60.3184L115.431 60.8871Z" fill="#05BDBA"/>
<path d="M59.8555 33.0188V11.5687L60.5055 11H67.6555L68.2242 11.5687V32.9375L67.6555 33.5063H60.5055L59.8555 33.0188Z" fill="#05BDBA"/>
<path d="M59.8555 101.918V80.5492L60.4242 79.9805H67.5742L68.143 80.5492V101.918L67.5742 102.487H60.4242L59.8555 101.918Z" fill="#05BDBA"/>
</svg>
