<svg width="80" height="83" viewBox="0 0 80 83" fill="none" xmlns="http://www.w3.org/2000/svg">
<g clip-path="url(#clip0_191_13113)">
<rect width="80" height="83" fill="white"/>
<path fill-rule="evenodd" clip-rule="evenodd" d="M47.1248 16.1162L18.2185 18.1987C15.8887 18.3959 15.0762 19.8834 15.0762 21.6668V52.6039C15.0762 53.9928 15.5831 55.1811 16.8001 56.7689L23.5953 65.3966C24.7116 66.7855 25.7255 67.0813 27.8574 66.9827L61.4251 64.9988C64.2637 64.8016 65.0762 63.5112 65.0762 61.3301V26.5271C65.0762 25.3983 64.6196 25.0736 63.2758 24.1131L63.0467 23.9482L53.8192 17.6037C51.5883 16.0176 50.6751 15.8187 47.1248 16.1162ZM28.6178 25.9542C25.8765 26.1344 25.255 26.1752 23.6977 24.9393L19.7394 21.8657C19.3366 21.4679 19.5397 20.9715 20.5519 20.8746L48.3418 18.8906C50.6734 18.6917 51.8904 19.4856 52.8036 20.1792L57.571 23.5521C57.7741 23.6507 58.2793 24.244 57.6717 24.244L28.972 25.9304L28.6178 25.9542ZM25.4217 61.0326V31.4861C25.4217 30.1958 25.8262 29.6008 27.0432 29.5005L60.0033 27.6203C61.1213 27.52 61.6283 28.2153 61.6283 29.5022V58.8498C61.6283 60.1418 61.4251 61.2315 59.597 61.3318L28.0588 63.1168C26.2342 63.2154 25.4234 62.6204 25.4234 61.0326H25.4217ZM56.5588 33.0705C56.7602 33.9631 56.5588 34.8556 55.6439 34.9576L54.123 35.2534V57.0647C52.8036 57.7583 51.5883 58.1561 50.5744 58.1561C48.9512 58.1561 48.5432 57.6597 47.3279 56.1722L37.3869 40.9026V55.6758L40.5328 56.3728C40.5328 56.3728 40.5328 58.1561 37.9946 58.1561L30.998 58.5523C30.7967 58.1561 30.998 57.165 31.7099 56.9661L33.5328 56.4714V36.9381L30.998 36.7392C30.7967 35.845 31.3019 34.5581 32.7237 34.4578L40.2289 33.9631L50.5744 49.4299V35.7464L47.9355 35.4506C47.7342 34.3592 48.5432 33.5653 49.5588 33.4667L56.5588 33.0705Z" fill="black"/>
</g>
<defs>
<clipPath id="clip0_191_13113">
<rect width="80" height="83" fill="white"/>
</clipPath>
</defs>
</svg>
