<svg width="548" height="411" viewBox="0 0 548 411" fill="none" xmlns="http://www.w3.org/2000/svg">
<path d="M447.901 232.675C431.05 232.763 416.406 236.83 404.143 242.842C399.643 233.912 395.144 225.955 394.35 220.12C393.468 213.312 392.409 209.157 393.468 201.023C394.527 192.889 399.291 181.307 399.202 180.423C399.114 179.539 398.144 175.384 388.439 175.295C378.735 175.207 370.354 177.152 369.383 179.716C368.413 182.28 366.56 188.115 365.325 194.127C363.649 202.968 345.916 234.531 335.771 251.064C332.507 244.61 329.684 238.952 329.066 234.443C328.184 227.635 327.125 223.48 328.184 215.346C329.242 207.212 334.006 195.63 333.918 194.746C333.83 193.862 332.86 189.707 323.155 189.618C313.451 189.53 305.07 191.475 304.099 194.039C303.129 196.603 302.07 202.615 300.041 208.45C298.012 214.285 274.457 266.978 268.281 280.594C265.105 287.578 262.37 293.148 260.429 296.95C260.429 296.95 260.341 297.215 260.077 297.657C258.4 300.928 257.43 302.696 257.43 302.696C257.43 302.696 257.43 302.696 257.43 302.785C256.107 305.172 254.695 307.382 253.989 307.382C253.46 307.382 252.489 301.017 254.166 292.352C257.695 274.051 266.076 245.583 265.987 244.61C265.987 244.08 267.575 239.129 260.518 236.565C253.636 234.001 251.166 238.244 250.549 238.244C249.931 238.244 249.49 239.747 249.49 239.747C249.49 239.747 257.165 207.742 234.845 207.742C220.906 207.742 201.674 223.038 192.146 236.83C186.147 240.101 173.354 247.086 159.68 254.601C154.475 257.518 149.093 260.436 144.065 263.176C143.712 262.823 143.359 262.381 143.006 262.027C116.01 233.117 66.0768 212.694 68.1941 173.881C68.9881 159.735 73.8403 122.602 164.091 77.5123C238.374 40.8215 297.483 50.9888 307.716 73.5338C322.361 105.716 276.045 165.482 199.292 174.146C170.002 177.417 154.651 166.101 150.77 161.857C146.712 157.436 146.094 157.171 144.594 158.055C142.124 159.381 143.712 163.36 144.594 165.659C146.888 171.671 156.328 182.28 172.296 187.496C186.411 192.094 220.73 194.658 262.282 178.567C308.775 160.531 345.122 110.401 334.448 68.4059C323.773 25.7915 253.195 11.7341 186.411 35.5168C146.711 49.6627 103.659 71.9424 72.6934 100.941C35.9049 135.422 30.0823 165.393 32.4642 177.948C41.0218 222.507 102.336 251.506 126.862 272.99C125.626 273.697 124.48 274.316 123.509 274.847C111.246 280.947 64.4888 305.437 52.8435 331.342C39.6102 360.694 54.9608 381.736 65.1063 384.565C96.6015 393.318 128.979 377.581 146.359 351.588C163.738 325.595 161.621 291.822 153.593 276.35C153.505 276.173 153.416 275.996 153.24 275.819C156.416 273.963 159.68 272.018 162.856 270.161C169.12 266.448 175.295 263 180.589 260.17C177.589 268.393 175.384 278.206 174.325 292.352C173.002 308.974 179.795 330.546 188.705 339.034C192.675 342.747 197.351 342.835 200.35 342.835C210.761 342.835 215.436 334.171 220.641 323.915C226.993 311.361 232.728 296.773 232.728 296.773C232.728 296.773 225.582 336.204 244.991 336.204C252.048 336.204 259.194 327.01 262.37 322.324C262.37 322.412 262.37 322.412 262.37 322.412C262.37 322.412 262.547 322.147 262.9 321.528C263.605 320.379 264.047 319.671 264.047 319.671C264.047 319.671 264.047 319.583 264.047 319.495C266.87 314.544 273.222 303.315 282.661 284.66C294.836 260.613 306.569 230.553 306.569 230.553C306.569 230.553 307.628 237.891 311.245 250.092C313.363 257.253 317.774 265.122 321.302 272.725C318.479 276.703 316.715 278.914 316.715 278.914C316.715 278.914 316.715 278.914 316.803 279.002C314.509 282.008 312.039 285.279 309.304 288.462C299.688 299.956 288.219 313.129 286.631 316.931C284.779 321.44 285.22 324.711 288.749 327.363C291.307 329.308 295.895 329.574 300.57 329.308C309.216 328.689 315.303 326.568 318.303 325.241C322.979 323.562 328.448 320.998 333.565 317.196C343.005 310.211 348.739 300.221 348.21 287.048C347.945 279.798 345.563 272.548 342.652 265.74C343.534 264.503 344.328 263.265 345.211 262.027C360.12 240.189 371.677 216.23 371.677 216.23C371.677 216.23 372.736 223.568 376.353 235.769C378.117 241.958 381.734 248.677 384.91 255.219C370.883 266.625 362.237 279.886 359.15 288.551C353.592 304.641 357.915 311.891 366.119 313.571C369.825 314.367 375.118 312.599 379 310.919C383.94 309.327 389.763 306.587 395.321 302.52C404.76 295.535 413.847 285.81 413.318 272.637C413.053 266.625 411.465 260.701 409.26 254.954C421.17 250.003 436.52 247.262 456.105 249.561C498.099 254.512 506.392 280.77 504.804 291.822C503.216 302.873 494.394 308.885 491.482 310.742C488.571 312.599 487.601 313.217 487.865 314.544C488.218 316.489 489.63 316.4 492.1 316.047C495.541 315.428 514.155 307.117 514.949 286.782C516.273 260.789 491.571 232.409 447.901 232.675ZM123.95 342.128C110.011 357.335 90.6024 363.081 82.2213 358.219C73.2227 353.003 76.7516 330.546 93.8666 314.455C104.277 304.641 117.687 295.535 126.597 289.965C128.626 288.727 131.626 286.959 135.243 284.749C135.86 284.395 136.213 284.218 136.213 284.218C136.919 283.776 137.625 283.334 138.33 282.892C144.594 305.879 138.595 326.125 123.95 342.128ZM225.405 272.99C220.553 284.837 210.408 315.162 204.232 313.483C198.939 312.068 195.675 289.081 203.173 266.359C206.967 254.954 214.995 241.339 219.671 236.034C227.258 227.547 235.639 224.717 237.668 228.166C240.227 232.675 228.405 265.564 225.405 272.99ZM309.128 313.129C307.099 314.19 305.158 314.897 304.276 314.367C303.658 314.013 305.158 312.599 305.158 312.599C305.158 312.599 315.656 301.282 319.803 296.154C322.185 293.148 325.008 289.612 328.007 285.633C328.007 285.987 328.007 286.429 328.007 286.782C328.007 300.309 314.951 309.416 309.128 313.129ZM373.706 298.364C372.206 297.303 372.471 293.767 377.5 282.715C379.441 278.383 384.028 271.134 391.88 264.149C392.762 266.978 393.38 269.719 393.291 272.283C393.203 289.346 381.029 295.712 373.706 298.364Z" fill="#CD6799"/>
</svg>
