<svg width="100" height="100" viewBox="0 0 100 100" fill="none" xmlns="http://www.w3.org/2000/svg">
<g clip-path="url(#clip0_410_19073)">
<g clip-path="url(#clip1_410_19073)">
<path d="M76.2401 7.43066C90.4987 16.2384 100 32.0097 100 50.0002C100 77.6145 77.6145 100 50.0003 100C43.9784 100 38.2052 98.9357 32.8601 96.9829L32.2891 96.7703L33.2189 96.4717L34.4142 96.0796L35.004 95.8826L35.5884 95.685L36.7415 95.2878L37.8734 94.888L38.9843 94.4855L40.074 94.0804L40.611 93.8768L41.6691 93.4676C42.7865 93.0298 43.8679 92.5872 44.9133 92.1399L45.6907 91.8035L46.6434 91.3805C47.0621 91.1918 47.4746 91.0023 47.8809 90.812L48.4856 90.5259L49.3751 90.0942L49.812 89.8773L50.2436 89.6596L51.091 89.2221C58.2047 85.4906 63.038 81.437 65.6041 76.9924C71.041 67.5754 66.2926 57.512 52.6616 47.2527L51.5523 46.421L50.8785 45.9042L50.2243 45.3914L49.5896 44.8825L48.9744 44.3775L48.6741 44.1264L48.3786 43.8763L47.8022 43.3791L47.3825 43.0086L46.9736 42.6403L46.4453 42.1526L45.936 41.6687L45.4458 41.1886L45.2078 40.9499L44.9746 40.7122L44.5223 40.2395C39.1339 34.5114 37.9306 29.6078 40.3769 25.3707C41.622 23.2142 43.7805 21.094 46.8488 19.0291L47.2214 18.7816L47.8081 18.4041C48.0734 18.2366 48.3447 18.0695 48.6221 17.9027L49.0427 17.6529L49.6907 17.2793L50.359 16.9071L50.8736 16.6289L51.3998 16.3514L52.1191 15.9827C52.6662 15.7067 53.2306 15.432 53.8121 15.1585L54.3994 14.8855L55.2002 14.5228L55.6083 14.342L56.4396 13.9816L56.863 13.802L57.7249 13.4441L58.1635 13.2657L59.0559 12.9102L59.5098 12.7331L60.4327 12.3801L61.376 12.0288L61.8553 11.8539L62.8291 11.5052L63.8232 11.1584L64.8376 10.8133L65.3524 10.6415L66.3973 10.2992L67.4625 9.95879L68.5479 9.62027L69.6537 9.28368L70.7798 8.94904L72.2159 8.53352L73.6836 8.12113L75.4868 7.63049L76.2401 7.43066Z" fill="url(#paint0_linear_410_19073)"/>
<path d="M50 0C56.0805 0 61.9075 1.08538 67.2978 3.07296L67.8736 3.28936L67.5085 3.39989L65.7276 3.94885L65.1444 4.13326L63.9939 4.50423L62.8643 4.87809L61.7557 5.25486L60.6681 5.63457L59.6014 6.01726L59.0759 6.20972L57.7851 6.69417L56.527 7.18337L55.5441 7.57819L55.0605 7.77676L54.1089 8.17623C44.3847 12.3203 38.0116 16.9669 34.964 22.2455C29.6448 31.4586 34.4694 41.3904 48.1018 51.647L49.211 52.4787L49.8846 52.9958L50.5385 53.5092L50.858 53.7645L51.4824 54.2724L51.9379 54.6509L52.3823 55.0273L52.9579 55.5261L53.2384 55.7742L53.7848 56.2676C54.0831 56.5407 54.3723 56.8121 54.6527 57.082L55.0666 57.4855L55.6625 58.0863L56.2286 58.6816C61.594 64.4495 62.7407 69.4512 60.1912 73.8672C58.5414 76.7246 55.3917 79.5375 50.7492 82.2682L50.323 82.5162L49.6323 82.9075L48.921 83.2976C48.5202 83.514 48.1098 83.7298 47.6899 83.9451L47.0529 84.2675L46.2697 84.6533L45.466 85.0378L44.6417 85.421L44.2219 85.6121L43.3668 85.9933L42.4913 86.3731L41.5952 86.7515L41.1394 86.9402L40.2125 87.3165L39.7414 87.5041L39.2652 87.6913L38.2973 88.0646L37.3089 88.4365L36.3001 88.8068L35.2707 89.1755L34.2209 89.5426L33.6883 89.7256L32.6077 90.0903L32.0598 90.2721L30.9485 90.6343L29.8168 90.9949L28.3734 91.4432L26.898 91.8887L25.6947 92.2432L24.0154 92.7262C9.61501 83.9496 0 68.0976 0 50C0 22.3858 22.3858 0 50 0Z" fill="url(#paint1_linear_410_19073)"/>
</g>
</g>
<defs>
<linearGradient id="paint0_linear_410_19073" x1="66.1447" y1="7.43066" x2="66.1447" y2="100" gradientUnits="userSpaceOnUse">
<stop stop-color="#0080FF"/>
<stop offset="1" stop-color="#00B7FF"/>
</linearGradient>
<linearGradient id="paint1_linear_410_19073" x1="33.9368" y1="0" x2="33.9368" y2="92.7262" gradientUnits="userSpaceOnUse">
<stop stop-color="#00B7FF"/>
<stop offset="1" stop-color="#0080FF"/>
</linearGradient>
<clipPath id="clip0_410_19073">
<rect width="100" height="100" fill="white"/>
</clipPath>
<clipPath id="clip1_410_19073">
<rect width="100" height="100" fill="white"/>
</clipPath>
</defs>
</svg>
