<svg width="247" height="137" viewBox="0 0 247 137" fill="none" xmlns="http://www.w3.org/2000/svg">
<g clip-path="url(#clip0_276_8029)">
<path d="M61.6871 34.8512C60.0649 33.8641 61.413 34.4257 60.2599 34.2754C60.6528 33.884 60.9156 33.4046 61.2434 33.3138C60.9749 33.1068 60.7404 33.5237 60.8845 32.7834C61.0286 32.0403 60.7234 32.0119 60.7234 32.0119L61.2971 31.4758C60.8563 31.5893 60.5454 30.5625 60.4012 31.3028C60.5454 30.5625 60.2826 31.1269 60.4267 30.3838C60.5708 29.6407 60.9354 30.9426 61.0823 30.2023C61.2265 29.4591 59.8134 28.6366 59.528 27.9842C59.4602 27.3772 59.6326 26.4638 59.3528 25.7122C58.861 25.9675 58.7734 25.9504 58.7791 25.7519L58.8949 25.1562C58.6773 25.3151 58.3721 25.057 58.4089 24.813C58.7226 24.6173 58.9402 25.3179 59.0843 24.5776C59.1069 24.467 55.1249 18.241 52.5504 16.4824C51.321 14.9507 49.4163 13.6658 48.0569 11.8307C47.8817 12.2476 47.6923 12.3667 47.6923 12.3667L47.3221 11.7229C46.8417 11.0138 46.268 10.5684 45.5841 10.1345C45.4315 10.5429 45.2449 10.662 45.2449 10.662C44.4282 8.41842 41.1415 8.63966 40.5028 6.94347C40.5508 7.24413 40.1778 7.57032 39.9602 7.7944C39.8726 7.24697 39.6691 6.5492 39.3045 6.27974C39.4204 6.71939 39.1039 6.74776 38.8834 6.969C38.7958 6.42156 38.646 5.68976 37.8999 5.5451C37.1539 5.40045 38.2306 6.22585 37.4845 6.08119C36.7384 5.93653 37.7502 5.51674 37.0041 5.37208C36.2608 5.22742 35.8454 5.76635 35.1021 5.61885C34.356 5.47419 35.0682 4.99767 34.3221 4.85301C33.576 4.70836 32.9571 5.5139 32.4569 5.46285C32.5954 4.98349 32.7734 4.86436 33.1013 4.77359C32.5332 4.5098 32.1206 5.04589 31.8776 5.01185C31.6769 4.69985 32.5332 4.51264 31.7899 4.36515C31.0439 4.22049 29.9869 4.64028 29.1136 4.77643C28.9384 4.47577 28.9554 4.39067 29.2239 4.02477C28.783 4.13823 28.116 4.5949 27.5649 4.78494L27.1693 4.24318C27.4632 4.10136 27.8278 4.02761 27.8278 4.02761C27.4067 3.82622 27.0506 4.06732 26.638 4.03045C26.5165 4.42471 26.5221 4.62326 26.2791 4.83883C26.1378 4.54952 26.2169 4.36515 26.1265 4.03896C25.9202 4.30842 26.4854 4.57221 25.7421 4.42471C25.2956 4.33962 24.996 4.06165 24.7586 3.87161C24.753 3.9255 24.7417 3.99074 24.7247 4.07583C24.5806 4.81898 22.413 5.06007 21.6358 5.6926C22.0541 5.86846 22.1163 6.34498 22.0965 6.56622C21.5143 6.70521 21.4408 6.41306 21.0734 5.99043C20.1945 7.14202 18.3745 6.6967 17.781 6.62295C17.196 8.37871 13.491 8.5262 12.8947 8.40991C11.1058 8.06386 9.06821 3.05188 7.05604 2.66328C6.31277 2.51862 5.59777 2.99798 4.85451 2.85332C4.25821 2.73987 0.536253 2.78809 0.0727749 5.16219C-0.0713555 5.9025 1.77125 14.1111 1.99451 18.5048C2.27147 24.0245 2.17538 29.6548 2.0906 34.8342C2.05669 36.4027 3.02604 39.1456 2.87908 39.8859C2.73495 40.629 2.81125 43.4144 2.6643 44.1547C2.52017 44.8979 2.01147 44.3362 1.86734 45.0794C1.72038 45.8197 2.75473 50.0658 3.08821 52.3974C3.30299 51.9776 2.88473 51.745 3.63082 51.8868C4.37691 52.0315 3.55169 53.9206 3.69017 54.7772C2.39299 55.3728 0.171688 56.9159 0.0275575 57.6562C-0.116573 58.3965 0.335601 59.29 0.666253 59.7778C0.974297 60.1834 6.20538 64.0467 5.76169 66.3101C5.15973 69.3905 5.96234 73.6111 5.92277 75.9994C6.05843 77.4971 5.55256 79.284 5.73625 81.1277C5.84082 82.3814 6.60386 84.1769 6.45973 84.92C6.3156 85.6603 5.86343 84.8037 5.7193 85.5469C5.57517 86.2872 5.77299 88.5677 6.31277 89.8526C5.80691 91.4353 6.62364 91.9941 6.55864 92.3288C5.83234 96.0389 6.85256 98.7363 6.65756 99.7376C6.33256 101.405 5.64864 101.195 7.45169 103.589C7.1606 103.728 6.85538 103.473 6.71125 104.213C6.56712 104.957 8.2656 105.745 8.12147 106.488C7.98864 107.166 8.05647 107.022 7.88408 107.158C9.44125 108.865 8.56234 112.073 9.11908 114.521C11.086 114.331 10.0404 116.422 10.388 117.08C10.0941 117.233 9.43843 117.414 9.02582 117.723C9.71821 120.761 9.10495 124.463 9.28299 127.776C11.9395 128.323 13.0191 132.113 12.9993 132.223C12.8523 132.964 12.8891 132.555 12.4567 132.147C12.5556 132.975 12.7393 133.627 13.0756 134.39C13.2763 133.971 13.5673 133.829 13.7934 133.607C14.0308 134.39 13.491 136.628 15.1697 136.954C15.2799 136.977 18.0495 135.661 19.2845 135.596C19.7763 135.982 19.9232 136.6 20.2256 137.006C22.8454 136.702 26.6408 136.101 28.3506 134.277C28.7943 133.786 30.0434 134.013 30.4899 133.718C32.3665 132.425 32.5247 130.056 32.878 128.919C33.1578 128.828 35.4356 126.638 35.5091 126.267C35.5317 126.156 34.2543 124.179 34.7008 121.808C34.2543 121.283 34.1639 120.395 33.9321 119.669C32.943 119.536 32.9543 119.264 32.5813 118.813C31.9256 117.843 31.8578 116.439 32.1121 115.139C32.6915 112.173 32.4513 111.818 32.5954 111.075C32.7423 110.332 33.7513 109.912 33.8982 109.172C33.9208 109.061 33.7145 108.519 33.9123 107.399C32.7876 106.508 31.7249 105.697 30.9902 105.05C31.2813 104.923 31.4989 105.626 31.643 104.886C32.0754 102.662 29.7947 104.035 29.7636 101.794C30.0717 101.61 30.4899 101.275 30.5408 100.895C29.953 100.415 29.286 99.4312 29.0995 98.8753C29.3991 98.7108 30.001 99.0256 30.1452 98.2825C30.2893 97.5393 29.4895 96.66 29.0317 96.0644C29.3228 95.9226 29.4499 96.2998 29.9021 96.2913C29.6619 95.7666 29.1221 95.3581 28.9045 95.117C29.1984 94.9724 29.4726 95.3808 29.6167 94.6376C29.7608 93.8973 29.0486 94.3739 29.1956 93.6336C29.3397 92.8932 29.8852 93.2648 30.0293 92.5245L30.7669 88.7407C30.7867 88.6329 28.588 80.9518 28.1415 76.9468C28.0708 76.9383 27.9691 76.9213 27.8221 76.8929C27.0789 76.7482 27.2315 76.5156 27.0139 76.2746C27.3049 76.1327 27.6695 76.059 27.6695 76.059C27.0986 75.8292 26.3893 75.2761 26.0502 74.7996C26.1095 74.5613 26.7058 74.6776 26.8499 73.9345C26.9941 73.1942 25.1232 68.5197 25.2702 67.7794C25.3126 67.5553 26.5278 68.463 27.8447 64.2367C28.2602 64.3558 28.5258 63.7063 28.8141 63.2298C29.173 63.8708 29.9332 64.5941 30.2186 65.3486C30.2186 65.3486 30.4023 65.0309 30.668 64.821C31.1202 65.2011 31.3632 65.8818 31.7221 65.9386C32.4908 65.4365 33.2002 64.9572 33.9773 64.3842C33.7145 63.9162 33.4969 63.6751 33.511 63.4595C34.3786 63.3773 36.3258 63.451 36.4728 62.7107C36.7328 61.3747 40.8476 61.179 41.4043 60.9011C42.4669 60.4132 43.8941 59.3268 45.0245 58.4532C44.6091 58.2773 44.4876 58.1015 44.5158 57.8689C45.4654 57.4945 46.4234 57.086 46.9971 57.0492C47.5878 56.2238 53.2286 52.942 53.6215 50.9366C53.6441 50.826 57.1767 47.184 58.5926 46.0693C58.4117 45.329 58.5643 44.3958 57.8606 43.4711C58.4117 43.3832 58.8243 44.0923 59.2482 44.1377L59.5704 42.4869C59.3273 42.0813 59.0278 42.0245 58.8102 41.7834C59.1013 41.6388 59.1691 42.3139 59.316 41.5736C59.1691 42.3139 59.7852 41.7721 60.2147 42.2004L60.6047 40.2036C59.6608 39.3867 59.9349 39.1909 59.9576 39.0803C60.1017 38.3372 60.3504 38.218 60.9099 38.0308L61.4978 38.74C61.4695 37.6309 60.746 36.6155 60.893 35.8723C61.0371 35.132 61.6334 35.2483 61.6815 34.8597L61.6871 34.8512ZM42.6054 38.3967C40.2456 43.2527 31.4113 48.364 25.338 48.7384C24.3347 47.3514 23.7243 43.3095 24.3178 42.2713C24.1002 41.9962 23.4756 42.2118 22.8765 41.6501C22.8765 41.6501 23.241 41.6104 23.5321 41.4941C20.7202 39.6051 21.9184 36.9785 20.3726 33.8272C20.4319 33.484 20.7993 33.4443 21.1017 33.2685C20.9632 32.4033 19.8526 31.6801 19.9995 30.9369C20.1465 30.1966 20.7173 30.4604 20.7767 30.1626C20.8332 29.8676 20.4715 29.3343 19.7734 29.1556C19.8102 28.7443 20.4686 28.5656 20.6156 27.8225C20.7626 27.0793 19.406 26.0497 19.553 25.3066C19.6999 24.5663 20.2115 25.125 20.2708 24.8896C19.8102 24.2344 19.0584 23.5054 18.4678 23.0261C18.5186 22.646 18.9878 22.2914 19.5756 22.1525C19.6576 21.6334 18.8945 20.981 18.383 20.1811C18.8323 19.5599 19.2506 19.0239 19.7339 18.4396C24.9226 19.4153 26.6352 19.4323 27.3841 19.577C28.1358 19.7216 27.8023 19.0409 28.5541 19.1855C29.1928 19.3075 33.251 22.2432 34.7545 22.5297C35.5034 22.6744 35.9217 22.1383 36.6734 22.2829C37.4252 22.4276 39.036 26.1235 39.7878 26.2681C40.5367 26.4128 39.6041 25.6157 40.3558 25.7604C41.1047 25.9051 42.8004 28.5458 43.9817 30.2732C44.496 31.0277 44.0241 32.4147 44.2106 33.4528C44.2276 33.5748 42.7608 34.9959 44.6373 35.5943C43.8545 36.5928 43.3967 36.814 42.6195 38.3967H42.6054Z" fill="#F9F9F9"/>
<path d="M119.901 72.6269C112.039 58.6405 99.8532 37.6934 86.7713 26.671C85.7397 25.8059 83.8321 25.1336 82.5434 24.833C82.2693 24.6004 82.111 23.8742 81.2717 23.7551C79.4658 23.5027 78.2817 24.3139 78.1093 25.5194C77.9906 26.3533 78.7621 28.1573 78.6463 28.9855C78.6039 29.2777 74.6191 35.6341 74.4495 36.8396L73.4943 43.5761C73.3756 44.4101 71.5302 50.1737 71.3917 51.0019L68.6956 69.9919L63.1649 87.4105C64.253 90.7093 62.2408 93.9144 61.7745 97.199C61.0058 102.605 65.4597 104.043 70.0295 108.014C75.4641 102.77 78.3721 105.742 79.2878 99.298C79.4065 98.4669 80.4267 93.6903 80.5454 92.8564C80.6641 92.0254 80.3476 87.019 80.4521 86.188L82.1817 74.0083C88.8117 71.6853 95.891 69.8926 101.642 70.3323C103.081 74.1955 106.472 81.5419 106.353 82.373C106.099 84.1599 107.546 88.1366 111.115 88.6358C111.955 88.7521 113.775 87.9891 114.617 88.1054C115.456 88.2217 116.993 89.4527 117.836 89.569C118.675 89.6853 120.382 88.8996 121.521 88.667C121.962 87.3311 124.497 84.8577 124.68 83.5699C124.94 81.7376 120.314 73.3616 119.904 72.6241L119.901 72.6269ZM85.313 57.9597C85.5984 51.2515 86.9889 45.3801 86.4802 39.5172C89.0915 43.0713 92.4828 48.815 94.5006 53.4469C91.3523 54.7857 88.5206 56.7372 85.313 57.9597Z" fill="#F9F9F9"/>
<path d="M165.657 61.4681C164.275 60.342 161.986 60.2597 160.426 59.4911C157.108 57.8431 152.863 55.5995 150.659 54.2834C152.501 51.2313 154.737 49.7394 155.104 47.1611C155.223 46.33 156.712 41.8427 156.568 36.8166C156.37 29.7453 148.177 22.6996 143.325 20.578L138.978 19.971C133.23 19.1682 127.083 20.4361 121.892 27.1783C121.519 27.6776 120.906 27.6322 120.787 28.4661C120.338 31.6259 124.359 37.4718 125.15 40.3394C125.795 42.722 126.942 45.2153 127.564 47.4674C130.627 58.1608 130.656 69.2144 135.437 79.6893L134.669 80.2736C136.559 84.0433 139.162 82.7328 141.228 85.4133L142.76 85.626C142.876 85.1665 142.601 84.3298 142.341 84.1C142.952 83.9724 143.545 84.0716 144.023 84.0716C143.37 78.9122 143.554 75.4886 142.412 70.5333C142.104 69.0924 139.445 63.4763 139.538 62.8125C139.657 61.9814 141.358 62.0467 142.197 62.1658C142.406 62.1942 152.903 71.4637 158.399 72.2295C159.239 72.3458 162.353 72.1019 164.492 72.3515C164.653 71.5743 164.433 70.6014 164.789 70.0426C165.368 70.1504 165.993 70.5759 166.437 70.6014C167.036 69.2342 167.881 68.1223 167.999 67.2913C168.107 66.5424 166.77 62.3956 165.662 61.4766L165.657 61.4681ZM134.719 44.787C133.151 40.7252 129.876 34.3177 128.624 30.5112C132.365 28.6334 132.43 28.9001 134.462 29.1695C140.259 29.9354 141.465 31.8783 140.852 35.9855C140.555 37.9795 141.652 38.0135 143.062 40.07C141.912 41.7548 137.444 43.9757 134.719 44.787Z" fill="#F9F9F9"/>
<path d="M159.252 13.1923C162.771 13.6943 168.53 26.4753 168.677 26.9206C170.302 31.3341 172.351 37.7587 174.649 42.1835C175.847 44.4895 176.008 46.787 178.927 50.1511C186.08 44.6427 190.447 40.5157 196.528 41.3808C198.391 41.6446 199.329 43.4911 201.279 43.5138C200.844 43.996 200.137 44.2371 199.826 44.3931C201.205 45.4454 200.643 44.2371 201.813 45.8907C202.067 45.6354 202.777 45.3972 203.339 45.0965C203.373 45.5986 202.977 45.6638 202.667 45.8141C203.209 46.1091 203.918 45.868 204.597 46.4977C203.424 46.4637 202.768 46.7019 201.864 46.753C202.72 47.0537 204.065 47.2551 204.752 47.8422C203.574 48.4265 203.252 48.9144 203.218 49.1668C203.102 50.0064 203.246 50.1964 203.715 50.3695C201.765 51.9862 200.273 54.2384 197.916 55.0978C195.2 56.1218 192.558 57.5371 190.235 58.4476C187.287 59.6077 183.463 59.1142 180.055 60.1438C180.047 60.3934 180.278 61.0345 180.487 61.9109C180.004 61.9251 179.555 61.5195 178.727 61.4004C177.899 61.2841 177.811 61.562 177.283 61.8769C176.935 61.0515 176.808 59.4205 175.977 59.3014C175.149 59.1823 176.381 60.0446 175.553 59.9254C172.408 59.4773 169.03 49.8958 168.697 48.9512C164.695 37.6622 159.73 25.318 157.5 13.734C158.3 13.4192 158.424 13.076 159.252 13.1951V13.1923Z" fill="#F9F9F9"/>
<path d="M208.285 5.27026C209.133 5.38656 213.217 6.95794 215.698 7.34654C215.684 7.80037 215.927 8.46693 216.046 9.94188C215.368 10.183 204.88 15.7481 204.835 16.0771C204.716 16.9025 206.126 18.8483 206.858 20.2325C210.744 18.7632 210.976 17.4272 213.895 17.8243C214.74 17.9406 218.366 19.1121 220.508 19.4553C220.446 20.2381 221.011 20.8962 221.554 22.1017C217.922 24.1099 215.995 26.2968 211.371 28.1263C212.68 30.8691 214.282 34.1225 215.512 36.9164C216.244 36.6838 225.242 34.5395 225.623 34.5905C227.653 34.8685 226.952 37.339 226.935 37.4638C226.494 40.5187 222.574 41.8802 219.706 43.6246C219.301 43.4856 219.044 43.4516 218.728 43.4799C216.891 44.4727 217.23 44.9747 217.148 45.5534C217.029 46.3788 216.614 46.7333 216.085 47.4169C212.731 45.9505 209.871 44.2089 207.274 42.9155C201.898 37.8723 200.042 30.0182 198.202 24.5439C196.823 20.3544 195.455 11.7572 195.574 10.929C195.692 10.1036 196.229 9.05974 197.151 8.23434C200.064 7.39192 207.613 5.17099 208.288 5.26459L208.285 5.27026Z" fill="#F9F9F9"/>
<path d="M239.499 0.0172645C243.552 0.576043 242.939 11.7034 242.752 13.0167C242.634 13.8364 241.401 17.6826 241.286 18.5023C241.062 20.0595 247.288 28.9518 246.714 32.971C246.596 33.7936 245.836 34.3552 245.717 35.1749C245.598 35.9975 246.245 36.2528 246.127 37.0753C246.008 37.8951 244.866 38.7403 244.688 39.5175C236.331 36.1365 235.26 26.1295 233.935 19.271C231.911 18.0258 229.145 16.6275 227.22 14.8972C225.024 12.9628 218.948 5.5001 219.197 3.73584C219.316 2.91611 219.672 2.79697 219.788 2.33464L221.534 2.57573C224.962 3.02389 231.68 9.82 233.601 10.9262C233.977 10.0724 233.884 8.2713 234 7.45157C234.246 5.72702 236.866 -0.354309 239.497 0.00875521L239.499 0.0172645Z" fill="#F9F9F9"/>
</g>
<defs>
<clipPath id="clip0_276_8029">
<rect width="247" height="137" fill="white"/>
</clipPath>
</defs>
</svg>
