<?xml version="1.0" encoding="UTF-8"?>
<svg xmlns="http://www.w3.org/2000/svg" version="1.1" viewBox="0 0 1024 1024">
  <!-- Generator: Adobe Illustrator 29.7.1, SVG Export Plug-In . SVG Version: 2.1.1 Build 8)  -->
  <g id="_오른_b" data-name="오른_b">
    <path d="M399,486.7v-180s11-.5,11-.5c0-1.2-6.8-12.5-7.5-12.5h-106.5c.3,1.5-.4,6.4,0,7,.8.8,17.6,2.5,21.7,3.8,19.7,6,26.6,19.3,29.1,38.9-1.5,100,5.8,204.2,1.2,303.9-.6,13.4-2,31.4-11.1,41.9-9.1,10.6-27.5,14.9-41,14.5v7h169c-.2-2.1.9-12-1.5-12h-64.5v-202s0-10,0-10Z"/>
  </g>
  <g id="y">
    <path d="M540.4,374.7c-1.6-1.5-52-79.4-70.5-114-9.6-17.9-22.6-43.5,4.7-52.3,4.1-1.3,19-2.6,19.8-3.2,1.6-1.1.8-4.8.9-6.6h-163c.2,1.4-.3,6.7,0,7,.4.4,8.6.9,11,1.5,30.7,7.7,43.6,30.9,59.4,55.6,24.9,39,47.4,79.7,72.4,118.7l-73.4,110.4,80.3,118.6s3.8,82.5-.8,122.7c-3.6,31.9-21.9,43.7-53,44.5v7h167v-7c-31.7-.5-51.6-13.2-54-46.5-2.8-38.8,0-120.1,0-120.1l1.2-3.8c25.5-38.7,52.2-76.8,76.6-116l-70.7-107.9c24.5-39.7,46.6-81.1,71.5-120.6,17-27.1,34.6-55.2,70.4-57.1v-7h-113c.1,1.8-.6,5.5.9,6.6.8.5,14.7,2.1,18.6,3.4,16,5.5,21.9,15.3,18,32-4.4,18.8-74.5,134-74.5,134ZM567.2,492.1l-56.3,83.7-55.3-84.3,56.8-83.6,54.8,84.3Z"/>
  </g>
  <g id="_왼아래b" data-name="왼아래b">
    <path d="M551.4,710.7v-11.7s17.4.1,22.5-.2c40.1-2.7,71.7-26.9,82.2-65.8,10.9-40.5,2.3-96.8-37.7-118.3,3-5,11.2-19.6,11.2-19.6,0,0,18,6.6,21.8,8.2,54.8,23,83.9,75.5,64.1,134-22.7,66.9-103.1,76.6-164,73.5Z"/>
  </g>
  <g id="_중앙_위_b" data-name="중앙_위_b">
    <path d="M580.7,292.8c-7-.3-17.7-.4-27.5-.7-19.1-.7-38.4.7-57.5.2-.5.4,5.8,11.3,6.2,11.7,2.1,2.1,15.4,1.3,19.3,1.3,9.4,0,18.9-.5,28.5.3,9.1.7,19.2,3.3,21,4.2"/>
  </g>
  <g id="_왼_위_b" data-name="왼_위_b">
    <path d="M629.6,487.6l-12.1-19.4c36.1-41,31.1-120.1-17.9-149.1-.3-1.2,9.4-18,10.6-18.3,54.3,11.3,93.9,48.7,89.3,107.4-3,39.1-33.9,68.4-69.9,79.4Z"/>
  </g>
</svg>