<svg width="500" height="500" viewBox="0 0 500 500" fill="none" xmlns="http://www.w3.org/2000/svg">
<path d="M165.278 246.105V107.977L173.734 107.593C173.734 106.672 168.507 98 167.968 98H86.0982C86.328 99.152 85.7896 102.911 86.0982 103.372C86.7122 103.986 99.6283 105.291 102.779 106.289C117.924 110.892 123.228 121.098 125.149 136.14C123.996 212.878 129.607 292.84 126.071 369.348C125.61 379.631 124.535 393.444 117.538 401.501C110.543 409.636 96.3992 412.936 86.021 412.63V418H215.936C215.783 416.389 216.629 408.792 214.783 408.792H165.2V253.779V246.105H165.278Z" fill="black"/>
<path d="M273.929 160.231C272.7 159.079 233.986 99.257 219.775 72.6878C212.4 58.9425 202.413 39.2837 223.385 32.5258C226.535 31.5272 237.98 30.5285 238.595 30.0677C239.824 29.2235 239.209 26.3822 239.286 25H114.075C114.229 26.0749 113.846 30.1448 114.075 30.376C114.382 30.6826 120.681 31.0664 122.525 31.5272C146.107 37.4405 156.017 55.256 168.154 74.2228C187.281 104.172 204.565 135.426 223.769 165.375L167.386 250.154L229.069 341.229C229.069 341.229 231.988 404.582 228.454 435.453C225.689 459.949 211.632 469.011 187.742 469.626V475H316.024V469.626C291.674 469.241 276.388 459.488 274.544 433.916C272.393 404.122 274.544 341.69 274.544 341.69L275.466 338.771C295.054 309.054 315.563 279.795 334.306 249.694L279.998 166.834C298.818 136.348 315.795 104.557 334.922 74.2228C347.981 53.4128 361.501 31.8338 389 30.376V25H302.198C302.275 26.3822 301.737 29.2235 302.89 30.0677C303.503 30.4514 314.181 31.6813 317.177 32.6784C329.467 36.9027 334 44.428 331.004 57.2518C327.623 71.6892 273.776 160.154 273.776 160.154L273.929 160.231ZM294.516 250.384L251.269 314.659L208.789 249.923L252.422 185.726L294.516 250.461V250.384Z" fill="black"/>
<path d="M282 418.537V409.555C282 409.555 295.383 409.631 299.307 409.401C330.149 407.329 354.452 388.747 362.528 358.88C370.913 327.785 364.297 284.556 333.532 268.048C335.84 264.21 342.147 253 342.147 253C342.147 253 355.991 258.068 358.913 259.296C401.062 276.955 423.444 317.265 408.215 362.182C390.756 413.548 328.917 420.995 282.077 418.614L282 418.537Z" fill="black"/>
<path d="M305 97.6541C299.566 97.4355 291.26 97.3641 283.654 97.1455C268.828 96.6368 253.847 97.6541 239.022 97.2913C238.634 97.5813 243.524 105.497 243.834 105.788C245.465 107.312 255.788 106.731 258.815 106.731C266.112 106.731 273.486 106.368 280.937 106.95C288.002 107.458 295.84 109.346 297.238 110" fill="black"/>
<path d="M342.042 247L332.751 232.044C360.473 200.439 356.634 139.463 319.005 117.108C318.774 116.183 326.224 103.23 327.146 103C368.843 111.712 399.253 140.541 395.721 185.792C393.417 215.933 369.688 238.52 342.042 247Z" fill="black"/>
</svg>
