<svg width="105" height="105" viewBox="0 0 105 105" fill="none" xmlns="http://www.w3.org/2000/svg">
<g clip-path="url(#clip0_119_8023)">
<rect width="104.672" height="104.672" rx="14" fill="white"/>
<path fill-rule="evenodd" clip-rule="evenodd" d="M65.2128 5.31177L12.4012 9.19151C8.14459 9.5589 6.66016 12.3301 6.66016 15.6525V73.288C6.66016 75.8756 7.58634 78.0894 9.80982 81.0475L22.2245 97.1207C24.264 99.7083 26.1164 100.259 30.0114 100.076L91.3395 96.3796C96.5255 96.0122 98.0099 93.6084 98.0099 89.5449V24.7073C98.0099 22.6043 97.1757 21.9994 94.7207 20.21L94.302 19.9028L77.4435 8.08302C73.3677 5.12808 71.6993 4.75752 65.2128 5.31177Z" fill="white" stroke="white" stroke-width="0.818604"/>
<path fill-rule="evenodd" clip-rule="evenodd" d="M65.2128 5.31177L12.4012 9.19151C8.14459 9.5589 6.66016 12.3301 6.66016 15.6525V73.288C6.66016 75.8756 7.58634 78.0894 9.80982 81.0475L22.2245 97.1207C24.264 99.7083 26.1164 100.259 30.0114 100.076L91.3395 96.3796C96.5255 96.0122 98.0099 93.6084 98.0099 89.5449V24.7073C98.0099 22.6043 97.1757 21.9994 94.7207 20.21L94.302 19.9028L77.4435 8.08302C73.3677 5.12808 71.6993 4.75752 65.2128 5.31177ZM31.4007 23.64C26.3923 23.9757 25.2568 24.0517 22.4116 21.7492L15.1798 16.023C14.4439 15.2819 14.815 14.3571 16.6642 14.1766L67.4363 10.4805C71.6961 10.11 73.9196 11.589 75.588 12.8812L84.2979 19.1648C84.669 19.3485 85.592 20.4539 84.4819 20.4539L32.0478 23.5956L31.4007 23.64ZM25.5613 88.9907V33.9459C25.5613 31.542 26.3003 30.4335 28.5238 30.2466L88.7417 26.7438C90.7844 26.5569 91.7106 27.8523 91.7106 30.2498V84.9241C91.7106 87.3311 91.3395 89.3612 87.9995 89.5481L30.3794 92.8736C27.0457 93.0573 25.5645 91.9488 25.5645 88.9907H25.5613ZM82.4487 36.8976C82.8167 38.5604 82.4487 40.2231 80.7771 40.4131L77.9986 40.9642V81.5986C75.588 82.8908 73.3677 83.6319 71.5153 83.6319C68.5496 83.6319 67.8042 82.7071 65.5839 79.9358L47.4218 51.4886V79.011L53.1692 80.3096C53.1692 80.3096 53.1692 83.6319 48.532 83.6319L35.7493 84.3698C35.3814 83.6319 35.7493 81.7854 37.0498 81.4149L40.3803 80.4933V44.1029L35.7493 43.7323C35.3814 42.0664 36.3044 39.6689 38.9022 39.482L52.6141 38.5604L71.5153 67.375V41.8827L66.6941 41.3316C66.3261 39.2983 67.8042 37.8193 69.6598 37.6356L82.4487 36.8976Z" fill="black"/>
</g>
<defs>
<clipPath id="clip0_119_8023">
<rect width="104.672" height="104.672" rx="14" fill="white"/>
</clipPath>
</defs>
</svg>
