<svg width="105" height="105" viewBox="0 0 105 105" fill="none" xmlns="http://www.w3.org/2000/svg">
<g clip-path="url(#clip0_22_2225)">
<path d="M85.8994 0H18.7722C8.40316 0 0 8.4048 0 18.7722V85.8994C0 96.2684 8.4048 104.672 18.7722 104.672H85.8994C96.2684 104.672 104.672 96.2668 104.672 85.8994V18.7722C104.672 8.40316 96.2668 0 85.8994 0Z" fill="#00005B"/>
<path d="M40.3631 27.7838C54.0473 27.7838 61.7521 34.1949 61.7521 44.9238C61.7521 57.4549 51.3095 62.4955 41.5162 62.4955H34.8908V76.0341H21.4961V27.7838H40.3631ZM34.8908 39.2355V51.0438H40.7949C44.9 51.0438 47.7817 49.3887 47.7817 45.2116C47.7817 41.396 45.3334 39.2355 41.0844 39.2355H34.8908ZM80.4262 37.7947C83.3799 37.7947 85.7563 38.1545 86.8373 38.5143V48.3093C85.9705 48.0917 84.3154 47.9494 82.9481 47.9494C80.2823 47.9494 78.7694 48.1653 77.4022 48.6691V76.0341H64.7974V40.9626C69.3343 38.9461 73.8728 37.7947 80.4262 37.7947Z" fill="#9999FF"/>
</g>
<defs>
<clipPath id="clip0_22_2225">
<rect width="104.672" height="104.672" fill="white"/>
</clipPath>
</defs>
</svg>
