<svg width="105" height="105" viewBox="0 0 105 105" fill="none" xmlns="http://www.w3.org/2000/svg">
<rect width="104.672" height="104.672" rx="14" fill="white"/>
<rect x="0.25" y="0.25" width="104.172" height="104.172" rx="13.75" stroke="black" stroke-opacity="0.7" stroke-width="0.5"/>
<g clip-path="url(#clip0_22_2231)">
<mask id="mask0_22_2231" style="mask-type:luminance" maskUnits="userSpaceOnUse" x="8" y="9" width="88" height="87">
<path fill-rule="evenodd" clip-rule="evenodd" d="M70.5048 95.1814C71.1961 95.4509 71.9355 95.5753 72.677 95.5469C73.4184 95.5184 74.1461 95.3376 74.8147 95.0157L92.7013 86.4091C93.6225 85.9656 94.3997 85.271 94.9437 84.4053C95.4876 83.5396 95.7761 82.5379 95.7759 81.5155V23.1566C95.7759 21.0695 94.5807 19.1677 92.7013 18.2629L74.8147 9.65665C73.804 9.17042 72.6672 9.01037 71.5616 9.19867C70.4559 9.38697 69.4361 9.91429 68.6434 10.7077L34.4015 41.9469L19.4864 30.6253C18.8136 30.1146 17.9832 29.8555 17.1394 29.893C16.2955 29.9305 15.4914 30.2622 14.8666 30.8306L10.0826 35.182C8.5052 36.6165 8.5035 39.0982 10.0788 40.5351L23.0137 52.3359L10.0788 64.1366C8.5035 65.5738 8.5052 68.0552 10.0826 69.4901L14.8666 73.8414C15.4914 74.4099 16.2954 74.7417 17.1393 74.7793C17.9832 74.8168 18.8136 74.5578 19.4864 74.0471L34.4015 62.7252L68.6434 93.9647C69.1727 94.495 69.8066 94.9093 70.5048 95.1814ZM74.0698 32.6137L48.088 52.3359L74.0698 72.058V32.6137Z" fill="white"/>
</mask>
<g mask="url(#mask0_22_2231)">
<path d="M92.6996 18.2764L74.7991 9.65757C73.7882 9.17082 72.6509 9.01034 71.5447 9.19833C70.4385 9.38632 69.4181 9.91349 68.6247 10.7069L10.0249 64.1365C8.44856 65.5737 8.45026 68.0551 10.0286 69.49L14.8154 73.8413C15.4407 74.4098 16.2453 74.7416 17.0896 74.7792C17.934 74.8168 18.7648 74.5577 19.4382 74.047L90.0061 20.5122C92.3735 18.7166 95.7739 20.4049 95.7739 23.3764V23.1687C95.7739 22.1465 95.4854 21.1451 94.9415 20.2797C94.3977 19.4142 93.6206 18.7198 92.6996 18.2764Z" fill="#0065A9"/>
<g filter="url(#filter0_d_22_2231)">
<path d="M92.6996 86.3951L74.7991 95.0139C73.7881 95.5005 72.6509 95.6609 71.5448 95.4729C70.4386 95.285 69.4182 94.7579 68.6247 93.9646L10.0249 40.535C8.44856 39.0978 8.45026 36.6164 10.0286 35.1816L14.8154 30.8302C15.4408 30.2617 16.2454 29.93 17.0897 29.8925C17.934 29.855 18.7649 30.1141 19.4382 30.6249L90.0061 84.159C92.3735 85.9549 95.7739 84.2666 95.7739 81.2948V81.5028C95.7739 82.525 95.4853 83.5263 94.9415 84.3918C94.3976 85.2573 93.6206 85.9516 92.6996 86.3951Z" fill="#007ACC"/>
</g>
<g filter="url(#filter1_d_22_2231)">
<path d="M74.8001 95.0153C73.7888 95.5016 72.6514 95.6618 71.5452 95.4735C70.439 95.2853 69.4185 94.758 68.625 93.9646C70.6286 95.9682 74.0548 94.549 74.0548 91.7153V12.9562C74.0548 10.1225 70.6286 8.70328 68.625 10.7069C69.4185 9.91342 70.4389 9.38608 71.5451 9.1978C72.6514 9.00952 73.7888 9.16959 74.8001 9.65588L92.6975 18.2635C93.619 18.7066 94.3966 19.4009 94.9409 20.2665C95.4852 21.132 95.774 22.1337 95.7742 23.1561V81.515C95.7742 82.5376 95.4854 83.5394 94.9411 84.4051C94.3968 85.2708 93.6191 85.9652 92.6975 86.4083L74.8001 95.015V95.0153Z" fill="#1F9CF0"/>
</g>
<path opacity="0.25" fill-rule="evenodd" clip-rule="evenodd" d="M70.4501 95.1815C71.1414 95.451 71.8807 95.5753 72.6221 95.5468C73.3635 95.5183 74.0911 95.3376 74.7597 95.0158L92.6463 86.4089C93.5675 85.9655 94.3448 85.271 94.8888 84.4053C95.4328 83.5396 95.7214 82.538 95.7212 81.5156V23.1567C95.7212 21.0696 94.526 19.1678 92.6466 18.2631L74.7597 9.65676C73.749 9.17048 72.6122 9.01038 71.5066 9.19862C70.4009 9.38686 69.3811 9.91412 68.5883 10.7074L34.3464 41.947L19.4313 30.6254C18.7586 30.1147 17.9282 29.8556 17.0843 29.8931C16.2405 29.9306 15.4364 30.2623 14.8116 30.8308L10.0279 35.1818C8.45051 36.6166 8.44881 39.098 10.0241 40.5352L22.9587 52.336L10.0241 64.1367C8.44881 65.5739 8.45051 68.0553 10.0279 69.4902L14.8119 73.8415C15.4367 74.4101 16.2408 74.742 17.0848 74.7795C17.9287 74.8171 18.7592 74.558 19.432 74.0472L34.3471 62.7253L68.5887 93.9648C69.1182 94.4951 69.7519 94.9094 70.4501 95.1815ZM74.0151 32.6138L48.0333 52.336L74.0151 72.0582V32.6138Z" fill="url(#paint0_linear_22_2231)"/>
</g>
</g>
<defs>
<filter id="filter0_d_22_2231" x="4.68575" y="25.7309" width="95.2457" height="73.9765" filterUnits="userSpaceOnUse" color-interpolation-filters="sRGB">
<feFlood flood-opacity="0" result="BackgroundImageFix"/>
<feColorMatrix in="SourceAlpha" type="matrix" values="0 0 0 0 0 0 0 0 0 0 0 0 0 0 0 0 0 0 127 0" result="hardAlpha"/>
<feOffset/>
<feGaussianBlur stdDeviation="2.079"/>
<feColorMatrix type="matrix" values="0 0 0 0 0 0 0 0 0 0 0 0 0 0 0 0 0 0 0.25 0"/>
<feBlend mode="overlay" in2="BackgroundImageFix" result="effect1_dropShadow_22_2231"/>
<feBlend mode="normal" in="SourceGraphic" in2="effect1_dropShadow_22_2231" result="shape"/>
</filter>
<filter id="filter1_d_22_2231" x="64.467" y="4.96303" width="35.4644" height="94.7452" filterUnits="userSpaceOnUse" color-interpolation-filters="sRGB">
<feFlood flood-opacity="0" result="BackgroundImageFix"/>
<feColorMatrix in="SourceAlpha" type="matrix" values="0 0 0 0 0 0 0 0 0 0 0 0 0 0 0 0 0 0 127 0" result="hardAlpha"/>
<feOffset/>
<feGaussianBlur stdDeviation="2.079"/>
<feColorMatrix type="matrix" values="0 0 0 0 0 0 0 0 0 0 0 0 0 0 0 0 0 0 0.25 0"/>
<feBlend mode="overlay" in2="BackgroundImageFix" result="effect1_dropShadow_22_2231"/>
<feBlend mode="normal" in="SourceGraphic" in2="effect1_dropShadow_22_2231" result="shape"/>
</filter>
<linearGradient id="paint0_linear_22_2231" x1="52.2825" y1="9.12124" x2="52.2825" y2="95.5507" gradientUnits="userSpaceOnUse">
<stop stop-color="white"/>
<stop offset="1" stop-color="white" stop-opacity="0"/>
</linearGradient>
<clipPath id="clip0_22_2231">
<rect width="86.8774" height="86.8774" fill="white" transform="translate(8.89844 8.89703)"/>
</clipPath>
</defs>
</svg>
