<svg width="105" height="105" viewBox="0 0 105 105" fill="none" xmlns="http://www.w3.org/2000/svg">
<rect width="104.672" height="104.672" rx="14" fill="white"/>
<rect x="0.25" y="0.25" width="104.172" height="104.172" rx="13.75" stroke="black" stroke-opacity="0.7" stroke-width="0.5"/>
<g clip-path="url(#clip0_22_2232)">
<path d="M23.3786 49.181H15.4621C15.2579 49.181 15.0923 49.3479 15.0923 49.5535V53.4495C15.0923 53.6551 15.2579 53.8225 15.4621 53.8225H18.5502V58.6628C18.5502 58.6628 17.8568 58.9008 15.9397 58.9008C13.6779 58.9008 10.5184 58.0689 10.5184 51.0755C10.5184 44.0806 13.8084 43.1602 16.897 43.1602C19.5705 43.1602 20.7223 43.6341 21.4555 43.8623C21.6856 43.9331 21.8988 43.7025 21.8988 43.4969L22.7818 39.7326C22.7818 39.6362 22.7493 39.5204 22.6405 39.4417C22.3431 39.2279 20.5272 38.2051 15.94 38.2051C10.6552 38.2051 5.23438 40.4682 5.23438 51.3483C5.23438 62.2284 11.4409 63.8496 16.6707 63.8496C21.0012 63.8496 23.6281 61.9869 23.6281 61.9869C23.7364 61.9267 23.7482 61.7745 23.7482 61.7047V49.5535C23.7482 49.3479 23.5829 49.181 23.3786 49.181ZM64.1753 39.5086C64.1758 39.4596 64.1666 39.4111 64.1484 39.3657C64.1301 39.3204 64.1031 39.2791 64.069 39.2443C64.0348 39.2095 63.9942 39.1818 63.9494 39.1629C63.9046 39.1439 63.8565 39.1341 63.8079 39.1339H59.3506C59.1468 39.1339 58.9816 39.3011 58.9816 39.5086L58.9829 48.1792H52.0352V39.5086C52.0352 39.3014 51.8712 39.1339 51.6674 39.1339H47.2099C47.0069 39.1339 46.8416 39.3011 46.8416 39.5086V62.9866C46.8411 63.0855 46.8796 63.1806 46.9487 63.251C47.0177 63.3214 47.1116 63.3615 47.2099 63.3623H51.6669C51.8706 63.3623 52.0346 63.1938 52.0346 62.9866V52.9445H58.9823L58.9703 62.9869C58.9698 63.0859 59.0084 63.1811 59.0776 63.2516C59.1468 63.322 59.2409 63.3619 59.3393 63.3626H63.8071C64.0113 63.3626 64.1745 63.1941 64.1748 62.9869V39.5086H64.1753Z" fill="#0E0E0E"/>
<path d="M31.791 42.5892C31.791 40.9738 30.5042 39.6682 28.9166 39.6682C27.3306 39.6682 26.043 40.9738 26.043 42.5892C26.043 44.2031 27.3306 45.5124 28.9166 45.5124C30.5042 45.5124 31.791 44.2034 31.791 42.5892ZM31.4721 58.034V47.1963C31.4721 46.9904 31.3071 46.8222 31.1034 46.8222H26.6602C26.4565 46.8222 26.2739 47.0338 26.2739 47.2395V62.7664C26.2739 63.2226 26.5564 63.3585 26.922 63.3585H30.9252C31.3644 63.3585 31.4721 63.1413 31.4721 62.7592V58.034Z" fill="#0E0E0E"/>
<path d="M81.1163 46.8579H76.6931C76.4901 46.8579 76.3251 47.0261 76.3251 47.2333V58.7452C76.3251 58.7452 75.2015 59.573 73.6063 59.573C72.0117 59.573 71.5882 58.8445 71.5882 57.2725V47.2333C71.5882 47.0261 71.4234 46.8579 71.2205 46.8579H66.7313C66.633 46.8586 66.5391 46.8986 66.47 46.9689C66.4009 47.0393 66.3624 47.1344 66.3628 47.2333V58.0326C66.3628 62.7017 68.9479 63.8441 72.5044 63.8441C75.422 63.8441 77.7743 62.2215 77.7743 62.2215C77.7743 62.2215 77.8862 63.0764 77.937 63.178C77.9877 63.2791 78.1198 63.3812 78.2624 63.3812L81.1182 63.3686C81.2164 63.3678 81.3102 63.328 81.3793 63.2577C81.4484 63.1875 81.487 63.0925 81.4867 62.9937L81.4854 47.2333C81.4858 47.1343 81.4472 47.0391 81.378 46.9688C81.3088 46.8984 81.2147 46.8585 81.1163 46.8579ZM93.2055 46.3305C90.6934 46.3305 88.9847 47.4587 88.9847 47.4587V39.5086C88.9847 39.3014 88.8202 39.1339 88.617 39.1339H84.1471C83.9439 39.1339 83.7789 39.3011 83.7789 39.5086V62.9866C83.7784 63.0857 83.817 63.1809 83.8862 63.2513C83.9554 63.3217 84.0495 63.3617 84.1479 63.3623H87.2491C87.3887 63.3623 87.4944 63.2899 87.5726 63.163C87.6495 63.0369 87.7609 62.0804 87.7609 62.0804C87.7609 62.0804 89.5886 63.8241 93.0489 63.8241C97.1109 63.8241 99.4405 61.75 99.4405 54.5131C99.44 47.2762 95.7195 46.3305 93.2055 46.3305ZM91.461 59.5588C89.9268 59.5116 88.8861 58.8111 88.8861 58.8111V51.3759C88.8861 51.3759 89.9127 50.7425 91.1723 50.6293C92.7651 50.4858 94.2998 50.97 94.2998 54.7948C94.2998 58.8279 93.6073 59.6238 91.461 59.5588ZM44.2826 46.8205H40.939L40.934 42.374C40.934 42.2058 40.8477 42.1216 40.6544 42.1216H36.098C35.9209 42.1216 35.8257 42.2 35.8257 42.3714V46.9661C35.8257 46.9661 33.5424 47.5211 33.3879 47.5658C33.311 47.5884 33.2434 47.6355 33.1953 47.7C33.1472 47.7645 33.1212 47.8429 33.1211 47.9236V50.8109C33.1211 51.0187 33.2859 51.1861 33.4896 51.1861H35.8257V58.1323C35.8257 63.2917 39.421 63.7983 41.8468 63.7983C42.9552 63.7983 44.2813 63.44 44.5004 63.3586C44.6328 63.3096 44.7097 63.1717 44.7097 63.0219L44.7133 59.8457C44.7133 59.6385 44.5397 59.4708 44.3438 59.4708C44.1489 59.4708 43.6504 59.5506 43.1373 59.5506C41.495 59.5506 40.9384 58.7821 40.9384 57.7869L40.9382 51.1858H44.2818C44.4855 51.1858 44.6508 51.0184 44.6508 50.8107V47.1946C44.6512 47.1456 44.642 47.0971 44.6236 47.0518C44.6053 47.0064 44.5782 46.9652 44.544 46.9304C44.5098 46.8956 44.4691 46.868 44.4242 46.8492C44.3793 46.8303 44.3312 46.8205 44.2826 46.8205Z" fill="#0E0E0E"/>
</g>
<defs>
<clipPath id="clip0_22_2232">
<rect width="94.5157" height="25.5603" fill="white" transform="translate(5.23438 38.2051)"/>
</clipPath>
</defs>
</svg>
