<svg width="105" height="105" viewBox="0 0 105 105" fill="none" xmlns="http://www.w3.org/2000/svg">
<g clip-path="url(#clip0_137_8547)">
<path d="M85.8994 -6.10352e-05H18.7722C8.40316 -6.10352e-05 0 8.40474 0 18.7721V85.8993C0 96.2683 8.4048 104.672 18.7722 104.672H85.8994C96.2684 104.672 104.672 96.2667 104.672 85.8993V18.7721C104.672 8.4031 96.2668 -6.10352e-05 85.8994 -6.10352e-05Z" fill="#001E36"/>
<path d="M36.5506 27.7836C50.2348 27.7836 57.9396 34.1948 57.9396 44.9236C57.9396 57.4547 47.497 62.4953 37.7037 62.4953H31.0783V76.034H17.6836V27.7836H36.5506ZM31.0783 39.2337V51.0453H36.9824C41.0875 51.0453 43.9692 49.3885 43.9692 45.2114C43.9692 41.3958 41.5209 39.2337 37.2719 39.2337H31.0783ZM60.6611 73.6576L60.7347 62.4953C64.5519 65.0156 69.8804 66.6004 73.5537 66.6004C76.0723 66.6004 77.227 65.8808 77.227 64.5839C77.227 63.1446 75.6406 62.5673 72.6165 61.6318C66.7844 59.9031 60.3749 57.5267 60.3749 49.8922C60.3749 42.1155 66.7844 37.7945 76.074 37.7945C80.4669 37.7945 84.0683 38.4421 87.2362 39.811L87.1643 50.4696C84.644 48.9567 79.6737 47.5878 76.4338 47.5878C74.0574 47.5878 73.1219 48.3074 73.1219 49.3885C73.1219 50.6854 74.2733 51.0453 77.7307 52.1247C84.4281 54.1412 90.046 56.3017 90.046 64.1521C90.046 71.6426 83.9243 76.6832 74.3453 76.6832C69.3047 76.6832 64.5503 75.8181 60.6611 73.6576Z" fill="#31A8FF"/>
</g>
<defs>
<clipPath id="clip0_137_8547">
<rect width="104.672" height="104.672" fill="white"/>
</clipPath>
</defs>
</svg>
