<svg width="300" height="76" viewBox="0 0 300 76" fill="none" xmlns="http://www.w3.org/2000/svg">
<mask id="mask0_336_9775" style="mask-type:luminance" maskUnits="userSpaceOnUse" x="0" y="0" width="300" height="76">
<path d="M0 0.000411987H300V75.9316H0V0.000411987Z" fill="white"/>
</mask>
<g mask="url(#mask0_336_9775)">
<path d="M4.99305 56.5689C5.2028 56.3433 5.45434 56.1641 5.74053 56.0357C6.02445 55.9065 6.3434 55.8406 6.68984 55.8406C6.96661 55.8406 7.23096 55.882 7.47497 55.9664C7.72802 56.0518 7.96035 56.1746 8.32072 56.2819L9.40898 54.7339L9.33104 54.6887C9.29602 54.6669 8.46231 54.1766 8.05713 54.0497C7.64291 53.919 7.19782 53.8531 6.73239 53.8531C6.32269 53.8531 5.92316 53.9073 5.54396 54.0147C5.15761 54.1246 4.80816 54.2715 4.47453 54.4646C4.14918 54.6552 3.84492 54.8902 3.57191 55.1628C3.3023 55.4347 3.06695 55.7423 2.87302 56.0741C2.68059 56.4036 2.52922 56.7632 2.42265 57.1424C2.31834 57.5216 2.26562 57.9226 2.26562 58.3319C2.26562 58.7435 2.31834 59.1449 2.42265 59.5219C2.52621 59.8965 2.67796 60.2535 2.87302 60.5853C3.06732 60.9125 3.3023 61.2168 3.57154 61.4883C3.84906 61.7613 4.15295 61.9959 4.47453 62.1856C4.8059 62.38 5.16477 62.5313 5.54208 62.6353C5.92429 62.7407 6.32495 62.7949 6.73239 62.7949C7.19669 62.7949 7.64593 62.7268 8.06805 62.5916C8.53574 62.4425 8.92774 62.2342 9.35551 61.8031L8.23261 60.2479L8.16407 60.2998C7.95998 60.455 7.7299 60.5762 7.47949 60.6606C7.23133 60.7461 6.96623 60.789 6.68984 60.789C6.34641 60.789 6.02671 60.7231 5.74053 60.5935C5.45321 60.464 5.20167 60.2859 4.99381 60.063C4.78482 59.8419 4.62064 59.5783 4.50466 59.279C4.3883 58.9841 4.32955 58.6629 4.32955 58.3218C4.32955 57.9795 4.3883 57.6556 4.5039 57.3585C4.61913 57.0625 4.78369 56.7967 4.99305 56.5689Z" fill="white"/>
<path d="M15.4608 55.8396C15.8087 55.8396 16.1307 55.9044 16.4165 56.0328C16.7061 56.1635 16.9599 56.3438 17.17 56.5679C17.3816 56.7968 17.5477 57.0642 17.6629 57.3624C17.7785 57.6641 17.8372 57.9879 17.8372 58.3253C17.8372 58.6665 17.7785 58.9926 17.6621 59.2942C17.5447 59.5939 17.3793 59.8587 17.17 60.0793C16.9602 60.3037 16.7064 60.4807 16.4165 60.6088C16.1303 60.7349 15.8087 60.7985 15.4608 60.7985C15.1117 60.7985 14.7909 60.7349 14.5069 60.6088C14.2207 60.483 13.9688 60.3049 13.7572 60.0804C13.549 59.8598 13.3829 59.5939 13.2639 59.2931C13.1472 58.988 13.0899 58.671 13.0899 58.3253C13.0899 57.9879 13.1491 57.6629 13.2639 57.3613C13.3814 57.0604 13.5467 56.7934 13.7564 56.569C13.9677 56.3427 14.2196 56.1635 14.5069 56.0351C14.789 55.9055 15.1106 55.8396 15.4608 55.8396ZM19.3254 56.0731C19.1326 55.7402 18.8976 55.4337 18.6258 55.1633C18.3501 54.8881 18.0447 54.6535 17.7175 54.4637C17.3989 54.2776 17.0389 54.1263 16.6477 54.0141C16.2647 53.9064 15.8656 53.8521 15.4608 53.8521C15.0514 53.8521 14.6515 53.9064 14.2708 54.0141C13.8849 54.124 13.535 54.2705 13.2014 54.4637C12.8704 54.6568 12.5661 54.8926 12.2992 55.1633C12.0292 55.4326 11.7934 55.7391 11.5991 56.0731C11.4056 56.4026 11.2546 56.7622 11.1488 57.1425C11.0437 57.5206 10.9902 57.9209 10.9902 58.3313C10.9902 58.744 11.0437 59.1439 11.1488 59.5209C11.2523 59.8956 11.4037 60.2529 11.5991 60.5847C11.7923 60.9108 12.0273 61.2146 12.2992 61.4865C12.571 61.758 12.8745 61.9919 13.2014 62.1847C13.532 62.379 13.8913 62.5304 14.2686 62.6347C14.6519 62.7397 15.0533 62.7939 15.4608 62.7939C15.8644 62.7939 16.2636 62.7397 16.6477 62.6347C17.0261 62.5315 17.3865 62.3801 17.7175 62.1847C18.041 61.9953 18.3467 61.7618 18.6265 61.4865C18.8965 61.2169 19.1311 60.9142 19.3254 60.5858C19.5178 60.2563 19.6692 59.8989 19.7769 59.522C19.8827 59.1428 19.9362 58.7418 19.9362 58.3313C19.9362 57.922 19.8827 57.5217 19.7769 57.1425C19.6688 56.7622 19.5167 56.4014 19.3254 56.0731Z" fill="white"/>
<path d="M23.6508 55.6023H24.5869C24.7052 55.6023 24.8121 55.6046 24.9111 55.6095L25.2354 55.6313C25.383 55.6521 25.5219 55.7006 25.65 55.7782C25.7731 55.8531 25.8793 55.9458 25.9648 56.0535C26.0532 56.1653 26.1218 56.2869 26.1677 56.4142C26.2159 56.5422 26.24 56.6752 26.24 56.8107C26.24 56.9504 26.2182 57.0883 26.1753 57.2212C26.1342 57.3492 26.0694 57.4708 25.984 57.5831C25.8989 57.6904 25.7938 57.7819 25.6725 57.8546C25.5464 57.9287 25.4052 57.9751 25.2516 57.9924C25.1815 58.0014 25.119 58.0086 25.0636 58.0097C25.0075 58.0142 24.945 58.0142 24.8742 58.0142H23.6508V55.6023ZM28.5276 62.6621L28.6929 62.6437L28.5732 62.3823L26.8331 59.278L26.9928 59.1842C27.2108 59.058 27.3987 58.9172 27.5674 58.7542C27.7448 58.5855 27.8935 58.4017 28.0212 58.1946C28.1473 57.9912 28.2471 57.7679 28.3183 57.5334C28.3891 57.2972 28.4248 57.0453 28.4248 56.7863C28.4248 56.4037 28.3503 56.0395 28.2023 55.7018C28.0543 55.3617 27.8502 55.0624 27.5956 54.8116C27.3366 54.557 27.0308 54.3537 26.6862 54.2068C26.3413 54.0588 25.9674 53.9839 25.5746 53.9839L21.5488 53.9779V62.6621H23.6489L23.6508 59.7001L24.7722 59.6583L26.42 62.6621H28.5276Z" fill="white"/>
<path d="M37.8891 62.6621V53.9779H35.8425L35.8436 59.2847L32.4786 53.9779H30.3379V62.6621H32.2873L32.2892 56.97L35.7807 62.6621H37.8891Z" fill="white"/>
<path d="M51.8436 54.0912L51.8749 53.985L49.7292 53.9809L47.6043 59.885L46.7013 57.1632L47.7398 53.985L47.6242 53.9839L45.526 53.9809L43.6572 59.9185L41.6019 53.9779C41.4276 53.9779 39.4355 53.9941 39.4355 53.9941C39.4355 53.9941 42.753 62.6124 42.8295 62.6621H44.5451L45.6221 59.7822L45.7264 60.0559L46.8707 62.6621H48.3653H48.4884C48.7554 61.9625 49.0894 61.1058 49.3711 60.4027C49.3711 60.4027 51.6361 54.8059 51.8436 54.0912Z" fill="white"/>
<path d="M54.8293 59.5199L54.8846 59.373C54.9603 59.1708 55.0364 58.9509 55.1136 58.7185L55.5749 57.2978C55.6536 57.0605 55.7304 56.841 55.8068 56.635L55.9149 56.3473L56.9764 59.5199H54.8293ZM56.8254 53.9799H54.9822L51.6602 62.6611H53.6951L54.1812 61.223H57.571L58.1743 62.6611H60.0055L60.1893 62.6393L56.8254 53.9799Z" fill="white"/>
<path d="M21.5475 67.5192L21.543 76.1963H23.5715L23.5655 67.5192H21.5475Z" fill="white"/>
<path d="M99.649 67.5192L99.6445 76.1963H101.672L101.667 67.5192H99.649Z" fill="white"/>
<path d="M31.1238 71.7933C30.8783 71.5911 30.5838 71.4175 30.2249 71.2616C29.8698 71.1099 29.4839 70.9653 29.0629 70.8267C28.8414 70.7529 28.6471 70.6859 28.4803 70.6233C28.312 70.562 28.1655 70.4927 28.045 70.4151C27.9192 70.3375 27.8247 70.2509 27.7611 70.1583C27.6933 70.06 27.6587 69.9421 27.6587 69.8058C27.6587 69.6718 27.691 69.555 27.7547 69.459C27.8172 69.3664 27.9004 69.2915 28.0021 69.2357C28.1011 69.1826 28.2137 69.1446 28.3391 69.1212C28.4615 69.0971 28.591 69.0855 28.7315 69.0855C28.8686 69.0855 29.0064 69.1062 29.1404 69.1469C29.2703 69.1871 29.3946 69.2369 29.5113 69.2994C29.6288 69.3585 29.7377 69.4255 29.8408 69.5016C29.941 69.5758 30.0329 69.6484 30.1707 69.7655C30.2001 69.7919 30.4185 69.955 30.4185 69.955L31.5685 68.6404C31.4691 68.4694 31.3949 68.3885 31.3072 68.3131C31.2179 68.2367 31.1129 68.1546 30.9942 68.0703C30.8745 67.9859 30.748 67.9061 30.6192 67.8289C30.3051 67.6564 29.9832 67.5269 29.6601 67.4448C29.3253 67.3661 28.9827 67.3258 28.6419 67.3258C28.1708 67.3258 27.7396 67.3845 27.3608 67.5005C26.9812 67.6146 26.6559 67.7765 26.393 67.9814C26.1257 68.1881 25.9261 68.4299 25.7838 68.7202C25.6399 69.0139 25.5699 69.3295 25.5699 69.6831C25.5699 70.0209 25.6279 70.3285 25.7416 70.5966C25.8538 70.8647 26.0266 71.1159 26.2567 71.3437C26.483 71.57 26.7764 71.7805 27.1296 71.9714C27.4783 72.1597 27.8831 72.3344 28.3696 72.5065C28.4784 72.5412 28.6061 72.5864 28.7578 72.6432C28.9104 72.6974 29.0572 72.7645 29.1965 72.8454C29.3359 72.9207 29.4613 73.0141 29.5674 73.123C29.6797 73.2397 29.7392 73.382 29.7392 73.5323C29.7392 73.6547 29.7203 73.7729 29.6827 73.8836C29.642 74.0003 29.5769 74.1024 29.4831 74.1924C29.389 74.2801 29.2658 74.3498 29.116 74.3969C28.9702 74.4481 28.7865 74.4722 28.5696 74.4722C28.3391 74.4722 28.1143 74.4319 27.9019 74.3521C27.6967 74.2745 27.4858 74.1634 27.2753 74.0226C27.1337 73.9265 27.0102 73.8316 26.8893 73.7243L26.5761 73.4513L26.4518 73.3357L25.1504 74.5784L25.6 75.0491C25.7054 75.1568 25.8572 75.3104 26.0093 75.4226C26.3799 75.6885 26.7888 75.9057 27.2245 76.0688C27.6583 76.2285 28.1011 76.3105 28.5402 76.3105C29.012 76.3105 29.4601 76.2413 29.871 76.1072C30.2788 75.9754 30.6395 75.7856 30.9423 75.5416C31.2435 75.2987 31.4823 75.0039 31.6532 74.6654C31.8238 74.3253 31.91 73.9393 31.91 73.5195C31.91 73.123 31.8407 72.7818 31.7029 72.5054C31.5625 72.2279 31.3678 71.9888 31.1238 71.7933Z" fill="white"/>
<path d="M54.7457 71.7933C54.5006 71.5922 54.2069 71.4175 53.8473 71.2616C53.4918 71.1099 53.1051 70.9653 52.6848 70.8267C52.4634 70.7529 52.2691 70.6859 52.1023 70.6233C51.9332 70.562 51.7871 70.4916 51.667 70.4151C51.5408 70.3375 51.4459 70.2509 51.3834 70.1572C51.3153 70.06 51.2806 69.9421 51.2806 69.8058C51.2806 69.6718 51.313 69.555 51.3766 69.459C51.4395 69.3664 51.5227 69.2915 51.6248 69.2357C51.7235 69.1826 51.836 69.1446 51.9611 69.1212C52.0834 69.0971 52.2137 69.0855 52.3542 69.0855C52.4905 69.0855 52.6283 69.1062 52.7628 69.1469C52.8923 69.1871 53.0166 69.2369 53.1333 69.2994C53.2508 69.3585 53.3596 69.4255 53.4635 69.5016C53.5637 69.5758 53.6556 69.6484 53.793 69.7655C53.8232 69.793 54.0412 69.955 54.0412 69.955L55.1905 68.6404C55.0914 68.4705 55.0176 68.3896 54.9295 68.3131C54.8406 68.2367 54.7348 68.1546 54.6162 68.0703C54.4972 67.9859 54.3699 67.9061 54.2411 67.8289C53.9267 67.6553 53.6048 67.5269 53.282 67.4448C52.9473 67.3661 52.6046 67.3258 52.2638 67.3258C51.7935 67.3258 51.3627 67.3845 50.9828 67.5005C50.6036 67.6146 50.2782 67.7765 50.0158 67.9814C49.748 68.1881 49.5481 68.4299 49.4057 68.7202C49.2626 69.0128 49.1926 69.3284 49.1926 69.6831C49.1926 70.0209 49.2502 70.3285 49.3635 70.5966C49.4765 70.8659 49.6497 71.117 49.8787 71.3437C50.1046 71.57 50.3983 71.7805 50.7516 71.9714C51.101 72.1597 51.5062 72.3344 51.9923 72.5065C52.1004 72.5412 52.2288 72.5864 52.3802 72.6432C52.5323 72.6974 52.6795 72.7645 52.8189 72.8454C52.9593 72.9219 53.0843 73.0153 53.1894 73.123C53.3016 73.2397 53.3611 73.382 53.3611 73.5323C53.3611 73.6558 53.3423 73.7737 53.305 73.8836C53.264 74.0003 53.1981 74.1024 53.1051 74.1924C53.0109 74.2801 52.8878 74.3498 52.7387 74.3969C52.5929 74.4481 52.4092 74.4722 52.1919 74.4722C51.9611 74.4722 51.7363 74.4319 51.5239 74.3521C51.3183 74.2745 51.1078 74.1634 50.8973 74.0226C50.7557 73.9265 50.6322 73.8316 50.5113 73.7243L50.0737 73.3357L48.8164 74.619C48.8224 74.6307 48.8224 74.6307 49.2208 75.0479C49.3266 75.1556 49.4792 75.3104 49.6313 75.4226C50.0026 75.6885 50.4111 75.9057 50.8464 76.0688C51.2802 76.2285 51.7227 76.3105 52.1621 76.3105C52.634 76.3105 53.0821 76.2413 53.4929 76.1072C53.9019 75.9754 54.2619 75.7845 54.5642 75.5416C54.8659 75.2976 55.1053 75.0028 55.2752 74.6654C55.4458 74.3253 55.532 73.9393 55.532 73.5195C55.532 73.123 55.4627 72.7818 55.3256 72.5054C55.1844 72.2279 54.989 71.9876 54.7457 71.7933Z" fill="white"/>
<path d="M88.3598 71.7933C88.1143 71.5911 87.8198 71.4175 87.4609 71.2616C87.1054 71.1099 86.7191 70.9653 86.2989 70.8267C86.0774 70.7529 85.8831 70.6859 85.7163 70.6233C85.548 70.562 85.4015 70.4927 85.281 70.4151C85.1549 70.3375 85.0596 70.2509 84.9971 70.1572C84.9289 70.06 84.8939 69.9421 84.8939 69.8058C84.8939 69.6729 84.9267 69.5562 84.9899 69.459C85.0532 69.3664 85.1364 69.2915 85.2381 69.2357C85.3371 69.1826 85.4497 69.1446 85.5751 69.1212C85.6975 69.0971 85.827 69.0855 85.9675 69.0855C86.1045 69.0855 86.2424 69.1062 86.3764 69.1469C86.5063 69.1871 86.6306 69.2369 86.7473 69.2994C86.8644 69.3585 86.9736 69.4255 87.0768 69.5016C87.177 69.5758 87.2689 69.6484 87.4067 69.7655C87.4361 69.7919 87.6545 69.955 87.6545 69.955L88.8037 68.6404C88.7055 68.4694 88.6309 68.3885 88.5432 68.3131C88.4539 68.2367 88.3488 68.1546 88.2302 68.0703C88.1105 67.9859 87.984 67.9061 87.8552 67.8289C87.54 67.6553 87.218 67.5269 86.8961 67.4448C86.5609 67.3661 86.2179 67.3258 85.8779 67.3258C85.4068 67.3258 84.9756 67.3845 84.5968 67.5005C84.2172 67.6146 83.8919 67.7765 83.629 67.9814C83.3605 68.1893 83.161 68.431 83.0198 68.7202C82.8759 69.0128 82.8059 69.3284 82.8059 69.6831C82.8059 70.0209 82.8639 70.3285 82.9776 70.5966C83.0898 70.8647 83.2626 71.1159 83.4927 71.3437C83.719 71.57 84.0124 71.7805 84.3656 71.9714C84.7143 72.1597 85.1191 72.3344 85.6056 72.5065C85.7144 72.5412 85.8421 72.5864 85.9938 72.6432C86.1463 72.6974 86.2932 72.7645 86.4325 72.8454C86.5722 72.9219 86.6976 73.0153 86.8034 73.123C86.9157 73.2397 86.9752 73.382 86.9752 73.5323C86.9752 73.6547 86.9563 73.7729 86.9187 73.8836C86.8788 74.0003 86.8129 74.1009 86.7191 74.1924C86.625 74.2801 86.5018 74.3498 86.3519 74.3969C86.2062 74.4481 86.0225 74.4722 85.8052 74.4722C85.5751 74.4722 85.3503 74.4319 85.1379 74.3521C84.9323 74.2745 84.7211 74.1634 84.5109 74.0226C84.3694 73.9265 84.2462 73.8316 84.1246 73.7243L83.8143 73.4536L83.6878 73.3357L82.4297 74.619C82.4361 74.6307 82.4361 74.6307 82.8413 75.0547C82.9471 75.1624 83.0962 75.3127 83.2453 75.4226C83.6159 75.6885 84.0248 75.9057 84.4605 76.0688C84.8939 76.2285 85.3371 76.3105 85.7762 76.3105C86.248 76.3105 86.6961 76.2413 87.107 76.1072C87.5148 75.9754 87.8755 75.7856 88.1783 75.5416C88.4795 75.2987 88.7183 75.0039 88.8892 74.6654C89.0598 74.3253 89.146 73.9393 89.146 73.5195C89.146 73.123 89.0767 72.7818 88.9389 72.5054C88.7985 72.2279 88.6038 71.9888 88.3598 71.7933Z" fill="white"/>
<path d="M35.6242 67.5192H33.5957V76.1963H39.1119V74.2909H35.6242V67.5192Z" fill="white"/>
<path d="M63.8762 53.9811H61.8477V62.6582H67.3639V60.7528H63.8762V53.9811Z" fill="white"/>
<path d="M71.1457 53.9811H69.1172V62.6582H74.6334V60.7528H71.1457V53.9811Z" fill="white"/>
<path d="M105.572 67.5192H103.543V76.1963H109.06V74.2909H105.572V67.5192Z" fill="white"/>
<path d="M112.662 67.5192H110.633V76.1963H116.149V74.2909H112.662V67.5192Z" fill="white"/>
<path d="M40.8652 76.1963H47.0585V74.3568L42.8919 74.3579L42.8957 72.6047H46.1521L46.1537 71.057L42.8957 71.0592V69.3549H47.0585V67.5192H40.8652V76.1963Z" fill="white"/>
<path d="M65.1643 74.333C64.819 74.333 64.4978 74.2694 64.2104 74.1436C63.9186 74.013 63.6659 73.8348 63.46 73.6138C63.251 73.392 63.0853 73.1273 62.9682 72.8264C62.8526 72.527 62.7934 72.2021 62.7934 71.8598C62.7934 71.5201 62.8526 71.1963 62.9682 70.8958C63.086 70.5927 63.2513 70.3257 63.46 70.1024C63.6697 69.8783 63.9224 69.6979 64.2104 69.5673C64.497 69.4377 64.8186 69.373 65.1643 69.373C65.5088 69.373 65.8308 69.4377 66.1215 69.5673C66.4111 69.6991 66.6645 69.8795 66.8739 70.1012C67.084 70.3279 67.2493 70.5949 67.3656 70.8958C67.4812 71.1952 67.5404 71.519 67.5404 71.8598C67.5404 72.2032 67.4812 72.5282 67.3649 72.8275C67.2482 73.1262 67.0828 73.3909 66.8731 73.6138C66.666 73.836 66.4129 74.0141 66.12 74.1421C65.83 74.2694 65.5088 74.333 65.1643 74.333ZM69.0282 69.6064C68.8354 69.2724 68.6 68.9659 68.3293 68.6967C68.0559 68.4237 67.7505 68.1891 67.4225 67.9982C67.0938 67.8076 66.7334 67.6562 66.3504 67.5474C65.9701 67.4408 65.5706 67.3866 65.1643 67.3866C64.7538 67.3866 64.3532 67.4408 63.974 67.5474C63.5929 67.6562 63.2333 67.8076 62.9057 67.9982C62.575 68.1902 62.2708 68.4259 62.0015 68.6978C61.7338 68.9648 61.4984 69.2713 61.3026 69.6053C61.1072 69.9408 60.9558 70.3004 60.8515 70.677C60.7465 71.0588 60.6934 71.4587 60.6934 71.8658C60.6934 72.2717 60.7465 72.6716 60.8515 73.0554C60.957 73.4323 61.1083 73.7897 61.3026 74.1191C61.4984 74.4498 61.7338 74.7529 62.0019 75.0199C62.2738 75.2914 62.578 75.5264 62.906 75.718C63.2351 75.9101 63.594 76.0626 63.9728 76.1691C64.352 76.2731 64.7527 76.3262 65.1643 76.3262C65.5725 76.3262 65.9712 76.2731 66.3504 76.1691C66.7304 76.0626 67.0911 75.9112 67.4225 75.718C67.749 75.5264 68.054 75.2914 68.3293 75.0199C68.6015 74.748 68.8369 74.4453 69.0282 74.1203C69.2202 73.7919 69.3716 73.4334 69.4797 73.0565C69.5862 72.6762 69.6404 72.2763 69.6404 71.8658C69.6404 71.4554 69.5862 71.0551 69.4797 70.6759C69.3723 70.2967 69.2202 69.9371 69.0282 69.6064Z" fill="white"/>
<path d="M71.2344 76.1963H73.3356V73.1936H76.2182V71.4305H73.3356V69.3549H77.1765V67.5192H71.2344V76.1963Z" fill="white"/>
<path d="M96.3555 73.8343C96.1544 73.9857 95.9236 74.1085 95.6709 74.1962C95.4178 74.2805 95.152 74.3223 94.8809 74.3223C94.539 74.3223 94.22 74.2576 93.9319 74.128C93.6461 73.9996 93.3946 73.8215 93.1852 73.5975C92.9743 73.3696 92.8094 73.106 92.6957 72.8135C92.5793 72.5186 92.5202 72.1959 92.5202 71.8536C92.5202 71.5117 92.5793 71.189 92.6949 70.893C92.8105 70.597 92.9755 70.33 93.1852 70.1034C93.3938 69.8789 93.6454 69.6985 93.9327 69.5679C94.22 69.4383 94.539 69.3736 94.8809 69.3736C95.1558 69.3736 95.4201 69.4154 95.6664 69.4997C95.8983 69.5784 96.1156 69.6906 96.3532 69.8142L96.4692 69.8744L97.5232 68.2812L97.4208 68.1482C97.0499 67.902 96.6548 67.7122 96.2474 67.5838C95.8351 67.4535 95.39 67.3876 94.9242 67.3876C94.513 67.3876 94.1131 67.4418 93.7354 67.548C93.3599 67.6534 93.0003 67.8048 92.6659 67.998C92.3395 68.1885 92.0352 68.4235 91.7637 68.6973C91.496 68.9658 91.2606 69.2719 91.0637 69.6074C90.8697 69.9414 90.7184 70.301 90.6144 70.678C90.5097 71.0527 90.457 71.4526 90.457 71.8664C90.457 72.2791 90.5097 72.6805 90.6144 73.0563C90.7184 73.4321 90.8697 73.7891 91.064 74.1197C91.2568 74.4447 91.4918 74.7479 91.7629 75.0205C92.0367 75.2935 92.3406 75.5281 92.6667 75.719C92.9981 75.9122 93.3573 76.0636 93.7342 76.1697C94.1119 76.2741 94.5118 76.3271 94.9242 76.3271C95.3885 76.3271 95.8373 76.259 96.2591 76.1261C96.7313 75.9754 97.1233 75.7664 97.5465 75.3338L96.4236 73.7835L96.3555 73.8343Z" fill="white"/>
<path d="M123.989 67.5203L121.756 67.5098L121.596 67.6175L121.572 67.6416L120.025 70.9519L118.34 67.5192H116.074L118.965 72.6619V76.1963H121.089L121.078 72.6239L123.989 67.5203Z" fill="white"/>
<path d="M86.3095 58.2513V59.8562H86.8555L86.8491 60.009C86.8408 60.1984 86.7967 60.3698 86.7192 60.5155C86.6442 60.6586 86.5437 60.7814 86.4205 60.8808C86.2967 60.9802 86.1562 61.054 86.0007 61.1026C85.8486 61.1523 85.6866 61.1768 85.5191 61.1768C85.266 61.1768 85.0514 61.1316 84.883 61.0427C84.717 60.9535 84.5826 60.839 84.4839 60.7049C84.3871 60.5709 84.3201 60.4251 84.2843 60.2715C84.2485 60.1258 84.2301 59.9857 84.2301 59.8528C84.2301 59.7835 84.2391 59.6969 84.2591 59.5926C84.2779 59.4841 84.3137 59.3798 84.3683 59.2736C84.4218 59.1708 84.4959 59.0804 84.5897 59.0055C84.6891 58.9185 84.8149 58.8771 84.9659 58.876L85.2589 58.8251L85.385 57.471C85.2415 57.442 85.1214 57.3833 85.019 57.2918C84.9301 57.2108 84.8548 57.1174 84.7972 57.0154C84.7403 56.9126 84.7023 56.8192 84.6797 56.7299C84.653 56.6271 84.6421 56.5635 84.6421 56.5172C84.6421 56.4396 84.6518 56.3507 84.6718 56.257C84.6936 56.1564 84.7336 56.0627 84.7908 55.9795C84.8514 55.8906 84.9328 55.8175 85.0393 55.7588C85.1451 55.7008 85.2803 55.6722 85.4415 55.6722C85.5774 55.6722 85.6994 55.6918 85.8022 55.7298C85.9032 55.7705 85.986 55.8281 86.0496 55.9011C86.1129 55.9727 86.1585 56.0593 86.1841 56.1564L86.2285 56.301C86.2492 56.3658 86.2726 56.4362 86.3765 56.5752L87.7637 56.3982C87.7637 55.9599 87.6963 55.5867 87.5627 55.2881C87.4305 54.9921 87.2512 54.7492 87.0291 54.5643C86.8054 54.3795 86.5448 54.2431 86.2537 54.1599C85.9498 54.0752 85.6365 54.0315 85.3232 54.0315C85.0081 54.0315 84.6989 54.0929 84.4044 54.2119C84.1156 54.3252 83.8532 54.4894 83.6235 54.6995C83.3983 54.91 83.2156 55.1586 83.0808 55.4383C82.9464 55.717 82.8782 56.0235 82.8782 56.3496C82.8782 56.6445 82.9343 56.9209 83.0462 57.1683C83.1595 57.4202 83.3045 57.6386 83.4773 57.819L83.5651 57.9116L83.4604 57.9831C83.2812 58.1082 83.12 58.2377 82.9739 58.3812C82.8327 58.5152 82.7088 58.6711 82.606 58.8458C82.5032 59.0179 82.4234 59.2168 82.3684 59.4344C82.313 59.6539 82.2852 59.9119 82.2852 60.2007C82.2852 60.5927 82.368 60.9595 82.5314 61.2878C82.7005 61.623 82.9197 61.905 83.2021 62.149C83.4841 62.3885 83.8178 62.5791 84.1924 62.7131C84.5671 62.8487 84.9689 62.918 85.3861 62.918C85.6388 62.918 85.8919 62.9052 86.1475 62.8811C86.4021 62.8543 86.6457 62.8091 86.8811 62.7421C87.1112 62.6785 87.3333 62.5862 87.5408 62.468C87.7385 62.3561 87.92 62.2044 88.0801 62.0161C88.2397 61.8263 88.3704 61.6 88.469 61.3409C88.5715 61.0724 88.6355 60.7558 88.6603 60.3973L88.6916 59.8562H89.9832V58.2513C89.9109 58.2539 86.3095 58.2513 86.3095 58.2513Z" fill="white"/>
<path d="M244.38 62.0422C244.881 63.2853 241.645 65.2174 243.497 71.3922C245.363 69.1958 247.236 67.1164 246.203 63.9337C245.745 62.5246 247.214 61.3324 248.446 61.3313C249.006 61.3309 249.188 61.6789 249.539 62.5337C250.531 64.842 250.623 68.3139 250.399 71.564C251.872 69.282 252.951 65.94 253.06 62.5758C253.072 61.6352 253.43 61.2929 253.99 61.2925C255.306 61.291 257.028 62.0874 257.012 62.772C256.735 67.7897 250.963 73.9736 247.877 76.236L247.43 76.2363C247.504 74.0692 247.854 71.6931 247.537 69.6126C245.812 71.8377 242.718 74.2601 240.849 76.2288L240.435 76.2292C240.246 76.2235 240.05 71.3245 240.025 70.9069C239.977 70.1052 239.942 69.3005 239.871 68.5006C239.788 67.5551 239.619 66.6766 239.604 65.7035C239.584 64.427 240.157 62.6432 240.885 61.5911C241.581 60.5853 243.805 60.6143 244.38 62.0422Z" fill="white"/>
<path d="M145.647 68.6286L150.056 61.1852C150.33 60.7148 150.546 59.8529 150.535 59.279L150.525 58.6784C150.456 56.1464 149.675 55.4946 147.904 55.4178C146.162 55.498 145.378 56.1509 145.32 58.6833L145.131 68.4724C145.116 69.047 145.347 69.099 145.647 68.6286ZM149.467 75.9607L150.384 62.3853C150.426 61.8114 150.22 61.759 149.92 62.229L141.673 76.0198C141.573 76.1764 141.319 76.3335 141.114 76.3338L139.806 76.335C139.601 76.335 139.444 76.1523 139.441 75.9697L139.704 58.6882C139.76 55.9992 139.058 55.426 137.365 55.4276C137.058 55.4276 136.98 55.3752 136.977 55.1926C136.973 55.0099 137.049 54.9316 137.357 54.9312C138.639 54.9301 140.641 55.0325 141.41 55.0318L143.487 55.0299C144.23 55.0295 146.024 54.9497 147.459 54.9222L147.613 54.9218C147.716 54.9218 147.818 54.9218 147.921 54.9218L148.229 54.9215C148.28 54.9215 148.357 54.9215 148.408 54.9215C149.819 54.9463 151.59 55.0227 152.333 55.022L154.333 55.0201C155.154 55.0194 157.254 54.9132 158.588 54.912C158.896 54.9117 158.999 54.964 159.002 55.1466C159.006 55.3296 158.904 55.408 158.597 55.4083C156.827 55.4099 155.966 55.9845 155.782 58.6739L155.124 68.0461C155.083 68.62 155.264 68.6983 155.537 68.202L161.183 58.1727C162.502 55.8485 162.212 55.405 160.417 55.4065C160.11 55.4068 160.006 55.3545 160.003 55.1719C160 54.9892 160.101 54.9105 160.409 54.9105C161.28 54.9098 162.077 55.0137 163.205 55.0126C164.026 55.0118 164.896 54.9064 165.64 54.9056C165.87 54.9056 165.974 54.9576 165.977 55.1406C165.98 55.3232 165.879 55.4016 165.648 55.4019C164.135 55.4031 162.989 55.8482 161.67 58.1723L151.673 76.0107C151.573 76.1674 151.319 76.3244 151.114 76.3248L149.806 76.3259C149.602 76.3259 149.445 76.1437 149.467 75.9607Z" fill="white"/>
<path d="M163.317 67.7257C165.586 66.9929 166.307 65.661 166.279 64.0685C166.255 62.6587 165.887 62.1108 165.348 62.1112C164.143 62.1123 163.132 64.4628 162.535 66.9692C162.416 67.5178 162.756 67.8831 163.317 67.7257ZM157.456 71.3335C157.37 66.3738 161.36 61.3581 165.565 61.3543C167.694 61.3524 169.304 62.5258 169.335 64.3005C169.363 65.9193 167.157 67.357 163.323 68.039C162.76 68.1181 162.231 68.6667 162.138 69.2146C162.072 69.8672 162.031 70.4418 162.04 70.9637C162.074 72.8955 163.24 73.5993 164.266 73.5985C165.676 73.597 168.355 71.3539 169.333 68.5858C169.418 68.3459 169.541 68.2408 169.643 68.2333C169.775 68.2243 169.874 68.3764 169.821 68.6117C169.464 70.2042 166.031 76.3117 162.134 76.3154C159.492 76.3177 157.514 74.6488 157.456 71.3335Z" fill="white"/>
<path d="M219.106 67.7257C221.375 66.9929 222.096 65.661 222.068 64.0685C222.044 62.6587 221.676 62.1108 221.137 62.1112C219.932 62.1123 218.921 64.4628 218.324 66.9692C218.205 67.5178 218.545 67.8831 219.106 67.7257ZM213.246 71.3335C213.159 66.3738 217.149 61.3581 221.354 61.3543C223.483 61.3524 225.093 62.5258 225.124 64.3005C225.152 65.9193 222.946 67.357 219.112 68.039C218.549 68.1181 218.02 68.6667 217.927 69.2146C217.861 69.8672 217.82 70.4418 217.829 70.9637C217.863 72.8955 219.029 73.5993 220.055 73.5985C221.465 73.597 224.144 71.3539 225.122 68.5858C225.207 68.3459 225.33 68.2408 225.432 68.2333C225.564 68.2243 225.663 68.3764 225.61 68.6117C225.253 70.2042 221.82 76.3117 217.923 76.3154C215.282 76.3177 213.304 74.6488 213.246 71.3335Z" fill="white"/>
<path d="M175.636 73.0674C176.815 73.0663 178.739 70.1672 179.343 68.052C179.899 66.0675 179.931 64.971 179.922 64.5014C179.9 63.2482 179.605 62.4917 178.939 62.4921C177.118 62.494 174.786 68.4738 174.839 71.5017C174.857 72.5459 175.123 73.0678 175.636 73.0674ZM170.285 72.0805C170.197 67.0684 174.305 61.4261 178.177 61.4227C179.869 61.4212 180.48 62.6736 180.76 64.0307C180.847 64.605 181.088 64.6396 181.258 64.0914L181.477 63.3733C181.673 62.825 181.94 62.5414 182.684 62.5407C184.299 62.5395 185.172 61.1553 185.967 61.1546C186.3 61.1542 186.443 61.3519 186.319 61.7544C185.612 64.065 184.898 66.3131 184.22 68.6108L183.626 70.5509C182.994 72.5094 182.974 73.348 183.538 73.3472C184.385 73.3728 185.427 71.388 186.265 69.4031C186.413 69.0898 186.488 68.9855 186.616 68.9855C186.796 68.9851 186.901 69.1414 186.73 69.6117C186.118 71.2829 184.206 76.3751 180.795 76.3258C178.743 76.2754 178.337 75.1404 178.282 74.5164C178.204 73.6323 178.75 72.5418 179.307 70.4631L179.477 69.9081C179.574 69.5944 179.496 69.4875 179.342 69.4875C179.214 69.4878 179.088 69.5662 178.964 69.8275C177.629 72.7003 176.076 76.2776 173.384 76.2803C171.511 76.2818 170.328 74.5341 170.285 72.0805Z" fill="white"/>
<path d="M191.645 72.5569C191.505 73.1409 191.896 73.5276 192.383 73.5273C193.357 73.5265 194.357 72.189 195.443 69.7605C195.541 69.5256 195.745 69.4469 195.822 69.4469C195.95 69.4469 196.004 69.5772 195.931 69.8121C195.228 72.1882 192.376 76.263 189.504 76.2656C187.684 76.2671 186.872 75.302 186.846 73.8146C186.827 72.744 187.302 71.3613 187.85 69.6107L189.839 63.0303C189.937 62.7433 189.955 62.3253 189.442 62.3261L188.108 62.3272C187.877 62.3276 187.798 62.2233 187.797 62.145C187.794 61.9883 187.945 61.8313 188.202 61.8313C191.612 61.8279 194.052 60.1289 195.445 57.6997C195.595 57.4911 195.773 57.3864 195.927 57.3864C196.106 57.3864 196.211 57.5163 196.163 57.6993L195.039 61.3549C194.917 61.7206 195.027 62.0858 195.566 62.0855C196.54 62.0847 197.434 61.875 198.383 61.8742C198.587 61.8742 198.693 62.0309 198.695 62.1871C198.699 62.3961 198.549 62.6048 198.267 62.6051L195.269 62.6078C194.936 62.6081 194.606 62.8175 194.461 63.2875L192.469 69.7816C192.226 70.5129 191.738 72.172 191.645 72.5569Z" fill="white"/>
<path d="M225.927 65.1231C225.766 64.9803 225.97 64.5273 226.065 64.3568C227.018 62.6295 228.597 61.2031 230.423 61.2708C232.476 61.3473 233.084 62.4171 233.079 63.6179C233.069 64.5055 232.671 65.2108 231.912 67.274L230.835 70.2243C230.712 70.564 231.2 70.5636 231.323 70.2499C233.851 63.7742 235.141 61.319 237.578 61.3168C238.783 61.3157 239.308 62.0202 239.323 62.8818C239.346 64.1869 238.443 65.3622 237.238 65.3633C236.571 65.3641 236.206 64.9988 235.693 64.9992C235 64.9999 233.299 65.9673 231.263 71.2158C230.702 72.861 231.144 74.0359 231.126 74.4795C231.12 75.5756 229.695 76.2557 228.516 76.2568C226.721 76.2583 225.347 75.3983 226.173 72.7868L227.6 67.0428C228.123 65.0673 228.191 64.1971 227.627 64.1711C227.459 64.1662 227.29 64.1651 227.062 64.3978C226.249 65.2236 226.082 65.2601 225.927 65.1231Z" fill="white"/>
<path d="M261.88 67.6769C264.149 66.9441 264.87 65.6122 264.842 64.0197C264.817 62.6099 264.449 62.062 263.911 62.0623C262.705 62.0635 261.695 64.414 261.097 66.9204C260.979 67.469 261.319 67.8339 261.88 67.6769ZM256.019 71.2847C255.933 66.325 259.923 61.3092 264.128 61.3055C266.256 61.3036 267.866 62.4766 267.897 64.2517C267.925 65.8705 265.72 67.3078 261.885 67.9902C261.323 68.0692 260.793 68.6179 260.7 69.1658C260.635 69.8184 260.594 70.393 260.603 70.9149C260.636 72.8467 261.803 73.5505 262.828 73.5497C264.239 73.5482 266.918 71.305 267.895 68.5366C267.981 68.2967 268.103 68.192 268.206 68.1845C268.337 68.1754 268.437 68.3276 268.383 68.5625C268.026 70.1554 264.594 76.2628 260.696 76.2666C258.055 76.2689 256.077 74.5999 256.019 71.2847Z" fill="white"/>
<path d="M201.377 55.7319C200.899 55.7198 200.19 55.7733 199.829 55.7733C199.52 55.7733 199.337 55.6961 199.332 55.5417C199.326 55.3613 199.451 55.2325 199.863 55.2325C200.79 55.2325 202.291 54.9889 203.466 54.6801C204.565 54.4226 205.56 54.1394 205.998 54.1394C206.359 54.1394 206.417 54.3198 206.3 54.6801C205.574 56.8951 204.599 59.3427 203.856 61.7896L201.83 68.2811C201.738 68.6155 201.769 68.7703 201.949 68.7703C202.129 68.7703 202.227 68.6155 202.372 68.3067C203.857 64.9324 205.821 61.2488 208.707 61.2488C210.535 61.2488 211.447 62.3303 211.492 63.6957C211.528 64.7776 210.868 66.6066 209.557 70.5992C208.821 72.4794 208.877 73.4072 209.445 73.4329C210.297 73.51 211.446 71.6295 212.387 69.7234C212.533 69.4402 212.632 69.337 212.761 69.337C212.942 69.3626 213.051 69.5174 212.859 69.9553C212.166 71.5783 209.983 76.4465 206.547 76.1629C204.481 76.0089 203.905 74.9267 203.943 73.742C203.991 72.8658 204.25 72.119 205.008 70.1097C206.022 67.3021 206.731 65.3955 206.715 64.9068C206.704 64.546 206.543 64.3653 206.26 64.3653C205.435 64.3653 203.469 65.6535 201.635 70.9596C201.097 72.5826 201.315 73.742 201.304 74.1799C201.314 75.2614 199.894 75.9313 198.709 75.9313C196.906 75.9313 195.512 75.0814 196.303 72.5054L200.6 58.3636C200.945 57.043 201.579 55.7371 201.377 55.7319Z" fill="white"/>
<path d="M274.028 72.9795C275.207 72.9784 277.131 70.0793 277.736 67.9641C278.291 65.9797 278.323 64.8835 278.315 64.4135C278.293 63.1603 277.998 62.4038 277.331 62.4042C275.511 62.4061 273.179 68.3859 273.232 71.4138C273.25 72.458 273.515 72.9799 274.028 72.9795ZM268.677 71.9926C268.59 66.9806 272.697 61.3382 276.569 61.3348C278.261 61.3333 278.873 62.5857 279.153 63.9428C279.24 64.5171 279.48 64.5517 279.65 64.0035L279.87 63.2854C280.066 62.7371 280.332 62.4535 281.076 62.4528C282.691 62.4517 283.565 61.0674 284.36 61.0667C284.693 61.0663 284.835 61.264 284.712 61.6665C284.005 63.9771 283.291 66.2252 282.613 68.5229L282.019 70.463C281.386 72.4215 281.367 73.2601 281.931 73.2593C282.777 73.2849 283.82 71.3001 284.657 69.3152C284.805 69.0019 284.881 68.8976 285.009 68.8976C285.188 68.8972 285.294 69.0535 285.122 69.5238C284.51 71.195 282.599 76.2873 279.188 76.2379C277.135 76.1875 276.73 75.0525 276.675 74.4286C276.596 73.5444 277.143 72.4539 277.7 70.3752L277.869 69.8202C277.967 69.5065 277.889 69.3996 277.735 69.3996C277.607 69.4 277.48 69.4783 277.357 69.7396C276.022 72.6124 274.468 76.1897 271.776 76.1924C269.904 76.1939 268.72 74.4462 268.677 71.9926Z" fill="white"/>
<path d="M285.812 65.0713C285.651 64.929 285.855 64.4756 285.949 64.305C286.902 62.5777 288.481 61.1509 290.307 61.2191C292.36 61.2955 292.968 62.3653 292.964 63.5662C292.954 64.4537 292.555 65.159 291.797 67.2222L290.72 70.1726C290.597 70.5122 291.085 70.5119 291.207 70.1982C293.736 63.7225 295.026 61.2673 297.462 61.265C298.668 61.2639 299.193 61.9684 299.208 62.83C299.231 64.1352 298.328 65.3104 297.123 65.3115C296.456 65.3123 296.091 64.947 295.578 64.9474C294.885 64.9482 293.184 65.9156 291.147 71.1641C290.586 72.8093 291.029 73.9841 291.011 74.4277C291.004 75.5239 289.58 76.2039 288.401 76.2051C286.606 76.2066 285.232 75.3465 286.058 72.7351L287.485 66.991C288.008 65.0156 288.076 64.1453 287.512 64.1194C287.343 64.1145 287.175 64.1133 286.946 64.346C286.134 65.1718 285.967 65.2084 285.812 65.0713Z" fill="white"/>
<path d="M299.209 13.7373V5.71392C293.346 6.83419 287.692 9.55823 283.344 12.1339C290.289 12.1633 295.443 12.8524 299.209 13.7373Z" fill="#142A74"/>
<path d="M287.32 0.232191C285.524 0.0883446 283.49 0.000606537 281.177 0.000606537C276.817 0.000606537 273.428 0.30788 270.822 0.730005V9.34082C274.309 6.83443 280.24 3.0146 287.32 0.232191Z" fill="#142A74"/>
<path d="M270.822 12.9238C273.076 12.5913 275.515 12.3635 278.125 12.24C283.036 8.97672 290.885 4.57359 299.198 3.1581L299.196 3.14982H299.193C299.029 3.02894 297.362 1.86236 292.947 0.983462C282.495 4.10628 270.822 12.9238 270.822 12.9238Z" fill="#E50012"/>
<path d="M227.088 29.6661V37.6895C232.95 36.5692 238.605 33.8451 242.953 31.2695C236.007 31.2401 230.854 30.551 227.088 29.6661Z" fill="#142A74"/>
<path d="M238.973 43.1717C240.768 43.316 242.803 43.4033 245.115 43.4033C249.476 43.4033 252.864 43.096 255.47 42.6739V34.0631C251.983 36.5695 246.053 40.3893 238.973 43.1717Z" fill="#142A74"/>
<path d="M255.471 30.4796C253.217 30.8121 250.778 31.0399 248.169 31.1634C243.257 34.4267 235.409 38.8298 227.096 40.2453L227.098 40.2536H227.101C227.264 40.3744 228.931 41.541 233.347 42.4199C243.799 39.2971 255.471 30.4796 255.471 30.4796Z" fill="#E50012"/>
<path d="M282.887 15.0336C281.402 15.0336 280.012 15.066 278.702 15.1225C276.829 15.2038 275.127 15.3364 273.59 15.5077C273.2 15.5514 272.824 15.5977 272.455 15.6459C271.075 15.8255 269.835 16.0353 268.726 16.2635C268.182 16.3749 267.666 16.4905 267.183 16.6095V15.1044V12.1575V1.50418C264.885 2.16015 261.233 4.25646 259.113 4.7957V19.9093C257.047 20.6858 252.341 21.9315 243.408 21.9315C233.434 21.9315 228.73 20.3785 227.088 19.6597V26.637C230.6 27.5656 235.829 28.3692 243.408 28.3692C250.559 28.3692 255.614 27.6537 259.113 26.7932V42.5098C261.004 41.9973 265.47 39.6547 267.183 39.2186V23.4934C269.25 22.717 273.955 21.4713 282.887 21.4713C292.862 21.4713 297.565 23.0243 299.208 23.7427V16.7658C295.696 15.8372 290.467 15.0336 282.887 15.0336Z" fill="#E50012"/>
<path d="M255.472 15.6494V5.57114C252.866 5.99326 249.477 6.30054 245.116 6.30054C241.976 6.30054 239.343 6.1405 237.139 5.89347C240.341 9.22566 246.029 13.4224 255.472 15.6494Z" fill="#142A74"/>
<path d="M227.088 7.66953V16.1391C228.515 16.7925 233.336 18.7046 241.367 18.9912C234.001 15.3875 229.547 10.8688 227.088 7.66953Z" fill="#142A74"/>
<path d="M233.5 5.34736C228.968 4.46545 227.088 3.15013 227.088 3.15013C227.088 3.15013 232.834 13.6972 246.742 18.9619C250.853 18.7932 253.672 18.3297 255.473 17.9008C243.189 15.1835 236.616 9.19317 233.5 5.34736Z" fill="#E50012"/>
<path d="M270.822 27.8456V37.9238C273.428 37.5017 276.816 37.1944 281.177 37.1944C284.318 37.1944 286.951 37.3545 289.155 37.6015C285.952 34.2693 280.265 30.0725 270.822 27.8456Z" fill="#142A74"/>
<path d="M299.208 35.8262V27.3566C297.782 26.7032 292.961 24.7911 284.93 24.5041C292.296 28.1082 296.749 32.6269 299.208 35.8262Z" fill="#142A74"/>
<path d="M292.795 38.1475C297.327 39.0294 299.207 40.3447 299.207 40.3447C299.207 40.3447 293.461 29.7976 279.553 24.5329C275.442 24.7016 272.623 25.1652 270.822 25.5941C283.106 28.3113 289.679 34.3017 292.795 38.1475Z" fill="#E50012"/>
<path d="M101.878 33.5661C101.407 35.287 101.203 37.0945 101.196 38.902C101.195 39.1837 101.191 39.4657 101.191 39.7474C101.194 41.9006 98.3566 43.1677 95.9978 43.1127C93.1781 43.0472 90.8977 42.0196 90.8239 39.0952C90.8032 38.2743 90.9839 37.305 91.3608 35.9803L99.7826 8.23339C100.921 4.5687 101.728 3.16187 101.339 3.16187C99.9005 3.16187 98.9843 3.26128 98.2666 3.24434C97.6517 3.23003 97.289 3.06773 97.2815 2.76046C97.2725 2.40159 97.5217 2.15042 98.3423 2.16963C100.188 2.21256 103.203 1.5965 105.546 1.03618C107.738 0.574516 109.723 0.0571251 110.594 0.0774574C111.312 0.0940285 111.424 0.455524 111.185 1.1676C109.707 5.54211 107.728 10.3674 106.21 15.2028L102.45 26.6514C102.262 27.3126 102.425 27.6556 102.783 27.6839C103.004 27.7012 103.205 27.5818 103.307 27.528L103.421 27.4546C106.327 25.641 107.559 22.9016 108.507 21.497C109.258 20.385 110.01 19.0584 109.57 17.7416C111.375 17.0882 113.381 16.9327 115.314 17.2965C116.063 17.4373 116.846 17.6821 117.36 18.2552C118.163 19.1503 118.023 20.5202 117.544 21.5651C116.78 23.2344 115.176 26.1479 113.566 27.4813L113.239 27.7743C112.183 28.5692 111.642 29.4801 112.464 31.6012C113.235 33.7213 115.575 37.1081 117.318 37.1487C119.163 37.1917 120.84 34.5648 122.827 30.0476C123.313 28.9823 124.194 29.3618 123.854 30.1232C120.698 39.1246 114.967 43.5028 111.583 43.4238C107.328 43.3247 106.809 39.0067 105.656 33.9032C105.339 32.5381 105.099 30.5149 104.501 29.2666C104.138 28.5078 103.287 30.0954 103.158 30.3326C102.605 31.3576 102.185 32.4436 101.878 33.5661Z" fill="white"/>
<path d="M49.5882 41.5572C53.4848 41.5572 58.1079 26.1283 58.1079 18.6483C58.1079 16.363 57.4851 15.3757 56.3414 15.3757C52.4459 15.3757 47.8221 30.8561 47.8221 38.2325C47.8221 40.4655 48.3941 41.5572 49.5882 41.5572ZM39.0957 32.3623C39.0957 22.4927 46.5237 13.6092 55.8222 13.6092C61.9002 13.6092 66.7831 17.8173 66.7831 24.5705C66.7831 34.3886 59.3543 43.3232 50.0559 43.3232C44.0305 43.3232 39.0957 39.1156 39.0957 32.3623Z" fill="white"/>
<path d="M68.1348 33.245C68.1348 24.1024 75.5112 13.5572 84.6537 13.5572C88.4461 13.5572 91.3027 15.9989 91.3027 20.3101C91.3027 23.1678 89.3291 26.2323 86.5241 26.2323C84.758 26.2323 83.6671 25.0898 83.6671 23.5312C83.6671 21.0372 86.9918 20.1026 86.9918 17.4531C86.9918 16.3099 86.4721 15.0115 85.173 15.0115C81.5366 15.0115 77.6407 24.4142 77.6407 31.4273C77.6407 35.011 78.4721 37.8688 81.2771 37.8688C83.8746 37.8688 86.4721 35.6346 89.485 29.4526C89.9519 28.4144 90.7834 28.7255 90.4716 29.505C86.9391 38.9593 82.6798 43.3232 76.9655 43.3232C71.7712 43.3232 68.1348 39.6864 68.1348 33.245Z" fill="white"/>
<path d="M106.992 50.155C106.992 48.2838 108.396 46.2572 110.994 46.2572C114.268 46.2572 115.412 51.1946 117.282 51.1946C118.946 51.1946 119.414 48.6999 123 37.2133L129.289 16.7868C129.393 16.2152 129.289 15.6439 128.457 15.6439H125.287C124.352 15.6439 124.56 14.6558 125.495 14.6558C127.834 14.6558 129.965 14.448 130.536 12.7327L130.744 12.1095C132.772 5.97646 138.541 -0.000305176 146.805 -0.000305176C155.537 -0.000305176 158.136 3.84588 158.136 5.92412C158.136 7.89956 156.42 9.82265 154.289 9.82265C149.663 9.82265 146.961 2.33813 142.231 2.33813C141.347 2.33813 140.672 2.90975 140.567 4.46909C140.464 7.1197 140.152 11.8493 139.788 13.4602L139.632 14.1362C139.528 14.8637 139.736 15.1758 140.516 15.1758C150.91 15.1758 153.711 13.6067 156.517 13.6067C157.349 13.6067 157.251 13.9705 156.992 14.698L151.673 32.0318C150.342 35.7564 150.183 37.7081 151.327 37.7601C153.042 37.8636 155.381 33.9655 157.304 30.1193C157.616 29.4961 157.772 29.2875 158.031 29.2875C158.395 29.3402 158.602 29.5996 158.187 30.5358C156.784 33.8619 152.366 43.7888 145.453 43.4251C141.296 43.2172 140.582 41.212 140.685 38.8208C140.79 37.0536 141.556 35.3271 142.748 31.235L146.798 18.284C147.162 17.1927 146.538 16.3093 145.395 16.3093L140.204 16.2152C139.528 16.2152 138.8 16.6316 138.541 17.515L133.084 35.3941C129.965 45.6332 120.193 54.0527 111.513 54.0527C108.135 54.0527 106.992 52.2859 106.992 50.155Z" fill="white"/>
<path d="M156.549 36.9324C156.549 35.4773 157.744 33.8672 159.666 33.8672C161.588 33.8672 162.678 34.6466 163.458 36.9324C164.393 39.9452 165.952 41.8156 167.354 41.8156C168.808 41.8156 169.588 40.7763 169.588 38.6984C169.588 36.4647 168.029 34.2305 166.263 32.3086L165.224 31.0622C163.354 28.9323 161.795 26.7502 161.795 23.5298C161.795 17.5557 167.354 13.6074 173.847 13.6074C179.562 13.6074 181.691 16.7762 181.691 18.7509C181.691 20.8287 180.445 22.0228 178.575 22.0228C177.016 22.0228 175.51 20.8803 174.886 18.6982C174.315 16.5167 173.691 15.2184 171.977 15.2184C170.523 15.2184 169.224 16.3093 169.224 18.4907C169.224 20.4654 170.783 22.6468 172.601 24.7762L173.432 25.8671C175.406 28.2568 177.172 30.6984 177.172 33.7636C177.172 38.8543 172.393 43.4258 166.056 43.4258C161.951 43.4258 156.549 40.8799 156.549 36.9324Z" fill="white"/>
<path d="M190.041 3.1384C189.098 3.11468 187.701 3.22012 186.99 3.22012C186.382 3.22012 186.021 3.06761 186.01 2.76373C185.999 2.40863 186.245 2.15445 187.057 2.15445C188.884 2.15445 191.843 1.67434 194.158 1.06581C196.324 0.558212 198.285 -0.000228882 199.148 -0.000228882C199.858 -0.000228882 199.972 0.355244 199.742 1.06581C198.312 5.43129 196.391 10.2543 194.927 15.0769L190.934 27.8698C190.752 28.5292 190.813 28.8338 191.168 28.8338C191.524 28.8338 191.716 28.5291 192.001 27.9202C194.928 21.2702 198.8 14.0112 204.486 14.0112C208.09 14.0112 209.887 16.1429 209.976 18.8335C210.046 20.9655 208.744 24.5696 206.162 32.4382C204.711 36.1443 204.822 37.9722 205.941 38.0226C207.62 38.1751 209.884 34.469 211.739 30.7121C212.026 30.154 212.222 29.951 212.475 29.951C212.832 30.0015 213.046 30.3065 212.668 31.1692C211.303 34.3677 207 43.9625 200.23 43.4033C196.158 43.0994 195.022 40.967 195.097 38.6323C195.192 36.9054 195.702 35.4338 197.195 31.4742C199.195 25.9403 200.593 22.1837 200.561 21.2197C200.538 20.5092 200.222 20.1529 199.663 20.1529C198.039 20.1529 194.163 22.6913 190.55 33.1488C189.488 36.3473 189.919 38.6323 189.897 39.495C189.916 41.6267 187.118 42.9469 184.782 42.9469C181.228 42.9469 178.482 41.2716 180.04 36.1948L188.509 8.32478C189.189 5.72237 190.437 3.14857 190.041 3.1384Z" fill="white"/>
<path d="M21.122 22.0773C19.5635 22.0773 19.356 21.5053 19.7194 20.3112L24.1349 5.86937C25.0179 2.96082 26.4203 2.54472 27.8745 2.54472C30.2646 2.54472 31.8747 4.57099 31.8747 8.62278C31.8747 13.973 27.4596 22.0773 21.122 22.0773ZM38.1603 42.337C35.6147 42.337 35.0435 40.5182 34.2121 34.0248C33.2255 26.4409 30.3162 24.7264 26.6281 23.6875C25.6408 23.4273 26.0053 22.8044 27.0435 22.8044C36.9655 22.5442 41.1253 15.5315 41.1253 9.45423C41.1253 4.20761 38.5756 1.55775 29.1213 1.55775H11.3544C10.9798 1.55775 10.9048 1.94335 10.9048 1.94335C10.8318 2.23782 11.0799 2.53794 11.3002 2.53794C15.4706 2.53794 13.7381 7.81242 13.517 8.51885L5.04893 36.1547C3.49147 41.2977 2.69279 42.337 0.883412 42.337C0.259451 42.337 0 42.4922 0 42.8563C0 43.2201 0.259451 43.3232 0.883412 43.3232C3.79159 43.3232 5.5554 43.1158 7.26875 43.1158H9.01788C10.7847 43.1158 11.9562 43.3232 14.8655 43.3232C15.541 43.3232 15.7485 43.1673 15.7485 42.804C15.7485 42.4402 15.541 42.337 14.8655 42.337C12.8644 42.337 13.2779 41.2977 14.8881 36.1547L18.5245 24.3111C18.9399 23.0639 19.2517 22.7001 20.3422 22.7001C21.4331 22.7001 21.6417 23.2721 21.8492 25.1418L23.1999 35.6877C23.979 42.5961 24.1349 43.1673 37.8485 43.3232C38.5756 43.3232 38.8874 43.1158 38.8874 42.6481C38.8874 42.4402 38.68 42.337 38.1603 42.337Z" fill="white"/>
</g>
</svg>
