<svg width="117" height="117" viewBox="0 0 117 117" fill="none" xmlns="http://www.w3.org/2000/svg">
<g clip-path="url(#clip0_160_11542)">
<path d="M34.4128 9.93693C47.738 -3.31358 69.2634 -3.31365 82.5886 9.93693L107.061 34.4096C120.307 47.7371 120.307 69.2591 107.061 82.5863L82.5886 107.059C69.2614 120.304 47.74 120.304 34.4128 107.059L9.94012 82.5815C-3.31077 69.2562 -3.31077 47.73 9.94012 34.4047L34.4128 9.93693ZM57.7311 21.1537H57.1286C55.3859 21.1157 53.6533 21.4317 52.0358 22.0815C50.4183 22.7313 48.9486 23.7018 47.7165 24.935C42.5389 30.0739 41.585 39.0572 41.697 45.685C41.7456 48.4834 42.4518 73.3932 52.7975 86.6781C54.2971 88.643 56.1043 90.3527 58.1501 91.7397C60.6541 93.5171 63.6439 94.4817 66.7145 94.5033C67.7952 94.4985 68.8734 94.3975 69.9362 94.2016C69.9995 94.1675 70.0876 94.1674 70.0876 94.1674C76.0875 92.7756 82.6418 87.2282 87.6052 79.3354C87.923 78.8532 88.1072 78.2949 88.1374 77.7182C88.1675 77.1415 88.0429 76.5667 87.777 76.0541C87.511 75.5414 87.1127 75.1087 86.6237 74.8012C86.1347 74.4937 85.5722 74.3228 84.9948 74.3051C84.4176 74.2874 83.8463 74.4238 83.3395 74.7006C82.8327 74.9776 82.4089 75.3849 82.112 75.8803C78.185 82.1235 72.9044 86.8145 68.6901 87.8266C68.0479 87.944 67.3967 88.0064 66.7438 88.0121C64.9336 87.9984 63.1754 87.4049 61.7272 86.3188C60.2714 85.3218 58.9861 84.0952 57.9216 82.6879C50.5735 73.2472 48.3448 54.9159 48.1891 45.5727C48.0625 37.9962 49.5171 32.3025 52.2907 29.5434C52.928 28.9096 53.689 28.4137 54.5261 28.0863C55.3633 27.759 56.2596 27.6076 57.1579 27.641H57.7165C58.6148 27.6061 59.511 27.7571 60.3483 28.0844C61.1857 28.4118 61.9472 28.9083 62.5837 29.5434C65.3573 32.2977 66.8166 37.9912 66.6852 45.5727C66.4956 57.0084 64.0724 66.24 59.0602 74.6342C58.146 76.1749 58.6482 78.1653 60.1843 79.0873C60.6855 79.3877 61.2591 79.5455 61.8434 79.5444C62.4058 79.5436 62.9586 79.3976 63.4479 79.1205C63.9371 78.8435 64.3465 78.4449 64.6364 77.9633C71.7946 65.9678 73.0607 52.5903 73.1774 45.685C73.2894 39.0476 72.3354 30.0739 67.1579 24.935C65.9243 23.6999 64.4528 22.7275 62.8327 22.0776C61.2125 21.4277 59.4764 21.1134 57.7311 21.1537ZM44.0622 87.3559C42.1182 87.3559 40.5366 88.921 40.5153 90.8647C40.4943 92.8084 42.0408 94.4068 43.9841 94.4496H44.1403C46.0836 94.4068 47.6303 92.8083 47.6091 90.8647C47.5878 88.921 46.0064 87.3559 44.0622 87.3559Z" fill="white"/>
</g>
<defs>
<clipPath id="clip0_160_11542">
<rect width="117" height="117" fill="white"/>
</clipPath>
</defs>
</svg>
