<svg width="1309" height="277" viewBox="0 0 1309 277" fill="none" xmlns="http://www.w3.org/2000/svg">
<rect x="554" width="201" height="69" rx="10" fill="#ED1C24"/>
<path d="M596.034 25.5455H599.903L605.085 38.1932H605.29L610.472 25.5455H614.341V43H611.307V31.0085H611.145L606.321 42.9489H604.054L599.23 30.983H599.068V43H596.034V25.5455ZM621.415 43.2642C620.585 43.2642 619.838 43.1165 619.173 42.821C618.514 42.5199 617.991 42.0767 617.605 41.4915C617.224 40.9062 617.034 40.1847 617.034 39.3267C617.034 38.5881 617.17 37.9773 617.443 37.4943C617.716 37.0114 618.088 36.625 618.56 36.3352C619.031 36.0455 619.563 35.8267 620.153 35.679C620.75 35.5256 621.366 35.4148 622.003 35.3466C622.77 35.267 623.392 35.196 623.869 35.1335C624.347 35.0653 624.693 34.9631 624.909 34.8267C625.131 34.6847 625.241 34.4659 625.241 34.1705V34.1193C625.241 33.4773 625.051 32.9801 624.67 32.6278C624.29 32.2756 623.741 32.0994 623.026 32.0994C622.27 32.0994 621.67 32.2642 621.227 32.5938C620.79 32.9233 620.494 33.3125 620.341 33.7614L617.46 33.3523C617.688 32.5568 618.063 31.892 618.585 31.358C619.108 30.8182 619.747 30.4148 620.503 30.1477C621.259 29.875 622.094 29.7386 623.009 29.7386C623.639 29.7386 624.267 29.8125 624.892 29.9602C625.517 30.108 626.088 30.3523 626.605 30.6932C627.122 31.0284 627.537 31.4858 627.849 32.0653C628.168 32.6449 628.327 33.3693 628.327 34.2386V43H625.361V41.2017H625.259C625.071 41.5653 624.807 41.9062 624.466 42.2244C624.131 42.5369 623.707 42.7898 623.196 42.983C622.69 43.1705 622.097 43.2642 621.415 43.2642ZM622.216 40.9972C622.835 40.9972 623.372 40.875 623.827 40.6307C624.281 40.3807 624.631 40.0511 624.875 39.642C625.125 39.233 625.25 38.7869 625.25 38.304V36.7614C625.153 36.8409 624.989 36.9148 624.756 36.983C624.528 37.0511 624.273 37.1108 623.989 37.1619C623.705 37.2131 623.423 37.2585 623.145 37.2983C622.866 37.3381 622.625 37.3722 622.42 37.4006C621.96 37.4631 621.548 37.5653 621.185 37.7074C620.821 37.8494 620.534 38.0483 620.324 38.304C620.114 38.554 620.009 38.8778 620.009 39.2756C620.009 39.8438 620.216 40.2727 620.631 40.5625C621.045 40.8523 621.574 40.9972 622.216 40.9972ZM631.429 43V29.9091H634.514V43H631.429ZM632.98 28.0511C632.491 28.0511 632.071 27.8892 631.719 27.5653C631.366 27.2358 631.19 26.8409 631.19 26.3807C631.19 25.9148 631.366 25.5199 631.719 25.196C632.071 24.8665 632.491 24.7017 632.98 24.7017C633.474 24.7017 633.895 24.8665 634.241 25.196C634.594 25.5199 634.77 25.9148 634.77 26.3807C634.77 26.8409 634.594 27.2358 634.241 27.5653C633.895 27.8892 633.474 28.0511 632.98 28.0511ZM640.772 35.3295V43H637.687V29.9091H640.636V32.1335H640.789C641.09 31.4006 641.57 30.8182 642.229 30.3864C642.894 29.9545 643.715 29.7386 644.692 29.7386C645.596 29.7386 646.383 29.9318 647.053 30.3182C647.729 30.7045 648.252 31.2642 648.621 31.9972C648.996 32.7301 649.181 33.6193 649.175 34.6648V43H646.09V35.142C646.09 34.267 645.863 33.5824 645.408 33.0881C644.96 32.5937 644.337 32.3466 643.542 32.3466C643.002 32.3466 642.522 32.4659 642.102 32.7045C641.687 32.9375 641.36 33.2756 641.121 33.7188C640.888 34.1619 640.772 34.6989 640.772 35.3295ZM658.265 47.9091V29.9091H661.299V32.0739H661.478C661.637 31.7557 661.862 31.4176 662.151 31.0597C662.441 30.696 662.833 30.3864 663.327 30.1307C663.822 29.8693 664.452 29.7386 665.219 29.7386C666.231 29.7386 667.143 29.9972 667.955 30.5142C668.773 31.0256 669.421 31.7841 669.898 32.7898C670.381 33.7898 670.623 35.017 670.623 36.4716C670.623 37.9091 670.387 39.1307 669.915 40.1364C669.444 41.142 668.802 41.9091 667.989 42.4375C667.177 42.9659 666.256 43.2301 665.228 43.2301C664.478 43.2301 663.856 43.1051 663.362 42.8551C662.867 42.6051 662.469 42.304 662.168 41.9517C661.873 41.5937 661.643 41.2557 661.478 40.9375H661.35V47.9091H658.265ZM661.29 36.4545C661.29 37.3011 661.41 38.0426 661.648 38.679C661.893 39.3153 662.242 39.8125 662.697 40.1705C663.157 40.5227 663.714 40.6989 664.367 40.6989C665.049 40.6989 665.62 40.517 666.08 40.1534C666.54 39.7841 666.887 39.2812 667.12 38.6449C667.359 38.0028 667.478 37.2727 667.478 36.4545C667.478 35.642 667.362 34.9205 667.129 34.2898C666.896 33.6591 666.549 33.1648 666.089 32.8068C665.629 32.4489 665.055 32.2699 664.367 32.2699C663.708 32.2699 663.148 32.4432 662.688 32.7898C662.228 33.1364 661.879 33.6222 661.64 34.2472C661.407 34.8722 661.29 35.608 661.29 36.4545ZM677.032 43.2642C676.202 43.2642 675.455 43.1165 674.79 42.821C674.131 42.5199 673.609 42.0767 673.222 41.4915C672.842 40.9062 672.651 40.1847 672.651 39.3267C672.651 38.5881 672.788 37.9773 673.06 37.4943C673.333 37.0114 673.705 36.625 674.177 36.3352C674.648 36.0455 675.18 35.8267 675.771 35.679C676.367 35.5256 676.984 35.4148 677.62 35.3466C678.387 35.267 679.009 35.196 679.487 35.1335C679.964 35.0653 680.31 34.9631 680.526 34.8267C680.748 34.6847 680.859 34.4659 680.859 34.1705V34.1193C680.859 33.4773 680.668 32.9801 680.288 32.6278C679.907 32.2756 679.359 32.0994 678.643 32.0994C677.887 32.0994 677.288 32.2642 676.844 32.5938C676.407 32.9233 676.112 33.3125 675.958 33.7614L673.077 33.3523C673.305 32.5568 673.68 31.892 674.202 31.358C674.725 30.8182 675.364 30.4148 676.12 30.1477C676.876 29.875 677.711 29.7386 678.626 29.7386C679.256 29.7386 679.884 29.8125 680.509 29.9602C681.134 30.108 681.705 30.3523 682.222 30.6932C682.739 31.0284 683.154 31.4858 683.467 32.0653C683.785 32.6449 683.944 33.3693 683.944 34.2386V43H680.978V41.2017H680.876C680.688 41.5653 680.424 41.9062 680.083 42.2244C679.748 42.5369 679.325 42.7898 678.813 42.983C678.308 43.1705 677.714 43.2642 677.032 43.2642ZM677.833 40.9972C678.452 40.9972 678.989 40.875 679.444 40.6307C679.898 40.3807 680.248 40.0511 680.492 39.642C680.742 39.233 680.867 38.7869 680.867 38.304V36.7614C680.771 36.8409 680.606 36.9148 680.373 36.983C680.146 37.0511 679.89 37.1108 679.606 37.1619C679.322 37.2131 679.04 37.2585 678.762 37.2983C678.484 37.3381 678.242 37.3722 678.038 37.4006C677.577 37.4631 677.165 37.5653 676.802 37.7074C676.438 37.8494 676.151 38.0483 675.941 38.304C675.731 38.554 675.626 38.8778 675.626 39.2756C675.626 39.8438 675.833 40.2727 676.248 40.5625C676.663 40.8523 677.191 40.9972 677.833 40.9972ZM692.739 48.1818C691.631 48.1818 690.68 48.0313 689.884 47.7301C689.089 47.4347 688.45 47.0369 687.967 46.5369C687.484 46.0369 687.148 45.483 686.961 44.875L689.739 44.2017C689.864 44.4574 690.046 44.7102 690.285 44.9602C690.523 45.2159 690.844 45.4261 691.248 45.5909C691.657 45.7614 692.171 45.8466 692.79 45.8466C693.665 45.8466 694.39 45.6335 694.964 45.2074C695.538 44.7869 695.825 44.0938 695.825 43.1278V40.6477H695.671C695.512 40.9659 695.279 41.2926 694.972 41.6278C694.671 41.9631 694.271 42.2443 693.771 42.4716C693.276 42.6989 692.654 42.8125 691.904 42.8125C690.898 42.8125 689.987 42.5767 689.168 42.1051C688.356 41.6278 687.708 40.9176 687.225 39.9744C686.748 39.0256 686.509 37.8381 686.509 36.4119C686.509 34.9744 686.748 33.7614 687.225 32.7727C687.708 31.7784 688.359 31.0256 689.177 30.5142C689.995 29.9972 690.907 29.7386 691.913 29.7386C692.68 29.7386 693.31 29.8693 693.805 30.1307C694.305 30.3864 694.702 30.696 694.998 31.0597C695.293 31.4176 695.518 31.7557 695.671 32.0739H695.842V29.9091H698.884V43.2131C698.884 44.3324 698.617 45.2585 698.083 45.9915C697.549 46.7244 696.819 47.2727 695.893 47.6364C694.967 48 693.915 48.1818 692.739 48.1818ZM692.765 40.392C693.418 40.392 693.975 40.233 694.435 39.9148C694.896 39.5966 695.245 39.1392 695.484 38.5426C695.722 37.946 695.842 37.2301 695.842 36.3949C695.842 35.571 695.722 34.8494 695.484 34.2301C695.251 33.6108 694.904 33.1307 694.444 32.7898C693.989 32.4432 693.43 32.2699 692.765 32.2699C692.077 32.2699 691.504 32.4489 691.043 32.8068C690.583 33.1648 690.237 33.6562 690.004 34.2812C689.771 34.9006 689.654 35.6051 689.654 36.3949C689.654 37.196 689.771 37.8977 690.004 38.5C690.242 39.0966 690.592 39.5625 691.052 39.8977C691.518 40.2273 692.089 40.392 692.765 40.392ZM707.842 43.2557C706.529 43.2557 705.396 42.983 704.441 42.4375C703.492 41.8864 702.762 41.108 702.251 40.1023C701.739 39.0909 701.484 37.9006 701.484 36.5312C701.484 35.1847 701.739 34.0028 702.251 32.9858C702.768 31.9631 703.489 31.1676 704.415 30.5994C705.342 30.0256 706.43 29.7386 707.68 29.7386C708.487 29.7386 709.248 29.8693 709.964 30.1307C710.685 30.3864 711.322 30.7841 711.873 31.3239C712.43 31.8636 712.867 32.5511 713.185 33.3864C713.504 34.2159 713.663 35.2045 713.663 36.3523V37.2983H702.933V35.2188H710.705C710.7 34.6278 710.572 34.1023 710.322 33.642C710.072 33.1761 709.722 32.8097 709.273 32.5426C708.83 32.2756 708.313 32.142 707.722 32.142C707.092 32.142 706.538 32.2955 706.06 32.6023C705.583 32.9034 705.211 33.3011 704.944 33.7955C704.683 34.2841 704.549 34.821 704.543 35.4062V37.2216C704.543 37.983 704.683 38.6364 704.961 39.1818C705.239 39.7216 705.629 40.1364 706.129 40.4261C706.629 40.7102 707.214 40.8523 707.884 40.8523C708.333 40.8523 708.739 40.7898 709.103 40.6648C709.467 40.5341 709.782 40.3438 710.049 40.0938C710.316 39.8438 710.518 39.5341 710.654 39.1648L713.535 39.4886C713.353 40.25 713.006 40.9148 712.495 41.483C711.989 42.0455 711.342 42.483 710.552 42.7955C709.762 43.1023 708.859 43.2557 707.842 43.2557Z" fill="white"/>
<rect width="2" height="23" transform="matrix(-1 0 0 1 655.5 69)" fill="#CCCCCC"/>
<rect width="2" height="115" transform="matrix(-1 0 0 1 67 93)" fill="#CCCCCC"/>
<rect y="208" width="132" height="69" rx="10" fill="#FFE3E3"/>
<path d="M53.5749 239.119C53.4329 238.659 53.2369 238.247 52.9869 237.884C52.7425 237.514 52.4471 237.199 52.1005 236.938C51.7596 236.676 51.3675 236.48 50.9244 236.349C50.4812 236.213 49.9982 236.145 49.4755 236.145C48.538 236.145 47.7028 236.381 46.9698 236.852C46.2369 237.324 45.6602 238.017 45.2397 238.932C44.8249 239.841 44.6175 240.949 44.6175 242.256C44.6175 243.574 44.8249 244.69 45.2397 245.605C45.6545 246.52 46.2312 247.216 46.9698 247.693C47.7085 248.165 48.5664 248.401 49.5437 248.401C50.43 248.401 51.1971 248.23 51.8448 247.889C52.4982 247.548 53.0011 247.065 53.3533 246.44C53.7056 245.81 53.8817 245.071 53.8817 244.224L54.5977 244.335H49.859V241.864H56.9414V243.96C56.9414 245.455 56.6232 246.747 55.9869 247.838C55.3505 248.929 54.4755 249.77 53.3619 250.361C52.2482 250.946 50.9698 251.239 49.5266 251.239C47.9187 251.239 46.5067 250.878 45.2908 250.156C44.0806 249.429 43.1346 248.398 42.4528 247.062C41.7766 245.722 41.4386 244.131 41.4386 242.29C41.4386 240.881 41.6374 239.622 42.0352 238.514C42.4386 237.406 43.0011 236.466 43.7227 235.693C44.4442 234.915 45.2908 234.324 46.2624 233.92C47.234 233.511 48.2908 233.307 49.4329 233.307C50.3988 233.307 51.2994 233.449 52.1346 233.733C52.9698 234.011 53.7113 234.409 54.359 234.926C55.0124 235.443 55.5494 236.057 55.9698 236.767C56.3903 237.477 56.6658 238.261 56.7965 239.119H53.5749ZM74.3427 233.545V251H71.5302L63.3058 239.111H63.1609V251H59.9989V233.545H62.8285L71.0444 245.443H71.1978V233.545H74.3427ZM77.788 251V233.545H84.4698C85.7312 233.545 86.7795 233.744 87.6147 234.142C88.4556 234.534 89.0835 235.071 89.4982 235.753C89.9187 236.435 90.1289 237.207 90.1289 238.071C90.1289 238.781 89.9925 239.389 89.7198 239.895C89.4471 240.395 89.0806 240.801 88.6204 241.114C88.1602 241.426 87.646 241.651 87.0778 241.787V241.957C87.6971 241.991 88.2908 242.182 88.859 242.528C89.4329 242.869 89.9016 243.352 90.2653 243.977C90.6289 244.602 90.8107 245.358 90.8107 246.244C90.8107 247.148 90.592 247.96 90.1545 248.682C89.717 249.398 89.0579 249.963 88.1772 250.378C87.2965 250.793 86.1886 251 84.8533 251H77.788ZM80.9499 248.358H84.3505C85.4982 248.358 86.3249 248.139 86.8306 247.702C87.342 247.259 87.5977 246.69 87.5977 245.997C87.5977 245.48 87.4698 245.014 87.2141 244.599C86.9585 244.179 86.5948 243.849 86.1232 243.611C85.6516 243.366 85.0891 243.244 84.4357 243.244H80.9499V248.358ZM80.9499 240.969H84.0778C84.6232 240.969 85.1147 240.869 85.5522 240.67C85.9897 240.466 86.3335 240.179 86.5835 239.81C86.8391 239.435 86.967 238.991 86.967 238.48C86.967 237.804 86.7283 237.247 86.2511 236.81C85.7795 236.372 85.0778 236.153 84.146 236.153H80.9499V240.969Z" fill="#111111"/>
<rect width="2" height="115" transform="matrix(-1 0 0 1 258 93)" fill="#CCCCCC"/>
<rect x="152" y="208" width="210" height="69" rx="10" fill="#FFE3E3"/>
<path d="M194.128 251V233.545H197.29V240.935H205.378V233.545H208.548V251H205.378V243.585H197.29V251H194.128ZM217.646 251.256C216.334 251.256 215.2 250.983 214.246 250.438C213.297 249.886 212.567 249.108 212.055 248.102C211.544 247.091 211.288 245.901 211.288 244.531C211.288 243.185 211.544 242.003 212.055 240.986C212.572 239.963 213.294 239.168 214.22 238.599C215.146 238.026 216.234 237.739 217.484 237.739C218.291 237.739 219.053 237.869 219.768 238.131C220.49 238.386 221.126 238.784 221.678 239.324C222.234 239.864 222.672 240.551 222.99 241.386C223.308 242.216 223.467 243.205 223.467 244.352V245.298H212.737V243.219H220.51C220.504 242.628 220.376 242.102 220.126 241.642C219.876 241.176 219.527 240.81 219.078 240.543C218.635 240.276 218.118 240.142 217.527 240.142C216.896 240.142 216.342 240.295 215.865 240.602C215.388 240.903 215.016 241.301 214.749 241.795C214.487 242.284 214.354 242.821 214.348 243.406V245.222C214.348 245.983 214.487 246.636 214.766 247.182C215.044 247.722 215.433 248.136 215.933 248.426C216.433 248.71 217.018 248.852 217.689 248.852C218.138 248.852 218.544 248.79 218.908 248.665C219.271 248.534 219.587 248.344 219.854 248.094C220.121 247.844 220.322 247.534 220.459 247.165L223.339 247.489C223.158 248.25 222.811 248.915 222.3 249.483C221.794 250.045 221.146 250.483 220.357 250.795C219.567 251.102 218.663 251.256 217.646 251.256ZM226.077 251V237.909H229.069V240.091H229.205C229.444 239.335 229.853 238.753 230.433 238.344C231.018 237.929 231.685 237.722 232.435 237.722C232.606 237.722 232.796 237.73 233.006 237.747C233.222 237.759 233.401 237.778 233.543 237.807V240.645C233.413 240.599 233.205 240.56 232.921 240.526C232.643 240.486 232.373 240.466 232.112 240.466C231.549 240.466 231.043 240.588 230.594 240.832C230.151 241.071 229.802 241.403 229.546 241.83C229.29 242.256 229.163 242.747 229.163 243.304V251H226.077ZM240.764 251.256C239.486 251.256 238.378 250.974 237.44 250.412C236.503 249.849 235.776 249.062 235.259 248.051C234.747 247.04 234.491 245.858 234.491 244.506C234.491 243.153 234.747 241.969 235.259 240.952C235.776 239.935 236.503 239.145 237.44 238.582C238.378 238.02 239.486 237.739 240.764 237.739C242.043 237.739 243.151 238.02 244.088 238.582C245.026 239.145 245.75 239.935 246.261 240.952C246.778 241.969 247.037 243.153 247.037 244.506C247.037 245.858 246.778 247.04 246.261 248.051C245.75 249.062 245.026 249.849 244.088 250.412C243.151 250.974 242.043 251.256 240.764 251.256ZM240.781 248.784C241.474 248.784 242.054 248.594 242.52 248.213C242.986 247.827 243.332 247.31 243.56 246.662C243.793 246.014 243.909 245.293 243.909 244.497C243.909 243.696 243.793 242.972 243.56 242.324C243.332 241.67 242.986 241.151 242.52 240.764C242.054 240.378 241.474 240.185 240.781 240.185C240.071 240.185 239.48 240.378 239.009 240.764C238.543 241.151 238.193 241.67 237.96 242.324C237.733 242.972 237.619 243.696 237.619 244.497C237.619 245.293 237.733 246.014 237.96 246.662C238.193 247.31 238.543 247.827 239.009 248.213C239.48 248.594 240.071 248.784 240.781 248.784ZM258.08 233.545L262.623 247.284H262.802L267.336 233.545H270.813L264.66 251H260.756L254.612 233.545H258.08ZM272.976 251V237.909H276.061V251H272.976ZM274.527 236.051C274.038 236.051 273.618 235.889 273.266 235.565C272.913 235.236 272.737 234.841 272.737 234.381C272.737 233.915 272.913 233.52 273.266 233.196C273.618 232.866 274.038 232.702 274.527 232.702C275.021 232.702 275.442 232.866 275.788 233.196C276.141 233.52 276.317 233.915 276.317 234.381C276.317 234.841 276.141 235.236 275.788 235.565C275.442 235.889 275.021 236.051 274.527 236.051ZM284.092 251.23C283.063 251.23 282.143 250.966 281.33 250.438C280.518 249.909 279.876 249.142 279.404 248.136C278.933 247.131 278.697 245.909 278.697 244.472C278.697 243.017 278.935 241.79 279.413 240.79C279.896 239.784 280.546 239.026 281.364 238.514C282.183 237.997 283.094 237.739 284.1 237.739C284.867 237.739 285.498 237.869 285.992 238.131C286.487 238.386 286.879 238.696 287.168 239.06C287.458 239.418 287.683 239.756 287.842 240.074H287.969V233.545H291.063V251H288.029V248.938H287.842C287.683 249.256 287.452 249.594 287.151 249.952C286.85 250.304 286.452 250.605 285.958 250.855C285.464 251.105 284.842 251.23 284.092 251.23ZM284.952 248.699C285.606 248.699 286.163 248.523 286.623 248.17C287.083 247.812 287.433 247.315 287.671 246.679C287.91 246.043 288.029 245.301 288.029 244.455C288.029 243.608 287.91 242.872 287.671 242.247C287.438 241.622 287.092 241.136 286.631 240.79C286.177 240.443 285.617 240.27 284.952 240.27C284.265 240.27 283.691 240.449 283.231 240.807C282.771 241.165 282.424 241.659 282.191 242.29C281.958 242.92 281.842 243.642 281.842 244.455C281.842 245.273 281.958 246.003 282.191 246.645C282.43 247.281 282.779 247.784 283.239 248.153C283.705 248.517 284.276 248.699 284.952 248.699ZM300.146 251.256C298.834 251.256 297.7 250.983 296.746 250.438C295.797 249.886 295.067 249.108 294.555 248.102C294.044 247.091 293.788 245.901 293.788 244.531C293.788 243.185 294.044 242.003 294.555 240.986C295.072 239.963 295.794 239.168 296.72 238.599C297.646 238.026 298.734 237.739 299.984 237.739C300.791 237.739 301.553 237.869 302.268 238.131C302.99 238.386 303.626 238.784 304.178 239.324C304.734 239.864 305.172 240.551 305.49 241.386C305.808 242.216 305.967 243.205 305.967 244.352V245.298H295.237V243.219H303.01C303.004 242.628 302.876 242.102 302.626 241.642C302.376 241.176 302.027 240.81 301.578 240.543C301.135 240.276 300.618 240.142 300.027 240.142C299.396 240.142 298.842 240.295 298.365 240.602C297.888 240.903 297.516 241.301 297.249 241.795C296.987 242.284 296.854 242.821 296.848 243.406V245.222C296.848 245.983 296.987 246.636 297.266 247.182C297.544 247.722 297.933 248.136 298.433 248.426C298.933 248.71 299.518 248.852 300.189 248.852C300.638 248.852 301.044 248.79 301.408 248.665C301.771 248.534 302.087 248.344 302.354 248.094C302.621 247.844 302.822 247.534 302.959 247.165L305.839 247.489C305.658 248.25 305.311 248.915 304.8 249.483C304.294 250.045 303.646 250.483 302.857 250.795C302.067 251.102 301.163 251.256 300.146 251.256ZM314.288 251.256C313.009 251.256 311.901 250.974 310.964 250.412C310.026 249.849 309.299 249.062 308.782 248.051C308.271 247.04 308.015 245.858 308.015 244.506C308.015 243.153 308.271 241.969 308.782 240.952C309.299 239.935 310.026 239.145 310.964 238.582C311.901 238.02 313.009 237.739 314.288 237.739C315.566 237.739 316.674 238.02 317.612 238.582C318.549 239.145 319.273 239.935 319.785 240.952C320.302 241.969 320.56 243.153 320.56 244.506C320.56 245.858 320.302 247.04 319.785 248.051C319.273 249.062 318.549 249.849 317.612 250.412C316.674 250.974 315.566 251.256 314.288 251.256ZM314.305 248.784C314.998 248.784 315.577 248.594 316.043 248.213C316.509 247.827 316.856 247.31 317.083 246.662C317.316 246.014 317.433 245.293 317.433 244.497C317.433 243.696 317.316 242.972 317.083 242.324C316.856 241.67 316.509 241.151 316.043 240.764C315.577 240.378 314.998 240.185 314.305 240.185C313.594 240.185 313.004 240.378 312.532 240.764C312.066 241.151 311.717 241.67 311.484 242.324C311.256 242.972 311.143 243.696 311.143 244.497C311.143 245.293 311.256 246.014 311.484 246.662C311.717 247.31 312.066 247.827 312.532 248.213C313.004 248.594 313.594 248.784 314.305 248.784Z" fill="#111111"/>
<rect width="2" height="115" transform="matrix(-1 0 0 1 492 93)" fill="#CCCCCC"/>
<rect x="382" y="208" width="218" height="69" rx="10" fill="#FFE3E3"/>
<path d="M424.003 251V233.545H430.685C431.946 233.545 432.994 233.744 433.83 234.142C434.67 234.534 435.298 235.071 435.713 235.753C436.134 236.435 436.344 237.207 436.344 238.071C436.344 238.781 436.207 239.389 435.935 239.895C435.662 240.395 435.295 240.801 434.835 241.114C434.375 241.426 433.861 241.651 433.293 241.787V241.957C433.912 241.991 434.506 242.182 435.074 242.528C435.648 242.869 436.116 243.352 436.48 243.977C436.844 244.602 437.026 245.358 437.026 246.244C437.026 247.148 436.807 247.96 436.369 248.682C435.932 249.398 435.273 249.963 434.392 250.378C433.511 250.793 432.403 251 431.068 251H424.003ZM427.165 248.358H430.565C431.713 248.358 432.54 248.139 433.045 247.702C433.557 247.259 433.812 246.69 433.812 245.997C433.812 245.48 433.685 245.014 433.429 244.599C433.173 244.179 432.81 243.849 432.338 243.611C431.866 243.366 431.304 243.244 430.651 243.244H427.165V248.358ZM427.165 240.969H430.293C430.838 240.969 431.33 240.869 431.767 240.67C432.205 240.466 432.548 240.179 432.798 239.81C433.054 239.435 433.182 238.991 433.182 238.48C433.182 237.804 432.943 237.247 432.466 236.81C431.994 236.372 431.293 236.153 430.361 236.153H427.165V240.969ZM439.64 251V237.909H442.631V240.091H442.768C443.006 239.335 443.415 238.753 443.995 238.344C444.58 237.929 445.248 237.722 445.998 237.722C446.168 237.722 446.359 237.73 446.569 237.747C446.785 237.759 446.964 237.778 447.106 237.807V240.645C446.975 240.599 446.768 240.56 446.484 240.526C446.205 240.486 445.935 240.466 445.674 240.466C445.112 240.466 444.606 240.588 444.157 240.832C443.714 241.071 443.364 241.403 443.109 241.83C442.853 242.256 442.725 242.747 442.725 243.304V251H439.64ZM452.688 251.264C451.859 251.264 451.112 251.116 450.447 250.821C449.788 250.52 449.265 250.077 448.879 249.491C448.498 248.906 448.308 248.185 448.308 247.327C448.308 246.588 448.444 245.977 448.717 245.494C448.989 245.011 449.362 244.625 449.833 244.335C450.305 244.045 450.836 243.827 451.427 243.679C452.023 243.526 452.64 243.415 453.276 243.347C454.043 243.267 454.665 243.196 455.143 243.134C455.62 243.065 455.967 242.963 456.183 242.827C456.404 242.685 456.515 242.466 456.515 242.17V242.119C456.515 241.477 456.325 240.98 455.944 240.628C455.563 240.276 455.015 240.099 454.299 240.099C453.543 240.099 452.944 240.264 452.501 240.594C452.063 240.923 451.768 241.312 451.614 241.761L448.734 241.352C448.961 240.557 449.336 239.892 449.859 239.358C450.381 238.818 451.021 238.415 451.776 238.148C452.532 237.875 453.367 237.739 454.282 237.739C454.913 237.739 455.54 237.812 456.165 237.96C456.79 238.108 457.362 238.352 457.879 238.693C458.396 239.028 458.81 239.486 459.123 240.065C459.441 240.645 459.6 241.369 459.6 242.239V251H456.634V249.202H456.532C456.344 249.565 456.08 249.906 455.739 250.224C455.404 250.537 454.981 250.79 454.469 250.983C453.964 251.17 453.37 251.264 452.688 251.264ZM453.489 248.997C454.109 248.997 454.646 248.875 455.1 248.631C455.555 248.381 455.904 248.051 456.148 247.642C456.398 247.233 456.523 246.787 456.523 246.304V244.761C456.427 244.841 456.262 244.915 456.029 244.983C455.802 245.051 455.546 245.111 455.262 245.162C454.978 245.213 454.697 245.259 454.418 245.298C454.14 245.338 453.898 245.372 453.694 245.401C453.234 245.463 452.822 245.565 452.458 245.707C452.094 245.849 451.808 246.048 451.597 246.304C451.387 246.554 451.282 246.878 451.282 247.276C451.282 247.844 451.489 248.273 451.904 248.562C452.319 248.852 452.847 248.997 453.489 248.997ZM465.788 243.33V251H462.702V237.909H465.651V240.134H465.805C466.106 239.401 466.586 238.818 467.245 238.386C467.91 237.955 468.731 237.739 469.708 237.739C470.612 237.739 471.398 237.932 472.069 238.318C472.745 238.705 473.268 239.264 473.637 239.997C474.012 240.73 474.197 241.619 474.191 242.665V251H471.106V243.142C471.106 242.267 470.879 241.582 470.424 241.088C469.975 240.594 469.353 240.347 468.558 240.347C468.018 240.347 467.538 240.466 467.117 240.705C466.702 240.937 466.376 241.276 466.137 241.719C465.904 242.162 465.788 242.699 465.788 243.33ZM482.185 251.23C481.157 251.23 480.237 250.966 479.424 250.438C478.612 249.909 477.969 249.142 477.498 248.136C477.026 247.131 476.79 245.909 476.79 244.472C476.79 243.017 477.029 241.79 477.506 240.79C477.989 239.784 478.64 239.026 479.458 238.514C480.276 237.997 481.188 237.739 482.194 237.739C482.961 237.739 483.592 237.869 484.086 238.131C484.58 238.386 484.972 238.696 485.262 239.06C485.552 239.418 485.776 239.756 485.935 240.074H486.063V233.545H489.157V251H486.123V248.938H485.935C485.776 249.256 485.546 249.594 485.245 249.952C484.944 250.304 484.546 250.605 484.052 250.855C483.558 251.105 482.935 251.23 482.185 251.23ZM483.046 248.699C483.7 248.699 484.256 248.523 484.717 248.17C485.177 247.812 485.526 247.315 485.765 246.679C486.004 246.043 486.123 245.301 486.123 244.455C486.123 243.608 486.004 242.872 485.765 242.247C485.532 241.622 485.185 241.136 484.725 240.79C484.271 240.443 483.711 240.27 483.046 240.27C482.359 240.27 481.785 240.449 481.325 240.807C480.864 241.165 480.518 241.659 480.285 242.29C480.052 242.92 479.935 243.642 479.935 244.455C479.935 245.273 480.052 246.003 480.285 246.645C480.523 247.281 480.873 247.784 481.333 248.153C481.799 248.517 482.37 248.699 483.046 248.699ZM508.02 238.344C507.94 237.599 507.605 237.02 507.014 236.605C506.429 236.19 505.668 235.983 504.73 235.983C504.071 235.983 503.506 236.082 503.034 236.281C502.563 236.48 502.202 236.75 501.952 237.091C501.702 237.432 501.574 237.821 501.568 238.259C501.568 238.622 501.651 238.937 501.815 239.205C501.986 239.472 502.216 239.699 502.506 239.886C502.795 240.068 503.116 240.222 503.469 240.347C503.821 240.472 504.176 240.577 504.534 240.662L506.17 241.071C506.83 241.224 507.463 241.432 508.071 241.693C508.685 241.955 509.233 242.284 509.716 242.682C510.205 243.08 510.591 243.56 510.875 244.122C511.159 244.685 511.301 245.344 511.301 246.099C511.301 247.122 511.04 248.023 510.517 248.801C509.994 249.574 509.239 250.179 508.25 250.616C507.267 251.048 506.077 251.264 504.679 251.264C503.321 251.264 502.142 251.054 501.142 250.634C500.148 250.213 499.369 249.599 498.807 248.793C498.25 247.986 497.949 247.003 497.903 245.844H501.014C501.06 246.452 501.247 246.957 501.577 247.361C501.906 247.764 502.335 248.065 502.864 248.264C503.398 248.463 503.994 248.562 504.653 248.562C505.341 248.562 505.943 248.46 506.46 248.256C506.983 248.045 507.392 247.756 507.688 247.386C507.983 247.011 508.134 246.574 508.139 246.074C508.134 245.619 508 245.244 507.739 244.949C507.477 244.648 507.111 244.398 506.639 244.199C506.173 243.994 505.628 243.812 505.003 243.653L503.017 243.142C501.58 242.773 500.443 242.213 499.608 241.463C498.778 240.707 498.364 239.705 498.364 238.455C498.364 237.426 498.642 236.526 499.199 235.753C499.761 234.98 500.526 234.381 501.491 233.955C502.457 233.523 503.551 233.307 504.773 233.307C506.011 233.307 507.097 233.523 508.028 233.955C508.966 234.381 509.702 234.974 510.236 235.736C510.77 236.491 511.045 237.361 511.062 238.344H508.02ZM520.521 237.909V240.295H512.995V237.909H520.521ZM514.853 234.773H517.938V247.062C517.938 247.477 518.001 247.795 518.126 248.017C518.256 248.233 518.427 248.381 518.637 248.46C518.847 248.54 519.08 248.58 519.336 248.58C519.529 248.58 519.705 248.565 519.864 248.537C520.029 248.509 520.154 248.483 520.239 248.46L520.759 250.872C520.594 250.929 520.359 250.991 520.052 251.06C519.751 251.128 519.381 251.168 518.944 251.179C518.171 251.202 517.475 251.085 516.856 250.83C516.237 250.568 515.745 250.165 515.381 249.619C515.023 249.074 514.847 248.392 514.853 247.574V234.773ZM528.67 251.256C527.392 251.256 526.284 250.974 525.347 250.412C524.409 249.849 523.682 249.062 523.165 248.051C522.653 247.04 522.398 245.858 522.398 244.506C522.398 243.153 522.653 241.969 523.165 240.952C523.682 239.935 524.409 239.145 525.347 238.582C526.284 238.02 527.392 237.739 528.67 237.739C529.949 237.739 531.057 238.02 531.994 238.582C532.932 239.145 533.656 239.935 534.168 240.952C534.685 241.969 534.943 243.153 534.943 244.506C534.943 245.858 534.685 247.04 534.168 248.051C533.656 249.062 532.932 249.849 531.994 250.412C531.057 250.974 529.949 251.256 528.67 251.256ZM528.688 248.784C529.381 248.784 529.96 248.594 530.426 248.213C530.892 247.827 531.239 247.31 531.466 246.662C531.699 246.014 531.815 245.293 531.815 244.497C531.815 243.696 531.699 242.972 531.466 242.324C531.239 241.67 530.892 241.151 530.426 240.764C529.96 240.378 529.381 240.185 528.688 240.185C527.977 240.185 527.386 240.378 526.915 240.764C526.449 241.151 526.099 241.67 525.866 242.324C525.639 242.972 525.526 243.696 525.526 244.497C525.526 245.293 525.639 246.014 525.866 246.662C526.099 247.31 526.449 247.827 526.915 248.213C527.386 248.594 527.977 248.784 528.688 248.784ZM537.562 251V237.909H540.553V240.091H540.69C540.928 239.335 541.337 238.753 541.917 238.344C542.502 237.929 543.17 237.722 543.92 237.722C544.09 237.722 544.281 237.73 544.491 237.747C544.707 237.759 544.886 237.778 545.028 237.807V240.645C544.897 240.599 544.69 240.56 544.406 240.526C544.127 240.486 543.857 240.466 543.596 240.466C543.033 240.466 542.528 240.588 542.079 240.832C541.636 241.071 541.286 241.403 541.031 241.83C540.775 242.256 540.647 242.747 540.647 243.304V251H537.562ZM549.393 255.909C548.973 255.909 548.584 255.875 548.226 255.807C547.874 255.744 547.592 255.67 547.382 255.585L548.098 253.182C548.547 253.313 548.947 253.375 549.3 253.369C549.652 253.364 549.962 253.253 550.229 253.037C550.501 252.827 550.732 252.474 550.919 251.98L551.183 251.273L546.436 237.909H549.709L552.726 247.795H552.862L555.888 237.909H559.169L553.928 252.585C553.683 253.278 553.359 253.872 552.956 254.366C552.553 254.866 552.058 255.247 551.473 255.509C550.893 255.776 550.2 255.909 549.393 255.909Z" fill="#111111"/>
<rect width="2" height="115" transform="matrix(-1 0 0 1 720 93)" fill="#CCCCCC"/>
<rect x="620" y="208" width="198" height="69" rx="10" fill="#FFE3E3"/>
<path d="M677.701 242.273C677.701 244.153 677.349 245.764 676.644 247.105C675.945 248.44 674.991 249.463 673.781 250.173C672.576 250.884 671.21 251.239 669.681 251.239C668.153 251.239 666.783 250.884 665.573 250.173C664.369 249.457 663.414 248.432 662.71 247.097C662.011 245.756 661.661 244.148 661.661 242.273C661.661 240.392 662.011 238.784 662.71 237.449C663.414 236.108 664.369 235.082 665.573 234.372C666.783 233.662 668.153 233.307 669.681 233.307C671.21 233.307 672.576 233.662 673.781 234.372C674.991 235.082 675.945 236.108 676.644 237.449C677.349 238.784 677.701 240.392 677.701 242.273ZM674.522 242.273C674.522 240.949 674.315 239.832 673.9 238.923C673.491 238.009 672.923 237.318 672.195 236.852C671.468 236.381 670.63 236.145 669.681 236.145C668.732 236.145 667.894 236.381 667.167 236.852C666.44 237.318 665.869 238.009 665.454 238.923C665.045 239.832 664.84 240.949 664.84 242.273C664.84 243.597 665.045 244.716 665.454 245.631C665.869 246.54 666.44 247.23 667.167 247.702C667.894 248.168 668.732 248.401 669.681 248.401C670.63 248.401 671.468 248.168 672.195 247.702C672.923 247.23 673.491 246.54 673.9 245.631C674.315 244.716 674.522 243.597 674.522 242.273ZM688.898 245.494V237.909H691.983V251H688.991V248.673H688.855C688.56 249.406 688.074 250.006 687.398 250.472C686.727 250.937 685.901 251.17 684.918 251.17C684.06 251.17 683.301 250.98 682.642 250.599C681.989 250.213 681.477 249.653 681.108 248.92C680.739 248.182 680.554 247.29 680.554 246.244V237.909H683.639V245.767C683.639 246.597 683.866 247.256 684.321 247.744C684.776 248.233 685.372 248.477 686.111 248.477C686.565 248.477 687.006 248.366 687.432 248.145C687.858 247.923 688.207 247.594 688.48 247.156C688.759 246.713 688.898 246.159 688.898 245.494ZM695.156 251V237.909H698.147V240.091H698.283C698.522 239.335 698.931 238.753 699.511 238.344C700.096 237.929 700.763 237.722 701.513 237.722C701.684 237.722 701.874 237.73 702.085 237.747C702.3 237.759 702.479 237.778 702.621 237.807V240.645C702.491 240.599 702.283 240.56 701.999 240.526C701.721 240.486 701.451 240.466 701.19 240.466C700.627 240.466 700.121 240.588 699.673 240.832C699.229 241.071 698.88 241.403 698.624 241.83C698.369 242.256 698.241 242.747 698.241 243.304V251H695.156ZM710.761 251V233.545H717.442C718.704 233.545 719.752 233.744 720.587 234.142C721.428 234.534 722.056 235.071 722.471 235.753C722.891 236.435 723.102 237.207 723.102 238.071C723.102 238.781 722.965 239.389 722.692 239.895C722.42 240.395 722.053 240.801 721.593 241.114C721.133 241.426 720.619 241.651 720.05 241.787V241.957C720.67 241.991 721.263 242.182 721.832 242.528C722.406 242.869 722.874 243.352 723.238 243.977C723.602 244.602 723.783 245.358 723.783 246.244C723.783 247.148 723.565 247.96 723.127 248.682C722.69 249.398 722.031 249.963 721.15 250.378C720.269 250.793 719.161 251 717.826 251H710.761ZM713.923 248.358H717.323C718.471 248.358 719.298 248.139 719.803 247.702C720.315 247.259 720.57 246.69 720.57 245.997C720.57 245.48 720.442 245.014 720.187 244.599C719.931 244.179 719.567 243.849 719.096 243.611C718.624 243.366 718.062 243.244 717.408 243.244H713.923V248.358ZM713.923 240.969H717.05C717.596 240.969 718.087 240.869 718.525 240.67C718.962 240.466 719.306 240.179 719.556 239.81C719.812 239.435 719.94 238.991 719.94 238.48C719.94 237.804 719.701 237.247 719.224 236.81C718.752 236.372 718.05 236.153 717.119 236.153H713.923V240.969ZM726.398 251V237.909H729.389V240.091H729.526C729.764 239.335 730.173 238.753 730.753 238.344C731.338 237.929 732.006 237.722 732.756 237.722C732.926 237.722 733.116 237.73 733.327 237.747C733.543 237.759 733.722 237.778 733.864 237.807V240.645C733.733 240.599 733.526 240.56 733.241 240.526C732.963 240.486 732.693 240.466 732.432 240.466C731.869 240.466 731.364 240.588 730.915 240.832C730.472 241.071 730.122 241.403 729.866 241.83C729.611 242.256 729.483 242.747 729.483 243.304V251H726.398ZM739.446 251.264C738.616 251.264 737.869 251.116 737.205 250.821C736.545 250.52 736.023 250.077 735.636 249.491C735.256 248.906 735.065 248.185 735.065 247.327C735.065 246.588 735.202 245.977 735.474 245.494C735.747 245.011 736.119 244.625 736.591 244.335C737.063 244.045 737.594 243.827 738.185 243.679C738.781 243.526 739.398 243.415 740.034 243.347C740.801 243.267 741.423 243.196 741.901 243.134C742.378 243.065 742.724 242.963 742.94 242.827C743.162 242.685 743.273 242.466 743.273 242.17V242.119C743.273 241.477 743.082 240.98 742.702 240.628C742.321 240.276 741.773 240.099 741.057 240.099C740.301 240.099 739.702 240.264 739.259 240.594C738.821 240.923 738.526 241.312 738.372 241.761L735.491 241.352C735.719 240.557 736.094 239.892 736.616 239.358C737.139 238.818 737.778 238.415 738.534 238.148C739.29 237.875 740.125 237.739 741.04 237.739C741.67 237.739 742.298 237.812 742.923 237.96C743.548 238.108 744.119 238.352 744.636 238.693C745.153 239.028 745.568 239.486 745.881 240.065C746.199 240.645 746.358 241.369 746.358 242.239V251H743.392V249.202H743.29C743.102 249.565 742.838 249.906 742.497 250.224C742.162 250.537 741.739 250.79 741.227 250.983C740.722 251.17 740.128 251.264 739.446 251.264ZM740.247 248.997C740.866 248.997 741.403 248.875 741.858 248.631C742.313 248.381 742.662 248.051 742.906 247.642C743.156 247.233 743.281 246.787 743.281 246.304V244.761C743.185 244.841 743.02 244.915 742.787 244.983C742.56 245.051 742.304 245.111 742.02 245.162C741.736 245.213 741.455 245.259 741.176 245.298C740.898 245.338 740.656 245.372 740.452 245.401C739.991 245.463 739.58 245.565 739.216 245.707C738.852 245.849 738.565 246.048 738.355 246.304C738.145 246.554 738.04 246.878 738.04 247.276C738.04 247.844 738.247 248.273 738.662 248.562C739.077 248.852 739.605 248.997 740.247 248.997ZM752.545 243.33V251H749.46V237.909H752.409V240.134H752.562C752.864 239.401 753.344 238.818 754.003 238.386C754.668 237.955 755.489 237.739 756.466 237.739C757.369 237.739 758.156 237.932 758.827 238.318C759.503 238.705 760.026 239.264 760.395 239.997C760.77 240.73 760.955 241.619 760.949 242.665V251H757.864V243.142C757.864 242.267 757.636 241.582 757.182 241.088C756.733 240.594 756.111 240.347 755.315 240.347C754.776 240.347 754.295 240.466 753.875 240.705C753.46 240.937 753.134 241.276 752.895 241.719C752.662 242.162 752.545 242.699 752.545 243.33ZM768.943 251.23C767.915 251.23 766.994 250.966 766.182 250.438C765.369 249.909 764.727 249.142 764.256 248.136C763.784 247.131 763.548 245.909 763.548 244.472C763.548 243.017 763.787 241.79 764.264 240.79C764.747 239.784 765.398 239.026 766.216 238.514C767.034 237.997 767.946 237.739 768.952 237.739C769.719 237.739 770.349 237.869 770.844 238.131C771.338 238.386 771.73 238.696 772.02 239.06C772.31 239.418 772.534 239.756 772.693 240.074H772.821V233.545H775.915V251H772.881V248.938H772.693C772.534 249.256 772.304 249.594 772.003 249.952C771.702 250.304 771.304 250.605 770.81 250.855C770.315 251.105 769.693 251.23 768.943 251.23ZM769.804 248.699C770.457 248.699 771.014 248.523 771.474 248.17C771.935 247.812 772.284 247.315 772.523 246.679C772.761 246.043 772.881 245.301 772.881 244.455C772.881 243.608 772.761 242.872 772.523 242.247C772.29 241.622 771.943 241.136 771.483 240.79C771.028 240.443 770.469 240.27 769.804 240.27C769.116 240.27 768.543 240.449 768.082 240.807C767.622 241.165 767.276 241.659 767.043 242.29C766.81 242.92 766.693 243.642 766.693 244.455C766.693 245.273 766.81 246.003 767.043 246.645C767.281 247.281 767.631 247.784 768.091 248.153C768.557 248.517 769.128 248.699 769.804 248.699Z" fill="#111111"/>
<rect width="2" height="115" transform="matrix(-1 0 0 1 903.5 93)" fill="#CCCCCC"/>
<rect x="838" y="208" width="129" height="69" rx="10" fill="#FFE3E3"/>
<path d="M880.081 251V233.545H891.433V236.196H883.243V240.935H890.845V243.585H883.243V248.349H891.501V251H880.081ZM904.145 238.344C904.065 237.599 903.73 237.02 903.139 236.605C902.554 236.19 901.793 235.983 900.855 235.983C900.196 235.983 899.631 236.082 899.159 236.281C898.688 236.48 898.327 236.75 898.077 237.091C897.827 237.432 897.699 237.821 897.693 238.259C897.693 238.622 897.776 238.937 897.94 239.205C898.111 239.472 898.341 239.699 898.631 239.886C898.92 240.068 899.241 240.222 899.594 240.347C899.946 240.472 900.301 240.577 900.659 240.662L902.295 241.071C902.955 241.224 903.588 241.432 904.196 241.693C904.81 241.955 905.358 242.284 905.841 242.682C906.33 243.08 906.716 243.56 907 244.122C907.284 244.685 907.426 245.344 907.426 246.099C907.426 247.122 907.165 248.023 906.642 248.801C906.119 249.574 905.364 250.179 904.375 250.616C903.392 251.048 902.202 251.264 900.804 251.264C899.446 251.264 898.267 251.054 897.267 250.634C896.273 250.213 895.494 249.599 894.932 248.793C894.375 247.986 894.074 247.003 894.028 245.844H897.139C897.185 246.452 897.372 246.957 897.702 247.361C898.031 247.764 898.46 248.065 898.989 248.264C899.523 248.463 900.119 248.562 900.778 248.562C901.466 248.562 902.068 248.46 902.585 248.256C903.108 248.045 903.517 247.756 903.812 247.386C904.108 247.011 904.259 246.574 904.264 246.074C904.259 245.619 904.125 245.244 903.864 244.949C903.602 244.648 903.236 244.398 902.764 244.199C902.298 243.994 901.753 243.812 901.128 243.653L899.142 243.142C897.705 242.773 896.568 242.213 895.733 241.463C894.903 240.707 894.489 239.705 894.489 238.455C894.489 237.426 894.767 236.526 895.324 235.753C895.886 234.98 896.651 234.381 897.616 233.955C898.582 233.523 899.676 233.307 900.898 233.307C902.136 233.307 903.222 233.523 904.153 233.955C905.091 234.381 905.827 234.974 906.361 235.736C906.895 236.491 907.17 237.361 907.188 238.344H904.145ZM921.938 239.119C921.796 238.659 921.6 238.247 921.35 237.884C921.106 237.514 920.81 237.199 920.464 236.938C920.123 236.676 919.731 236.48 919.288 236.349C918.844 236.213 918.362 236.145 917.839 236.145C916.901 236.145 916.066 236.381 915.333 236.852C914.6 237.324 914.023 238.017 913.603 238.932C913.188 239.841 912.981 240.949 912.981 242.256C912.981 243.574 913.188 244.69 913.603 245.605C914.018 246.52 914.594 247.216 915.333 247.693C916.072 248.165 916.93 248.401 917.907 248.401C918.793 248.401 919.56 248.23 920.208 247.889C920.862 247.548 921.364 247.065 921.717 246.44C922.069 245.81 922.245 245.071 922.245 244.224L922.961 244.335H918.222V241.864H925.305V243.96C925.305 245.455 924.987 246.747 924.35 247.838C923.714 248.929 922.839 249.77 921.725 250.361C920.612 250.946 919.333 251.239 917.89 251.239C916.282 251.239 914.87 250.878 913.654 250.156C912.444 249.429 911.498 248.398 910.816 247.062C910.14 245.722 909.802 244.131 909.802 242.29C909.802 240.881 910.001 239.622 910.398 238.514C910.802 237.406 911.364 236.466 912.086 235.693C912.808 234.915 913.654 234.324 914.626 233.92C915.597 233.511 916.654 233.307 917.796 233.307C918.762 233.307 919.663 233.449 920.498 233.733C921.333 234.011 922.075 234.409 922.722 234.926C923.376 235.443 923.913 236.057 924.333 236.767C924.754 237.477 925.029 238.261 925.16 239.119H921.938Z" fill="#111111"/>
<rect width="2" height="115" transform="matrix(-1 0 0 1 1061 93)" fill="#CCCCCC"/>
<rect x="987" y="208" width="146" height="69" rx="10" fill="#FFE3E3"/>
<path d="M1043.46 233.545V251H1040.65L1032.43 239.111H1032.28V251H1029.12V233.545H1031.95L1040.17 245.443H1040.32V233.545H1043.46ZM1052.57 251.256C1051.26 251.256 1050.12 250.983 1049.17 250.438C1048.22 249.886 1047.49 249.108 1046.98 248.102C1046.47 247.091 1046.21 245.901 1046.21 244.531C1046.21 243.185 1046.47 242.003 1046.98 240.986C1047.49 239.963 1048.22 239.168 1049.14 238.599C1050.07 238.026 1051.16 237.739 1052.41 237.739C1053.21 237.739 1053.97 237.869 1054.69 238.131C1055.41 238.386 1056.05 238.784 1056.6 239.324C1057.16 239.864 1057.59 240.551 1057.91 241.386C1058.23 242.216 1058.39 243.205 1058.39 244.352V245.298H1047.66V243.219H1055.43C1055.43 242.628 1055.3 242.102 1055.05 241.642C1054.8 241.176 1054.45 240.81 1054 240.543C1053.56 240.276 1053.04 240.142 1052.45 240.142C1051.82 240.142 1051.26 240.295 1050.79 240.602C1050.31 240.903 1049.94 241.301 1049.67 241.795C1049.41 242.284 1049.28 242.821 1049.27 243.406V245.222C1049.27 245.983 1049.41 246.636 1049.69 247.182C1049.97 247.722 1050.36 248.136 1050.86 248.426C1051.36 248.71 1051.94 248.852 1052.61 248.852C1053.06 248.852 1053.47 248.79 1053.83 248.665C1054.19 248.534 1054.51 248.344 1054.78 248.094C1055.04 247.844 1055.24 247.534 1055.38 247.165L1058.26 247.489C1058.08 248.25 1057.73 248.915 1057.22 249.483C1056.72 250.045 1056.07 250.483 1055.28 250.795C1054.49 251.102 1053.59 251.256 1052.57 251.256ZM1063.63 251L1059.93 237.909H1063.08L1065.38 247.114H1065.5L1067.85 237.909H1070.96L1073.31 247.062H1073.44L1075.71 237.909H1078.86L1075.15 251H1071.94L1069.49 242.153H1069.31L1066.85 251H1063.63ZM1091.36 241.369L1088.55 241.676C1088.47 241.392 1088.33 241.125 1088.13 240.875C1087.94 240.625 1087.68 240.423 1087.35 240.27C1087.02 240.116 1086.61 240.04 1086.14 240.04C1085.5 240.04 1084.96 240.179 1084.52 240.457C1084.09 240.736 1083.87 241.097 1083.88 241.54C1083.87 241.92 1084.01 242.23 1084.3 242.469C1084.59 242.707 1085.06 242.903 1085.73 243.057L1087.96 243.534C1089.2 243.801 1090.12 244.224 1090.72 244.804C1091.33 245.384 1091.64 246.142 1091.64 247.08C1091.64 247.903 1091.4 248.631 1090.92 249.261C1090.45 249.886 1089.79 250.375 1088.95 250.727C1088.11 251.08 1087.14 251.256 1086.05 251.256C1084.45 251.256 1083.16 250.92 1082.18 250.25C1081.21 249.574 1080.62 248.634 1080.44 247.429L1083.44 247.139C1083.58 247.73 1083.87 248.176 1084.31 248.477C1084.76 248.778 1085.33 248.929 1086.04 248.929C1086.78 248.929 1087.36 248.778 1087.81 248.477C1088.26 248.176 1088.48 247.804 1088.48 247.361C1088.48 246.986 1088.34 246.676 1088.05 246.432C1087.76 246.187 1087.32 246 1086.72 245.869L1084.48 245.401C1083.23 245.139 1082.3 244.699 1081.7 244.08C1081.09 243.455 1080.8 242.665 1080.8 241.71C1080.8 240.903 1081.01 240.205 1081.46 239.614C1081.91 239.017 1082.53 238.557 1083.32 238.233C1084.13 237.903 1085.05 237.739 1086.09 237.739C1087.63 237.739 1088.84 238.065 1089.72 238.719C1090.6 239.372 1091.15 240.256 1091.36 241.369Z" fill="#111111"/>
<rect width="2" height="115" transform="matrix(-1 0 0 1 1232 93)" fill="#CCCCCC"/>
<rect x="1153" y="208" width="156" height="69" rx="10" fill="#FFE3E3"/>
<path d="M1195.21 251V233.545H1206.39V236.196H1198.37V240.935H1205.62V243.585H1198.37V251H1195.21ZM1213.89 251.256C1212.61 251.256 1211.5 250.974 1210.56 250.412C1209.62 249.849 1208.9 249.062 1208.38 248.051C1207.87 247.04 1207.61 245.858 1207.61 244.506C1207.61 243.153 1207.87 241.969 1208.38 240.952C1208.9 239.935 1209.62 239.145 1210.56 238.582C1211.5 238.02 1212.61 237.739 1213.89 237.739C1215.16 237.739 1216.27 238.02 1217.21 238.582C1218.15 239.145 1218.87 239.935 1219.38 240.952C1219.9 241.969 1220.16 243.153 1220.16 244.506C1220.16 245.858 1219.9 247.04 1219.38 248.051C1218.87 249.062 1218.15 249.849 1217.21 250.412C1216.27 250.974 1215.16 251.256 1213.89 251.256ZM1213.9 248.784C1214.6 248.784 1215.18 248.594 1215.64 248.213C1216.11 247.827 1216.45 247.31 1216.68 246.662C1216.91 246.014 1217.03 245.293 1217.03 244.497C1217.03 243.696 1216.91 242.972 1216.68 242.324C1216.45 241.67 1216.11 241.151 1215.64 240.764C1215.18 240.378 1214.6 240.185 1213.9 240.185C1213.19 240.185 1212.6 240.378 1212.13 240.764C1211.66 241.151 1211.31 241.67 1211.08 242.324C1210.85 242.972 1210.74 243.696 1210.74 244.497C1210.74 245.293 1210.85 246.014 1211.08 246.662C1211.31 247.31 1211.66 247.827 1212.13 248.213C1212.6 248.594 1213.19 248.784 1213.9 248.784ZM1228.49 251.256C1227.21 251.256 1226.1 250.974 1225.16 250.412C1224.23 249.849 1223.5 249.062 1222.98 248.051C1222.47 247.04 1222.21 245.858 1222.21 244.506C1222.21 243.153 1222.47 241.969 1222.98 240.952C1223.5 239.935 1224.23 239.145 1225.16 238.582C1226.1 238.02 1227.21 237.739 1228.49 237.739C1229.77 237.739 1230.87 238.02 1231.81 238.582C1232.75 239.145 1233.47 239.935 1233.98 240.952C1234.5 241.969 1234.76 243.153 1234.76 244.506C1234.76 245.858 1234.5 247.04 1233.98 248.051C1233.47 249.062 1232.75 249.849 1231.81 250.412C1230.87 250.974 1229.77 251.256 1228.49 251.256ZM1228.5 248.784C1229.2 248.784 1229.78 248.594 1230.24 248.213C1230.71 247.827 1231.06 247.31 1231.28 246.662C1231.52 246.014 1231.63 245.293 1231.63 244.497C1231.63 243.696 1231.52 242.972 1231.28 242.324C1231.06 241.67 1230.71 241.151 1230.24 240.764C1229.78 240.378 1229.2 240.185 1228.5 240.185C1227.79 240.185 1227.2 240.378 1226.73 240.764C1226.27 241.151 1225.92 241.67 1225.68 242.324C1225.46 242.972 1225.34 243.696 1225.34 244.497C1225.34 245.293 1225.46 246.014 1225.68 246.662C1225.92 247.31 1226.27 247.827 1226.73 248.213C1227.2 248.594 1227.79 248.784 1228.5 248.784ZM1243.92 237.909V240.295H1236.39V237.909H1243.92ZM1238.25 234.773H1241.33V247.062C1241.33 247.477 1241.4 247.795 1241.52 248.017C1241.65 248.233 1241.82 248.381 1242.03 248.46C1242.24 248.54 1242.47 248.58 1242.73 248.58C1242.92 248.58 1243.1 248.565 1243.26 248.537C1243.42 248.509 1243.55 248.483 1243.63 248.46L1244.15 250.872C1243.99 250.929 1243.75 250.991 1243.45 251.06C1243.15 251.128 1242.78 251.168 1242.34 251.179C1241.57 251.202 1240.87 251.085 1240.25 250.83C1239.63 250.568 1239.14 250.165 1238.78 249.619C1238.42 249.074 1238.24 248.392 1238.25 247.574V234.773ZM1252.15 251.256C1250.84 251.256 1249.7 250.983 1248.75 250.438C1247.8 249.886 1247.07 249.108 1246.56 248.102C1246.05 247.091 1245.79 245.901 1245.79 244.531C1245.79 243.185 1246.05 242.003 1246.56 240.986C1247.08 239.963 1247.8 239.168 1248.72 238.599C1249.65 238.026 1250.74 237.739 1251.99 237.739C1252.8 237.739 1253.56 237.869 1254.27 238.131C1254.99 238.386 1255.63 238.784 1256.18 239.324C1256.74 239.864 1257.18 240.551 1257.49 241.386C1257.81 242.216 1257.97 243.205 1257.97 244.352V245.298H1247.24V243.219H1255.01C1255.01 242.628 1254.88 242.102 1254.63 241.642C1254.38 241.176 1254.03 240.81 1253.58 240.543C1253.14 240.276 1252.62 240.142 1252.03 240.142C1251.4 240.142 1250.85 240.295 1250.37 240.602C1249.89 240.903 1249.52 241.301 1249.25 241.795C1248.99 242.284 1248.86 242.821 1248.85 243.406V245.222C1248.85 245.983 1248.99 246.636 1249.27 247.182C1249.55 247.722 1249.94 248.136 1250.44 248.426C1250.94 248.71 1251.52 248.852 1252.19 248.852C1252.64 248.852 1253.05 248.79 1253.41 248.665C1253.78 248.534 1254.09 248.344 1254.36 248.094C1254.62 247.844 1254.83 247.534 1254.96 247.165L1257.84 247.489C1257.66 248.25 1257.31 248.915 1256.8 249.483C1256.3 250.045 1255.65 250.483 1254.86 250.795C1254.07 251.102 1253.17 251.256 1252.15 251.256ZM1260.58 251V237.909H1263.57V240.091H1263.71C1263.95 239.335 1264.36 238.753 1264.94 238.344C1265.52 237.929 1266.19 237.722 1266.94 237.722C1267.11 237.722 1267.3 237.73 1267.51 237.747C1267.73 237.759 1267.91 237.778 1268.05 237.807V240.645C1267.92 240.599 1267.71 240.56 1267.43 240.526C1267.15 240.486 1266.88 240.466 1266.62 240.466C1266.05 240.466 1265.55 240.588 1265.1 240.832C1264.66 241.071 1264.31 241.403 1264.05 241.83C1263.79 242.256 1263.67 242.747 1263.67 243.304V251H1260.58Z" fill="#111111"/>
<rect width="1166" height="2" transform="translate(65 92)" fill="#CCCCCC"/>
</svg>
