<svg width="1309" height="213" viewBox="0 0 1309 213" fill="none" xmlns="http://www.w3.org/2000/svg">
<rect x="554" width="201" height="69" rx="10" fill="white"/>
<path d="M596.034 25.5455H599.903L605.085 38.1932H605.29L610.472 25.5455H614.341V43H611.307V31.0085H611.145L606.321 42.9489H604.054L599.23 30.983H599.068V43H596.034V25.5455ZM621.415 43.2642C620.585 43.2642 619.838 43.1165 619.173 42.821C618.514 42.5199 617.991 42.0767 617.605 41.4915C617.224 40.9062 617.034 40.1847 617.034 39.3267C617.034 38.5881 617.17 37.9773 617.443 37.4943C617.716 37.0114 618.088 36.625 618.56 36.3352C619.031 36.0455 619.563 35.8267 620.153 35.679C620.75 35.5256 621.366 35.4148 622.003 35.3466C622.77 35.267 623.392 35.196 623.869 35.1335C624.347 35.0653 624.693 34.9631 624.909 34.8267C625.131 34.6847 625.241 34.4659 625.241 34.1705V34.1193C625.241 33.4773 625.051 32.9801 624.67 32.6278C624.29 32.2756 623.741 32.0994 623.026 32.0994C622.27 32.0994 621.67 32.2642 621.227 32.5938C620.79 32.9233 620.494 33.3125 620.341 33.7614L617.46 33.3523C617.688 32.5568 618.063 31.892 618.585 31.358C619.108 30.8182 619.747 30.4148 620.503 30.1477C621.259 29.875 622.094 29.7386 623.009 29.7386C623.639 29.7386 624.267 29.8125 624.892 29.9602C625.517 30.108 626.088 30.3523 626.605 30.6932C627.122 31.0284 627.537 31.4858 627.849 32.0653C628.168 32.6449 628.327 33.3693 628.327 34.2386V43H625.361V41.2017H625.259C625.071 41.5653 624.807 41.9062 624.466 42.2244C624.131 42.5369 623.707 42.7898 623.196 42.983C622.69 43.1705 622.097 43.2642 621.415 43.2642ZM622.216 40.9972C622.835 40.9972 623.372 40.875 623.827 40.6307C624.281 40.3807 624.631 40.0511 624.875 39.642C625.125 39.233 625.25 38.7869 625.25 38.304V36.7614C625.153 36.8409 624.989 36.9148 624.756 36.983C624.528 37.0511 624.273 37.1108 623.989 37.1619C623.705 37.2131 623.423 37.2585 623.145 37.2983C622.866 37.3381 622.625 37.3722 622.42 37.4006C621.96 37.4631 621.548 37.5653 621.185 37.7074C620.821 37.8494 620.534 38.0483 620.324 38.304C620.114 38.554 620.009 38.8778 620.009 39.2756C620.009 39.8438 620.216 40.2727 620.631 40.5625C621.045 40.8523 621.574 40.9972 622.216 40.9972ZM631.429 43V29.9091H634.514V43H631.429ZM632.98 28.0511C632.491 28.0511 632.071 27.8892 631.719 27.5653C631.366 27.2358 631.19 26.8409 631.19 26.3807C631.19 25.9148 631.366 25.5199 631.719 25.196C632.071 24.8665 632.491 24.7017 632.98 24.7017C633.474 24.7017 633.895 24.8665 634.241 25.196C634.594 25.5199 634.77 25.9148 634.77 26.3807C634.77 26.8409 634.594 27.2358 634.241 27.5653C633.895 27.8892 633.474 28.0511 632.98 28.0511ZM640.772 35.3295V43H637.687V29.9091H640.636V32.1335H640.789C641.09 31.4006 641.57 30.8182 642.229 30.3864C642.894 29.9545 643.715 29.7386 644.692 29.7386C645.596 29.7386 646.383 29.9318 647.053 30.3182C647.729 30.7045 648.252 31.2642 648.621 31.9972C648.996 32.7301 649.181 33.6193 649.175 34.6648V43H646.09V35.142C646.09 34.267 645.863 33.5824 645.408 33.0881C644.96 32.5937 644.337 32.3466 643.542 32.3466C643.002 32.3466 642.522 32.4659 642.102 32.7045C641.687 32.9375 641.36 33.2756 641.121 33.7188C640.888 34.1619 640.772 34.6989 640.772 35.3295ZM658.265 47.9091V29.9091H661.299V32.0739H661.478C661.637 31.7557 661.862 31.4176 662.151 31.0597C662.441 30.696 662.833 30.3864 663.327 30.1307C663.822 29.8693 664.452 29.7386 665.219 29.7386C666.231 29.7386 667.143 29.9972 667.955 30.5142C668.773 31.0256 669.421 31.7841 669.898 32.7898C670.381 33.7898 670.623 35.017 670.623 36.4716C670.623 37.9091 670.387 39.1307 669.915 40.1364C669.444 41.142 668.802 41.9091 667.989 42.4375C667.177 42.9659 666.256 43.2301 665.228 43.2301C664.478 43.2301 663.856 43.1051 663.362 42.8551C662.867 42.6051 662.469 42.304 662.168 41.9517C661.873 41.5937 661.643 41.2557 661.478 40.9375H661.35V47.9091H658.265ZM661.29 36.4545C661.29 37.3011 661.41 38.0426 661.648 38.679C661.893 39.3153 662.242 39.8125 662.697 40.1705C663.157 40.5227 663.714 40.6989 664.367 40.6989C665.049 40.6989 665.62 40.517 666.08 40.1534C666.54 39.7841 666.887 39.2812 667.12 38.6449C667.359 38.0028 667.478 37.2727 667.478 36.4545C667.478 35.642 667.362 34.9205 667.129 34.2898C666.896 33.6591 666.549 33.1648 666.089 32.8068C665.629 32.4489 665.055 32.2699 664.367 32.2699C663.708 32.2699 663.148 32.4432 662.688 32.7898C662.228 33.1364 661.879 33.6222 661.64 34.2472C661.407 34.8722 661.29 35.608 661.29 36.4545ZM677.032 43.2642C676.202 43.2642 675.455 43.1165 674.79 42.821C674.131 42.5199 673.609 42.0767 673.222 41.4915C672.842 40.9062 672.651 40.1847 672.651 39.3267C672.651 38.5881 672.788 37.9773 673.06 37.4943C673.333 37.0114 673.705 36.625 674.177 36.3352C674.648 36.0455 675.18 35.8267 675.771 35.679C676.367 35.5256 676.984 35.4148 677.62 35.3466C678.387 35.267 679.009 35.196 679.487 35.1335C679.964 35.0653 680.31 34.9631 680.526 34.8267C680.748 34.6847 680.859 34.4659 680.859 34.1705V34.1193C680.859 33.4773 680.668 32.9801 680.288 32.6278C679.907 32.2756 679.359 32.0994 678.643 32.0994C677.887 32.0994 677.288 32.2642 676.844 32.5938C676.407 32.9233 676.112 33.3125 675.958 33.7614L673.077 33.3523C673.305 32.5568 673.68 31.892 674.202 31.358C674.725 30.8182 675.364 30.4148 676.12 30.1477C676.876 29.875 677.711 29.7386 678.626 29.7386C679.256 29.7386 679.884 29.8125 680.509 29.9602C681.134 30.108 681.705 30.3523 682.222 30.6932C682.739 31.0284 683.154 31.4858 683.467 32.0653C683.785 32.6449 683.944 33.3693 683.944 34.2386V43H680.978V41.2017H680.876C680.688 41.5653 680.424 41.9062 680.083 42.2244C679.748 42.5369 679.325 42.7898 678.813 42.983C678.308 43.1705 677.714 43.2642 677.032 43.2642ZM677.833 40.9972C678.452 40.9972 678.989 40.875 679.444 40.6307C679.898 40.3807 680.248 40.0511 680.492 39.642C680.742 39.233 680.867 38.7869 680.867 38.304V36.7614C680.771 36.8409 680.606 36.9148 680.373 36.983C680.146 37.0511 679.89 37.1108 679.606 37.1619C679.322 37.2131 679.04 37.2585 678.762 37.2983C678.484 37.3381 678.242 37.3722 678.038 37.4006C677.577 37.4631 677.165 37.5653 676.802 37.7074C676.438 37.8494 676.151 38.0483 675.941 38.304C675.731 38.554 675.626 38.8778 675.626 39.2756C675.626 39.8438 675.833 40.2727 676.248 40.5625C676.663 40.8523 677.191 40.9972 677.833 40.9972ZM692.739 48.1818C691.631 48.1818 690.68 48.0313 689.884 47.7301C689.089 47.4347 688.45 47.0369 687.967 46.5369C687.484 46.0369 687.148 45.483 686.961 44.875L689.739 44.2017C689.864 44.4574 690.046 44.7102 690.285 44.9602C690.523 45.2159 690.844 45.4261 691.248 45.5909C691.657 45.7614 692.171 45.8466 692.79 45.8466C693.665 45.8466 694.39 45.6335 694.964 45.2074C695.538 44.7869 695.825 44.0938 695.825 43.1278V40.6477H695.671C695.512 40.9659 695.279 41.2926 694.972 41.6278C694.671 41.9631 694.271 42.2443 693.771 42.4716C693.276 42.6989 692.654 42.8125 691.904 42.8125C690.898 42.8125 689.987 42.5767 689.168 42.1051C688.356 41.6278 687.708 40.9176 687.225 39.9744C686.748 39.0256 686.509 37.8381 686.509 36.4119C686.509 34.9744 686.748 33.7614 687.225 32.7727C687.708 31.7784 688.359 31.0256 689.177 30.5142C689.995 29.9972 690.907 29.7386 691.913 29.7386C692.68 29.7386 693.31 29.8693 693.805 30.1307C694.305 30.3864 694.702 30.696 694.998 31.0597C695.293 31.4176 695.518 31.7557 695.671 32.0739H695.842V29.9091H698.884V43.2131C698.884 44.3324 698.617 45.2585 698.083 45.9915C697.549 46.7244 696.819 47.2727 695.893 47.6364C694.967 48 693.915 48.1818 692.739 48.1818ZM692.765 40.392C693.418 40.392 693.975 40.233 694.435 39.9148C694.896 39.5966 695.245 39.1392 695.484 38.5426C695.722 37.946 695.842 37.2301 695.842 36.3949C695.842 35.571 695.722 34.8494 695.484 34.2301C695.251 33.6108 694.904 33.1307 694.444 32.7898C693.989 32.4432 693.43 32.2699 692.765 32.2699C692.077 32.2699 691.504 32.4489 691.043 32.8068C690.583 33.1648 690.237 33.6562 690.004 34.2812C689.771 34.9006 689.654 35.6051 689.654 36.3949C689.654 37.196 689.771 37.8977 690.004 38.5C690.242 39.0966 690.592 39.5625 691.052 39.8977C691.518 40.2273 692.089 40.392 692.765 40.392ZM707.842 43.2557C706.529 43.2557 705.396 42.983 704.441 42.4375C703.492 41.8864 702.762 41.108 702.251 40.1023C701.739 39.0909 701.484 37.9006 701.484 36.5312C701.484 35.1847 701.739 34.0028 702.251 32.9858C702.768 31.9631 703.489 31.1676 704.415 30.5994C705.342 30.0256 706.43 29.7386 707.68 29.7386C708.487 29.7386 709.248 29.8693 709.964 30.1307C710.685 30.3864 711.322 30.7841 711.873 31.3239C712.43 31.8636 712.867 32.5511 713.185 33.3864C713.504 34.2159 713.663 35.2045 713.663 36.3523V37.2983H702.933V35.2188H710.705C710.7 34.6278 710.572 34.1023 710.322 33.642C710.072 33.1761 709.722 32.8097 709.273 32.5426C708.83 32.2756 708.313 32.142 707.722 32.142C707.092 32.142 706.538 32.2955 706.06 32.6023C705.583 32.9034 705.211 33.3011 704.944 33.7955C704.683 34.2841 704.549 34.821 704.543 35.4062V37.2216C704.543 37.983 704.683 38.6364 704.961 39.1818C705.239 39.7216 705.629 40.1364 706.129 40.4261C706.629 40.7102 707.214 40.8523 707.884 40.8523C708.333 40.8523 708.739 40.7898 709.103 40.6648C709.467 40.5341 709.782 40.3438 710.049 40.0938C710.316 39.8438 710.518 39.5341 710.654 39.1648L713.535 39.4886C713.353 40.25 713.006 40.9148 712.495 41.483C711.989 42.0455 711.342 42.483 710.552 42.7955C709.762 43.1023 708.859 43.2557 707.842 43.2557Z" fill="#111111"/>
<path d="M655.5 69C655.776 69 656 69.2239 656 69.5V106.5H932.5C932.776 106.5 933 106.724 933 107V151.868C933 152.144 932.776 152.368 932.5 152.368C932.224 152.368 932 152.144 932 151.868V107.5H656V152.849C656 153.125 655.776 153.349 655.5 153.349C655.224 153.349 655 153.125 655 152.849V107.5H377V151.868C377 152.144 376.776 152.368 376.5 152.368C376.224 152.368 376 152.144 376 151.868V107C376 106.724 376.224 106.5 376.5 106.5H655V69.5C655 69.2239 655.224 69 655.5 69Z" fill="#CCCCCC"/>
<rect x="317.5" y="143" width="132" height="69" rx="10" fill="#D4D4D4"/>
<path d="M371.075 174.119C370.933 173.659 370.737 173.247 370.487 172.884C370.243 172.514 369.947 172.199 369.6 171.938C369.26 171.676 368.868 171.48 368.424 171.349C367.981 171.213 367.498 171.145 366.975 171.145C366.038 171.145 365.203 171.381 364.47 171.852C363.737 172.324 363.16 173.017 362.74 173.932C362.325 174.841 362.118 175.949 362.118 177.256C362.118 178.574 362.325 179.69 362.74 180.605C363.154 181.52 363.731 182.216 364.47 182.693C365.208 183.165 366.066 183.401 367.044 183.401C367.93 183.401 368.697 183.23 369.345 182.889C369.998 182.548 370.501 182.065 370.853 181.44C371.206 180.81 371.382 180.071 371.382 179.224L372.098 179.335H367.359V176.864H374.441V178.96C374.441 180.455 374.123 181.747 373.487 182.838C372.85 183.929 371.975 184.77 370.862 185.361C369.748 185.946 368.47 186.239 367.027 186.239C365.419 186.239 364.007 185.878 362.791 185.156C361.581 184.429 360.635 183.398 359.953 182.062C359.277 180.722 358.939 179.131 358.939 177.29C358.939 175.881 359.137 174.622 359.535 173.514C359.939 172.406 360.501 171.466 361.223 170.693C361.944 169.915 362.791 169.324 363.762 168.92C364.734 168.511 365.791 168.307 366.933 168.307C367.899 168.307 368.799 168.449 369.635 168.733C370.47 169.011 371.211 169.409 371.859 169.926C372.512 170.443 373.049 171.057 373.47 171.767C373.89 172.477 374.166 173.261 374.297 174.119H371.075ZM391.843 168.545V186H389.03L380.806 174.111H380.661V186H377.499V168.545H380.328L388.544 180.443H388.698V168.545H391.843ZM395.288 186V168.545H401.97C403.231 168.545 404.279 168.744 405.115 169.142C405.956 169.534 406.583 170.071 406.998 170.753C407.419 171.435 407.629 172.207 407.629 173.071C407.629 173.781 407.493 174.389 407.22 174.895C406.947 175.395 406.581 175.801 406.12 176.114C405.66 176.426 405.146 176.651 404.578 176.787V176.957C405.197 176.991 405.791 177.182 406.359 177.528C406.933 177.869 407.402 178.352 407.765 178.977C408.129 179.602 408.311 180.358 408.311 181.244C408.311 182.148 408.092 182.96 407.654 183.682C407.217 184.398 406.558 184.963 405.677 185.378C404.797 185.793 403.689 186 402.353 186H395.288ZM398.45 183.358H401.85C402.998 183.358 403.825 183.139 404.331 182.702C404.842 182.259 405.098 181.69 405.098 180.997C405.098 180.48 404.97 180.014 404.714 179.599C404.458 179.179 404.095 178.849 403.623 178.611C403.152 178.366 402.589 178.244 401.936 178.244H398.45V183.358ZM398.45 175.969H401.578C402.123 175.969 402.615 175.869 403.052 175.67C403.49 175.466 403.833 175.179 404.083 174.81C404.339 174.435 404.467 173.991 404.467 173.48C404.467 172.804 404.228 172.247 403.751 171.81C403.279 171.372 402.578 171.153 401.646 171.153H398.45V175.969Z" fill="#111111"/>
<rect x="555.5" y="143.5" width="198" height="69" rx="10" fill="#D4D4D4"/>
<path d="M597.499 186.5V169.045H608.681V171.696H600.661V176.435H607.914V179.085H600.661V186.5H597.499ZM618.949 180.994V173.409H622.034V186.5H619.042V184.173H618.906C618.61 184.906 618.125 185.506 617.449 185.972C616.778 186.437 615.951 186.67 614.968 186.67C614.11 186.67 613.352 186.48 612.693 186.099C612.039 185.713 611.528 185.153 611.159 184.42C610.789 183.682 610.605 182.79 610.605 181.744V173.409H613.69V181.267C613.69 182.097 613.917 182.756 614.372 183.244C614.826 183.733 615.423 183.977 616.162 183.977C616.616 183.977 617.056 183.866 617.483 183.645C617.909 183.423 618.258 183.094 618.531 182.656C618.809 182.213 618.949 181.659 618.949 180.994ZM628.292 169.045V186.5H625.206V169.045H628.292ZM634.549 169.045V186.5H631.464V169.045H634.549ZM646.973 169.045V186.5H643.811V169.045H646.973ZM650.261 186.5V173.409H653.21V175.634H653.363C653.636 174.884 654.088 174.298 654.718 173.878C655.349 173.452 656.102 173.239 656.977 173.239C657.863 173.239 658.61 173.455 659.218 173.886C659.832 174.312 660.264 174.895 660.514 175.634H660.65C660.94 174.906 661.429 174.327 662.116 173.895C662.809 173.457 663.63 173.239 664.579 173.239C665.784 173.239 666.767 173.619 667.528 174.381C668.289 175.142 668.67 176.253 668.67 177.713V186.5H665.576V178.19C665.576 177.378 665.36 176.784 664.929 176.409C664.497 176.028 663.968 175.838 663.343 175.838C662.599 175.838 662.017 176.071 661.596 176.537C661.181 176.997 660.974 177.597 660.974 178.335V186.5H657.949V178.062C657.949 177.386 657.744 176.847 657.335 176.443C656.931 176.04 656.403 175.838 655.75 175.838C655.306 175.838 654.903 175.952 654.539 176.179C654.176 176.401 653.886 176.716 653.67 177.125C653.454 177.528 653.346 178 653.346 178.54V186.5H650.261ZM675.567 186.764C674.738 186.764 673.99 186.616 673.326 186.321C672.667 186.02 672.144 185.577 671.757 184.991C671.377 184.406 671.186 183.685 671.186 182.827C671.186 182.088 671.323 181.477 671.596 180.994C671.868 180.511 672.24 180.125 672.712 179.835C673.184 179.545 673.715 179.327 674.306 179.179C674.902 179.026 675.519 178.915 676.155 178.847C676.922 178.767 677.544 178.696 678.022 178.634C678.499 178.565 678.846 178.463 679.061 178.327C679.283 178.185 679.394 177.966 679.394 177.67V177.619C679.394 176.977 679.203 176.48 678.823 176.128C678.442 175.776 677.894 175.599 677.178 175.599C676.422 175.599 675.823 175.764 675.38 176.094C674.942 176.423 674.647 176.812 674.493 177.261L671.613 176.852C671.84 176.057 672.215 175.392 672.738 174.858C673.26 174.318 673.9 173.915 674.655 173.648C675.411 173.375 676.246 173.239 677.161 173.239C677.792 173.239 678.419 173.312 679.044 173.46C679.669 173.608 680.24 173.852 680.757 174.193C681.275 174.528 681.689 174.986 682.002 175.565C682.32 176.145 682.479 176.869 682.479 177.739V186.5H679.513V184.702H679.411C679.223 185.065 678.959 185.406 678.618 185.724C678.283 186.037 677.86 186.29 677.348 186.483C676.843 186.67 676.249 186.764 675.567 186.764ZM676.368 184.497C676.988 184.497 677.525 184.375 677.979 184.131C678.434 183.881 678.783 183.551 679.027 183.142C679.277 182.733 679.402 182.287 679.402 181.804V180.261C679.306 180.341 679.141 180.415 678.908 180.483C678.681 180.551 678.425 180.611 678.141 180.662C677.857 180.713 677.576 180.759 677.297 180.798C677.019 180.838 676.777 180.872 676.573 180.901C676.113 180.963 675.701 181.065 675.337 181.207C674.973 181.349 674.686 181.548 674.476 181.804C674.266 182.054 674.161 182.378 674.161 182.776C674.161 183.344 674.368 183.773 674.783 184.062C675.198 184.352 675.726 184.497 676.368 184.497ZM691.275 191.682C690.167 191.682 689.215 191.531 688.419 191.23C687.624 190.935 686.985 190.537 686.502 190.037C686.019 189.537 685.684 188.983 685.496 188.375L688.275 187.702C688.4 187.957 688.581 188.21 688.82 188.46C689.059 188.716 689.38 188.926 689.783 189.091C690.192 189.261 690.706 189.347 691.326 189.347C692.201 189.347 692.925 189.134 693.499 188.707C694.073 188.287 694.36 187.594 694.36 186.628V184.148H694.206C694.047 184.466 693.814 184.793 693.507 185.128C693.206 185.463 692.806 185.744 692.306 185.972C691.811 186.199 691.189 186.312 690.439 186.312C689.434 186.312 688.522 186.077 687.703 185.605C686.891 185.128 686.243 184.418 685.76 183.474C685.283 182.526 685.044 181.338 685.044 179.912C685.044 178.474 685.283 177.261 685.76 176.273C686.243 175.278 686.894 174.526 687.712 174.014C688.53 173.497 689.442 173.239 690.448 173.239C691.215 173.239 691.846 173.369 692.34 173.631C692.84 173.886 693.238 174.196 693.533 174.56C693.828 174.918 694.053 175.256 694.206 175.574H694.377V173.409H697.419V186.713C697.419 187.832 697.152 188.759 696.618 189.491C696.084 190.224 695.354 190.773 694.428 191.136C693.502 191.5 692.451 191.682 691.275 191.682ZM691.3 183.892C691.953 183.892 692.51 183.733 692.971 183.415C693.431 183.097 693.78 182.639 694.019 182.043C694.257 181.446 694.377 180.73 694.377 179.895C694.377 179.071 694.257 178.349 694.019 177.73C693.786 177.111 693.439 176.631 692.979 176.29C692.525 175.943 691.965 175.77 691.3 175.77C690.613 175.77 690.039 175.949 689.578 176.307C689.118 176.665 688.772 177.156 688.539 177.781C688.306 178.401 688.189 179.105 688.189 179.895C688.189 180.696 688.306 181.398 688.539 182C688.777 182.597 689.127 183.062 689.587 183.398C690.053 183.727 690.624 183.892 691.3 183.892ZM706.377 186.756C705.064 186.756 703.931 186.483 702.976 185.938C702.027 185.386 701.297 184.608 700.786 183.602C700.275 182.591 700.019 181.401 700.019 180.031C700.019 178.685 700.275 177.503 700.786 176.486C701.303 175.463 702.025 174.668 702.951 174.099C703.877 173.526 704.965 173.239 706.215 173.239C707.022 173.239 707.783 173.369 708.499 173.631C709.221 173.886 709.857 174.284 710.408 174.824C710.965 175.364 711.402 176.051 711.721 176.886C712.039 177.716 712.198 178.705 712.198 179.852V180.798H701.468V178.719H709.24C709.235 178.128 709.107 177.602 708.857 177.142C708.607 176.676 708.257 176.31 707.809 176.043C707.365 175.776 706.848 175.642 706.257 175.642C705.627 175.642 705.073 175.795 704.596 176.102C704.118 176.403 703.746 176.801 703.479 177.295C703.218 177.784 703.084 178.321 703.078 178.906V180.722C703.078 181.483 703.218 182.136 703.496 182.682C703.775 183.222 704.164 183.636 704.664 183.926C705.164 184.21 705.749 184.352 706.419 184.352C706.868 184.352 707.275 184.29 707.638 184.165C708.002 184.034 708.317 183.844 708.584 183.594C708.851 183.344 709.053 183.034 709.189 182.665L712.07 182.989C711.888 183.75 711.542 184.415 711.03 184.983C710.525 185.545 709.877 185.983 709.087 186.295C708.297 186.602 707.394 186.756 706.377 186.756Z" fill="#111111"/>
<rect x="847.5" y="143" width="156" height="69" rx="10" fill="#D4D4D4"/>
<path d="M889.71 186V168.545H900.892V171.196H892.872V175.935H900.125V178.585H892.872V186H889.71ZM908.385 186.256C907.107 186.256 905.999 185.974 905.061 185.412C904.124 184.849 903.397 184.062 902.88 183.051C902.368 182.04 902.113 180.858 902.113 179.506C902.113 178.153 902.368 176.969 902.88 175.952C903.397 174.935 904.124 174.145 905.061 173.582C905.999 173.02 907.107 172.739 908.385 172.739C909.664 172.739 910.772 173.02 911.709 173.582C912.647 174.145 913.371 174.935 913.882 175.952C914.4 176.969 914.658 178.153 914.658 179.506C914.658 180.858 914.4 182.04 913.882 183.051C913.371 184.062 912.647 184.849 911.709 185.412C910.772 185.974 909.664 186.256 908.385 186.256ZM908.402 183.784C909.096 183.784 909.675 183.594 910.141 183.213C910.607 182.827 910.953 182.31 911.181 181.662C911.414 181.014 911.53 180.293 911.53 179.497C911.53 178.696 911.414 177.972 911.181 177.324C910.953 176.67 910.607 176.151 910.141 175.764C909.675 175.378 909.096 175.185 908.402 175.185C907.692 175.185 907.101 175.378 906.63 175.764C906.164 176.151 905.814 176.67 905.581 177.324C905.354 177.972 905.24 178.696 905.24 179.497C905.24 180.293 905.354 181.014 905.581 181.662C905.814 182.31 906.164 182.827 906.63 183.213C907.101 183.594 907.692 183.784 908.402 183.784ZM922.987 186.256C921.708 186.256 920.6 185.974 919.663 185.412C918.725 184.849 917.998 184.062 917.481 183.051C916.97 182.04 916.714 180.858 916.714 179.506C916.714 178.153 916.97 176.969 917.481 175.952C917.998 174.935 918.725 174.145 919.663 173.582C920.6 173.02 921.708 172.739 922.987 172.739C924.265 172.739 925.373 173.02 926.311 173.582C927.248 174.145 927.973 174.935 928.484 175.952C929.001 176.969 929.26 178.153 929.26 179.506C929.26 180.858 929.001 182.04 928.484 183.051C927.973 184.062 927.248 184.849 926.311 185.412C925.373 185.974 924.265 186.256 922.987 186.256ZM923.004 183.784C923.697 183.784 924.277 183.594 924.743 183.213C925.208 182.827 925.555 182.31 925.782 181.662C926.015 181.014 926.132 180.293 926.132 179.497C926.132 178.696 926.015 177.972 925.782 177.324C925.555 176.67 925.208 176.151 924.743 175.764C924.277 175.378 923.697 175.185 923.004 175.185C922.294 175.185 921.703 175.378 921.231 175.764C920.765 176.151 920.416 176.67 920.183 177.324C919.956 177.972 919.842 178.696 919.842 179.497C919.842 180.293 919.956 181.014 920.183 181.662C920.416 182.31 920.765 182.827 921.231 183.213C921.703 183.594 922.294 183.784 923.004 183.784ZM938.415 172.909V175.295H930.89V172.909H938.415ZM932.748 169.773H935.833V182.062C935.833 182.477 935.895 182.795 936.02 183.017C936.151 183.233 936.321 183.381 936.532 183.46C936.742 183.54 936.975 183.58 937.23 183.58C937.424 183.58 937.6 183.565 937.759 183.537C937.924 183.509 938.049 183.483 938.134 183.46L938.654 185.872C938.489 185.929 938.253 185.991 937.946 186.06C937.645 186.128 937.276 186.168 936.838 186.179C936.066 186.202 935.37 186.085 934.75 185.83C934.131 185.568 933.64 185.165 933.276 184.619C932.918 184.074 932.742 183.392 932.748 182.574V169.773ZM946.65 186.256C945.338 186.256 944.204 185.983 943.25 185.438C942.301 184.886 941.571 184.108 941.059 183.102C940.548 182.091 940.292 180.901 940.292 179.531C940.292 178.185 940.548 177.003 941.059 175.986C941.576 174.963 942.298 174.168 943.224 173.599C944.15 173.026 945.238 172.739 946.488 172.739C947.295 172.739 948.056 172.869 948.772 173.131C949.494 173.386 950.13 173.784 950.681 174.324C951.238 174.864 951.676 175.551 951.994 176.386C952.312 177.216 952.471 178.205 952.471 179.352V180.298H941.741V178.219H949.514C949.508 177.628 949.38 177.102 949.13 176.642C948.88 176.176 948.531 175.81 948.082 175.543C947.639 175.276 947.122 175.142 946.531 175.142C945.9 175.142 945.346 175.295 944.869 175.602C944.392 175.903 944.02 176.301 943.752 176.795C943.491 177.284 943.358 177.821 943.352 178.406V180.222C943.352 180.983 943.491 181.636 943.77 182.182C944.048 182.722 944.437 183.136 944.937 183.426C945.437 183.71 946.022 183.852 946.693 183.852C947.142 183.852 947.548 183.79 947.912 183.665C948.275 183.534 948.591 183.344 948.858 183.094C949.125 182.844 949.326 182.534 949.463 182.165L952.343 182.489C952.162 183.25 951.815 183.915 951.304 184.483C950.798 185.045 950.15 185.483 949.36 185.795C948.571 186.102 947.667 186.256 946.65 186.256ZM955.081 186V172.909H958.073V175.091H958.209C958.448 174.335 958.857 173.753 959.436 173.344C960.022 172.929 960.689 172.722 961.439 172.722C961.61 172.722 961.8 172.73 962.01 172.747C962.226 172.759 962.405 172.778 962.547 172.807V175.645C962.417 175.599 962.209 175.56 961.925 175.526C961.647 175.486 961.377 175.466 961.115 175.466C960.553 175.466 960.047 175.588 959.598 175.832C959.155 176.071 958.806 176.403 958.55 176.83C958.294 177.256 958.167 177.747 958.167 178.304V186H955.081Z" fill="#111111"/>
</svg>
