<svg width="300" height="64" viewBox="0 0 300 64" fill="none" xmlns="http://www.w3.org/2000/svg">
<g clip-path="url(#clip0_152_5919)">
<mask id="mask0_152_5919" style="mask-type:luminance" maskUnits="userSpaceOnUse" x="0" y="0" width="300" height="64">
<path d="M300 0H0V64H300V0Z" fill="white"/>
</mask>
<g mask="url(#mask0_152_5919)">
<path d="M29.3487 1.06778C33.3549 0.487688 37.4662 1.44543 40.939 3.47382C42.9985 4.66127 44.5792 6.48722 46.2883 8.10682C49.9324 11.4667 53.3468 15.068 56.8741 18.5485C59.9498 21.5308 62.1145 25.5097 62.6323 29.8001C63.3915 35.2663 61.4215 40.9699 57.5827 44.8943C53.7284 48.8888 49.7416 52.7587 45.8484 56.7221C43.1581 59.4591 39.9501 61.8456 36.1658 62.7411C32.7397 63.512 29.0294 63.6249 25.7085 62.3323C22.5977 61.3395 19.9231 59.3384 17.6455 57.0413C13.6238 52.9962 9.59419 48.955 5.56076 44.9216C1.39886 40.713 -0.4232 34.4331 0.68249 28.6243C1.41443 24.8751 3.41168 21.449 6.09025 18.7627C10.0147 14.8266 13.943 10.9022 17.8557 6.9583C20.9392 3.85147 24.9259 1.46879 29.3487 1.06778ZM26.491 13.7092C23.8786 15.8778 23.0221 19.409 22.7068 22.6482C22.6016 27.3006 23.1856 31.9492 24.1161 36.5004C25.105 40.8181 26.6429 45.2214 29.8353 48.4255C31.7314 50.3488 34.5034 51.5674 37.2248 51.0379C38.712 50.8939 40.0435 50.1736 41.2582 49.3521C43.5942 47.6118 45.7082 45.4705 47.1176 42.8971C47.8962 41.4371 45.7432 39.9421 44.6337 41.0439C42.6403 43.3915 40.9078 46.2803 37.9217 47.4833C36.0685 48.4216 33.7598 47.752 32.3893 46.292C29.9755 44.0962 28.8114 40.9349 27.8653 37.8942C26.4132 32.7045 25.7747 27.2695 26.1873 21.8851C26.4015 19.9735 26.892 17.984 28.2741 16.5669C29.3837 15.5196 31.0578 15.4845 32.4672 15.7921C33.6741 16.1464 34.4372 17.3183 34.9589 18.3967C35.8972 20.7444 36.1385 23.3217 35.9867 25.829C35.7687 30.1972 35.1107 34.6667 33.0317 38.5716C32.5528 39.6851 31.5445 40.7441 31.9299 42.0639C32.1986 42.9944 33.3704 43.0878 34.114 43.3292C38.1592 36.9014 39.8683 29.0526 39.078 21.5113C38.7276 19.0118 38.0462 16.4111 36.3021 14.5112C33.8493 11.8015 29.3798 11.6419 26.491 13.7092ZM23.3998 47.604C22.5277 47.8688 21.8347 48.8304 22.1422 49.7765C22.3408 50.7965 23.4971 51.5012 24.5054 51.0613C25.6734 50.7654 26.0238 49.1536 25.3698 48.2309C24.9065 47.6702 24.0928 47.5028 23.3998 47.604Z" fill="white"/>
<path d="M109.9 20.6313C113.867 20.2264 118.127 20.8961 121.35 23.3917C124.013 25.3967 125.648 28.6671 125.668 32.0075C125.968 35.3323 124.434 38.6222 122.039 40.8608C118.586 44.0377 113.466 44.7618 108.981 44.0961C103.846 43.4693 98.9328 39.5098 98.2904 34.1683C97.3988 29.4301 100.074 24.4039 104.309 22.2393C106.034 21.3127 107.965 20.8455 109.9 20.6313ZM110.753 23.4073C108.756 23.6798 107.245 25.2799 106.229 26.9112C104.368 30.057 104.442 34.106 105.929 37.3802C107.261 40.16 110.457 42.4181 113.607 41.3397C118.146 39.7123 119.918 34.0437 118.676 29.6637C118.072 26.0625 114.634 22.469 110.753 23.4073Z" fill="white"/>
<path d="M224.845 20.8844C227.683 20.608 230.548 20.6781 233.402 20.7365C235.886 20.8221 238.253 21.9434 240.094 23.5825C241.333 24.6453 241.78 26.2688 242.38 27.7249C240.301 27.7405 238.23 27.7366 236.158 27.7483C235.356 26.0157 234.582 23.8628 232.647 23.1425C231.23 22.5546 229.622 22.5702 228.127 22.687C226.593 23.2788 225.257 24.4662 224.615 26.0002C222.66 29.6599 222.322 34.4058 224.708 37.9486C225.892 39.4787 227.461 41.2268 229.583 41.1294C232.226 41.5577 234.258 39.4242 235.703 37.5165C236.201 36.5432 236.201 35.4024 236.45 34.3551C234.297 34.3435 232.148 34.3318 230.003 34.3318C230.003 33.7517 230.003 32.5876 230.003 32.0036C233.608 32.0425 237.213 31.8868 240.819 32.0231C241.465 32.0542 242.096 32.5175 242.162 33.1949C242.473 36.5432 242.251 39.9147 242.294 43.2746C240.313 43.2591 238.339 43.2591 236.365 43.2707C236.373 42.749 236.388 41.7095 236.396 41.1878C235.119 42.4337 233.604 43.7613 231.697 43.664C229.4 43.6834 226.982 43.9988 224.778 43.1929C220.994 41.7017 217.72 38.5443 216.75 34.4953C216.602 32.1944 216.299 29.7027 217.264 27.5302C218.008 25.6303 219.086 23.707 220.893 22.652C222.115 21.8928 223.408 21.1375 224.845 20.8844Z" fill="white"/>
<path d="M278.565 22.2395C282.555 20.1332 287.278 20.7016 291.623 20.8379C293.978 21.4024 296.536 22.2667 298.113 24.225C298.417 25.0309 298.697 25.8524 298.962 26.6739C296.933 26.6739 294.913 26.67 292.892 26.6622C292.405 25.3268 291.627 23.9798 290.213 23.4775C287.905 22.5587 285.125 22.5315 282.991 23.9214C281.987 24.4041 281.921 25.7084 281.964 26.6661C282.03 27.4292 282.875 27.6511 283.451 27.9431C285.95 28.9593 288.707 28.7257 291.296 29.3875C294.286 30.0377 297.657 31.1745 299.117 34.1178C299.433 35.8581 299.651 37.8554 298.705 39.4516C298.101 40.9544 296.626 41.811 295.36 42.6908C292.351 44.2715 288.812 43.9094 285.538 43.9211C282.684 44.0457 279.931 42.8466 277.704 41.1335C276.268 39.876 275.54 38.0656 275.119 36.2475C277.132 36.2553 279.149 36.263 281.165 36.2708C281.952 39.3582 285.164 41.4683 288.298 41.1841C290.225 41.5696 292.409 40.6741 293.219 38.8326C293.694 37.6724 292.919 36.52 291.887 36.0606C288.387 34.367 284.342 34.9238 280.733 33.6117C279.118 33.09 277.478 32.3308 276.423 30.9448C274.73 28.1572 275.283 23.5982 278.565 22.2395Z" fill="white"/>
<path d="M78.2252 21.3633C80.4132 21.3789 82.6052 21.3789 84.7972 21.3633C84.7972 26.3272 84.8088 31.2911 84.7621 36.2551C84.801 37.6878 84.7037 39.21 85.3072 40.5493C89.3756 40.4637 93.4441 40.5221 97.5126 40.5065C97.5087 41.4253 97.5126 42.348 97.5126 43.2707C91.8557 43.2279 86.1987 43.333 80.5418 43.2629C79.2376 43.1773 78.0229 41.8653 78.2565 40.5065C78.1358 34.1254 78.2719 27.7444 78.2252 21.3633Z" fill="white"/>
<path d="M126.765 21.3672C134.61 21.3672 142.455 21.3672 150.296 21.3672C150.292 22.2899 150.296 23.2087 150.296 24.1314C147.75 24.1314 145.208 24.1353 142.666 24.1353C142.666 30.5164 142.666 36.8935 142.666 43.2746C140.333 43.2629 138.001 43.2552 135.669 43.2746C135.669 36.8935 135.669 30.5164 135.669 24.1353C132.703 24.1314 129.736 24.1353 126.765 24.1314C126.762 23.2087 126.765 22.2899 126.765 21.3672Z" fill="white"/>
<path d="M152.629 21.3672C160.474 21.3672 168.315 21.3672 176.16 21.3672C176.152 22.2899 176.16 23.2087 176.16 24.1314C173.119 24.1314 170.082 24.1353 167.045 24.1314C167.045 30.5125 167.042 36.8935 167.045 43.2746C164.784 43.259 162.522 43.259 160.26 43.2746C160.26 36.8935 160.26 30.5125 160.26 24.1353C157.713 24.1353 155.175 24.1314 152.629 24.1314C152.625 23.2087 152.629 22.2899 152.629 21.3672Z" fill="white"/>
<path d="M181.969 21.4722C188.011 21.1997 194.065 21.4527 200.115 21.3671C200.108 22.2898 200.115 23.2125 200.115 24.1352C195.879 24.1897 191.644 24.0028 187.419 24.1936C186.944 24.2247 186.485 24.5673 186.442 25.0657C186.275 26.806 186.318 28.5541 186.298 30.3021C190.834 30.2827 195.369 30.3138 199.901 30.2982C199.893 31.2209 199.901 32.1436 199.901 33.0664C195.377 33.0469 190.853 33.0741 186.325 33.0625C186.462 35.5308 185.893 38.1899 186.851 40.5492C191.27 40.4597 195.693 40.5259 200.115 40.5025C200.108 41.4213 200.115 42.3479 200.115 43.2706C194.104 43.2317 188.093 43.329 182.082 43.2628C181.136 43.2278 180.291 42.4725 179.917 41.6393C179.606 39.1515 179.785 36.6287 179.757 34.1253C179.816 30.5824 179.644 27.0357 179.808 23.4928C180.065 22.5039 180.855 21.4722 181.969 21.4722Z" fill="white"/>
<path d="M249.382 21.4841C253.586 21.2076 257.803 21.414 262.015 21.3634C264.612 21.3751 267.466 21.4919 269.677 23.0336C271.682 24.8946 271.854 28.2155 270.468 30.5009C269.856 31.9609 268.264 32.5215 266.952 33.1678C267.727 33.6428 268.747 33.9075 269.187 34.7796C270.709 37.3608 270.141 40.5611 271.355 43.2591C269.008 43.263 266.664 43.2591 264.32 43.2786C263.83 40.9738 263.837 38.4665 262.767 36.3291C260.828 33.6544 257.013 34.4759 254.174 34.3241C254.17 37.3063 254.17 40.2886 254.17 43.2747C251.979 43.263 249.787 43.2591 247.599 43.2747C247.645 36.5355 247.513 29.8001 247.63 23.0647C247.641 22.142 248.537 21.5503 249.382 21.4841ZM254.256 24.8323C254.061 27.0047 254.17 29.1966 254.159 31.3769C257.02 31.2484 260.077 31.8012 262.794 30.6488C264.819 29.5159 265.002 26.5531 263.627 24.8401C261.665 23.3489 259.002 23.8045 256.717 23.7266C255.872 23.7655 254.486 23.7422 254.256 24.8323Z" fill="white"/>
<path d="M26.4898 13.7093C29.3786 11.642 33.8481 11.8016 36.3008 14.5113C38.045 16.4112 38.7264 19.0119 39.0768 21.5114C39.8671 29.0527 38.1579 36.9015 34.1128 43.3293C33.3692 43.0879 32.1973 42.9945 31.9287 42.064C31.5433 40.7442 32.5516 39.6852 33.0305 38.5717C35.1095 34.6668 35.7675 30.1973 35.9855 25.8291C36.1373 23.3218 35.8959 20.7444 34.9577 18.3968C34.436 17.3184 33.6729 16.1465 32.466 15.7922C31.0566 15.4846 29.3825 15.5197 28.2729 16.567C26.8908 17.9841 26.4003 19.9736 26.1861 21.8852C25.7734 27.2696 26.4119 32.7046 27.8641 37.8943C28.8102 40.935 29.9743 44.0963 32.3881 46.2921C33.7585 47.7521 36.0673 48.4217 37.9205 47.4834C40.9066 46.2804 42.6391 43.3916 44.6325 41.044C45.742 39.9422 47.895 41.4372 47.1164 42.8972C45.707 45.4706 43.5929 47.6119 41.257 49.3522C40.0423 50.1737 38.7108 50.894 37.2236 51.038C34.5022 51.5675 31.7301 50.3489 29.8341 48.4256C26.6416 45.2214 25.1038 40.8182 24.1149 36.5005C23.1844 31.9493 22.6004 27.3007 22.7055 22.6483C23.0209 19.4091 23.8774 15.8779 26.4898 13.7093Z" fill="#ED1C24"/>
<path d="M23.4001 47.604C24.0931 47.5028 24.9068 47.6702 25.3701 48.2309C26.0242 49.1536 25.6738 50.7654 24.5058 51.0613C23.4975 51.5012 22.3412 50.7965 22.1426 49.7765C21.835 48.8304 22.528 47.8688 23.4001 47.604Z" fill="#ED1C24"/>
</g>
</g>
<defs>
<clipPath id="clip0_152_5919">
<rect width="300" height="64" fill="white"/>
</clipPath>
</defs>
</svg>
